<svg xmlns="http://www.w3.org/2000/svg" id="Ai_CC" viewBox="116 0 611 595"><style id="style4231">.st0{fill:url(#SVGID_1_);} .st1{fill:#FF7719;}</style><g id="icon"><radialGradient id="SVGID_1_" cx="27.241" cy="570.197" r="702.755" gradientUnits="userSpaceOnUse" gradientTransform="matrix(1.0863 0 0 -1.0863 115.7 646.64)"><stop id="stop4233" offset="0" stop-color="#3A2C22"/><stop id="stop4235" offset=".014" stop-color="#392B21"/><stop id="stop4237" offset=".289" stop-color="#2C1B11"/><stop id="stop4239" offset=".597" stop-color="#241107"/><stop id="stop4241" offset="1" stop-color="#220E04"/></radialGradient><path id="rect4244" d="M128.7 13h584.4v569.2H128.7z" class="st0"/><path id="path4246" d="M700.1 26.1v543.1H141.8V26.1h558.3M726.2 0H115.7v595.3h610.5V0z" class="st1"/></g><g id="A"><path id="path4249" d="M334.3 362.4L306 440.9c-.4 2.7-2.3 3.6-4.9 3.6h-46.7c-3.2 0-4-1.8-3.2-4.5 25.6-70.1 67.3-184.1 97-262.7 1.3-3.6 3.2-8.6 4-24.7 0-2.3 1.3-3.2 3.2-3.2h62.9c1.8 0 2.7.4 3.6 2.3 35 95.2 71.4 194 107.3 288.7.9 2.7 0 4-2.7 4h-51.6c-2.3 0-3.2-.9-4-2.7l-29.7-79.5-106.9.2zm94.2-44c-9.5-30.1-32.4-91.1-41.7-123.1h-.4c-7.2 29.7-26.1 81.7-40 123.1h82.1z" class="st1"/></g><g id="i"><path id="rect4252" d="M540.6 224.1h52.1v220.5h-52.1z" class="st1"/><circle id="circle4254" cx="566.6" cy="182.8" r="25.1" class="st1"/></g></svg>
