<svg xmlns="http://www.w3.org/2000/svg" id="svg2" xmlns:xlink="http://www.w3.org/1999/xlink" viewBox="0 0 128 128" version="1"><defs id="defs4"><linearGradient id="WhiteTransparent" gradientUnits="userSpaceOnUse"><stop id="stop7" offset="0" stop-color="#fff"/><stop id="stop9" offset="1" stop-color="#fff" stop-opacity="0"/></linearGradient><linearGradient id="BlackTransparent" gradientUnits="userSpaceOnUse"><stop id="stop12" offset="0"/><stop id="stop14" offset="1" stop-opacity="0"/></linearGradient><linearGradient id="liquidShade" x2="0" y1="128" y2="64" gradientUnits="userSpaceOnUse" xlink:href="#BlackTransparent"/><linearGradient id="liquidSpecular" x2="0" y1="128" y2="76" gradientUnits="userSpaceOnUse" xlink:href="#WhiteTransparent"/><linearGradient id="sideSpecular" x1="80" x2="60" y1="20" y2="40" gradientUnits="userSpaceOnUse" xlink:href="#WhiteTransparent"/><linearGradient id="IcecapTip" x1="60" x2="90" y1="20" y2="50" gradientUnits="userSpaceOnUse" xlink:href="#WhiteTransparent"/><linearGradient id="shinySpecular" x1="33" x2="58" y1="35" y2="60" gradientUnits="userSpaceOnUse" xlink:href="#WhiteTransparent"/><clipPath id="clipoutline1"><path id="outline1" d="M54.1 12.5L12.9 54.7C-2.7 70.3 23 69 32.3 74.9c4.3 2.8-13.8 6.4-10.1 10.1 3.6 3.7 21.7 7.1 25.3 10.7 3.6 3.7-7.3 7.6-3.7 11.3 3.5 3.7 11.9.2 13.4 8.6 1.1 6.2 15.4 3.1 21.8-2.2 4-3.4-6.9-3.4-3.3-7.1 9-9.1 17-4.1 20.3-12.5 1.8-4.5-13.6-7.7-9.5-10.6 9.8-6.9 45.8-10.4 29.2-27L73 12.5c-5.3-5-14-5-18.9 0zm-9.9 64.7c.9 0 30.8 4 19.3 7.1-4.4 1.2-24.6-7.1-19.3-7.1zm57.2 16.6c0 2.1 16.3 3.3 15.4-.5-1.3-6.4-13.6-5.9-15.4.5zm-69.5 11.1c3.7 3.2 9.3-.7 11.1-5.2-3.6-4.7-16.9.3-11.1 5.2zm67.5-6.7c-4.6 4.2.8 8.6 5.3 5.7 1.2-.8-.1-4.7-5.3-5.7z"/></clipPath><filter id="ShadowBlur" x="0" y="0" filterUnits="userSpaceOnUse"><feGaussianBlur id="feGaussianBlur24" result="blur" stdDeviation="3" in="SourceAlpha"/></filter><filter id="filter6017" color-interpolation-filters="sRGB"><feGaussianBlur id="feGaussianBlur6019" stdDeviation=".805"/></filter><filter id="filter6031" color-interpolation-filters="sRGB"><feGaussianBlur id="feGaussianBlur6033" stdDeviation="3.49"/></filter><linearGradient id="linearGradient9175" x1="82.119" x2="60" y1="20" y2="40" gradientUnits="userSpaceOnUse" xlink:href="#linearGradient5785"/><linearGradient id="linearGradient5785" gradientUnits="userSpaceOnUse"><stop id="stop5787" offset="0" stop-color="#c0cdf9"/><stop id="stop5789" offset="1" stop-color="#07092d" stop-opacity=".288"/></linearGradient><clipPath id="clipPath9086"><use id="use9088" width="400" height="300" fill="#fff" class="low-specularity" xlink:href="#outline1"/></clipPath><filter id="filter8490" color-interpolation-filters="sRGB"><feGaussianBlur id="feGaussianBlur8492" stdDeviation="2.416"/></filter><linearGradient id="shinySpecular-4" x1="33" x2="58" y1="35" y2="60" gradientTransform="matrix(1.0092 0 0 1.0092 -.39 -.383)" xlink:href="#WhiteTransparent-4" gradientUnits="userSpaceOnUse"/><linearGradient id="WhiteTransparent-4" gradientUnits="userSpaceOnUse"><stop id="stop7606-4" offset="0" stop-color="#fff"/><stop id="stop7608-7" offset="1" stop-color="#fff" stop-opacity="0"/></linearGradient><linearGradient id="IcecapTip-6" x1="60" x2="90" y1="20" y2="50" xlink:href="#WhiteTransparent-4" gradientUnits="userSpaceOnUse"/><radialGradient id="radialGradient9177" cx="116.31" cy="250.897" r="30.6" fy="250.897" fx="116.31" gradientTransform="matrix(1.57 0 0 1.051 -75.5 -22.096)" gradientUnits="userSpaceOnUse" xlink:href="#linearGradient8568"/><linearGradient id="linearGradient8568"><stop id="stop8570" offset="0" stop-color="#fff"/><stop id="stop8572" offset="1" stop-color="#fff" stop-opacity="0"/></linearGradient><radialGradient id="radialGradient8574" cx="132.444" cy="251.994" r="30.6" gradientUnits="userSpaceOnUse" gradientTransform="matrix(2.0033 0 0 1.341 -132.875 -95.166)" fy="251.994" fx="132.444" xlink:href="#linearGradient8568"/><filter id="filter8732" width="1.156" height="1.228" x="-.078" y="-.114" color-interpolation-filters="sRGB"><feGaussianBlur id="feGaussianBlur8734" stdDeviation="1.958"/></filter><radialGradient id="radialGradient8744" cx="210.25" cy="168.5" r="34.25" gradientUnits="userSpaceOnUse" gradientTransform="matrix(1 0 0 .4234 0 97.164)" fy="168.5" fx="210.25" xlink:href="#linearGradient8738"/><linearGradient id="linearGradient8738"><stop id="stop8740" offset="0" stop-color="#fff"/><stop id="stop8742" offset="1" stop-color="#fff" stop-opacity="0"/></linearGradient><radialGradient id="radialGradient8768" cx="217.5" cy="182.082" r="34.25" fy="182.082" fx="217.5" gradientTransform="matrix(1 0 0 .4234 0 97.164)" gradientUnits="userSpaceOnUse" xlink:href="#linearGradient8738"/><filter id="filter8764" width="1.149" height="1.351" x="-.074" y="-.175" color-interpolation-filters="sRGB"><feGaussianBlur id="feGaussianBlur8766" stdDeviation="2.12"/></filter><linearGradient id="linearGradient8912" x1="231.625" x2="231.75" y1="195.188" y2="201.5" gradientUnits="userSpaceOnUse" xlink:href="#linearGradient8866"/><linearGradient id="linearGradient8866"><stop id="stop8868" offset="0" stop-color="#fff"/><stop id="stop8870" offset="1" stop-color="#fff" stop-opacity="0"/></linearGradient><linearGradient id="linearGradient8910" x1="231.376" x2="231.376" y1="195.621" y2="200.071" gradientUnits="userSpaceOnUse" xlink:href="#linearGradient8866"/><filter id="filter8906" width="1.171" height="1.556" x="-.085" y="-.278" color-interpolation-filters="sRGB"><feGaussianBlur id="feGaussianBlur8908" stdDeviation=".565"/></filter><radialGradient id="radialGradient8922" cx="228.219" cy="204.832" r="14.094" gradientUnits="userSpaceOnUse" gradientTransform="matrix(1 0 0 .1477 0 174.57)" fy="204.832" fx="228.219" xlink:href="#linearGradient8916"/><linearGradient id="linearGradient8916"><stop id="stop8918" offset="0" stop-color="#fff"/><stop id="stop8920" offset="1" stop-color="#fff" stop-opacity="0"/></linearGradient><filter id="filter8980" width="1.14" height="1.946" x="-.07" y="-.473" color-interpolation-filters="sRGB"><feGaussianBlur id="feGaussianBlur8982" stdDeviation=".821"/></filter><linearGradient id="linearGradient8990" x1="231.625" x2="231.75" y1="195.188" y2="201.5" gradientUnits="userSpaceOnUse" xlink:href="#linearGradient8866"/><linearGradient id="linearGradient8992" x1="231.376" x2="231.376" y1="195.621" y2="200.071" gradientUnits="userSpaceOnUse" xlink:href="#linearGradient8866"/><radialGradient id="radialGradient8994" cx="228.219" cy="204.832" r="14.094" fy="204.832" fx="228.219" gradientTransform="matrix(1 0 0 .1477 0 174.57)" gradientUnits="userSpaceOnUse" xlink:href="#linearGradient8916"/><radialGradient id="radialGradient9004" cx="89.875" cy="187.869" r="22.75" gradientUnits="userSpaceOnUse" gradientTransform="matrix(1 0 0 .407 0 115.76)" fy="187.869" fx="89.875" xlink:href="#linearGradient8998"/><linearGradient id="linearGradient8998"><stop id="stop9000" offset="0" stop-color="#fff" stop-opacity=".33"/><stop id="stop9002" offset="1" stop-color="#fff" stop-opacity="0"/></linearGradient><linearGradient id="linearGradient9023" x1="231.625" x2="231.75" y1="195.188" y2="201.5" gradientUnits="userSpaceOnUse" xlink:href="#linearGradient8866"/><linearGradient id="linearGradient9025" x1="231.376" x2="231.376" y1="195.621" y2="200.071" gradientUnits="userSpaceOnUse" xlink:href="#linearGradient8866"/><radialGradient id="radialGradient9046" cx="90.281" cy="230.836" r="10.469" gradientUnits="userSpaceOnUse" gradientTransform="matrix(1.185 -.3284 .123 .4434 -45.068 152.922)" fy="230.836" fx="90.281" xlink:href="#linearGradient9040"/><linearGradient id="linearGradient9040"><stop id="stop9042" offset="0" stop-color="#fff"/><stop id="stop9044" offset="1" stop-color="#fff" stop-opacity="0"/></linearGradient><filter id="filter9068" width="1.152" height="1.331" x="-.076" y="-.166" color-interpolation-filters="sRGB"><feGaussianBlur id="feGaussianBlur9070" stdDeviation=".665"/></filter><radialGradient id="radialGradient11553" cx="68.4" cy="21.226" r="54.783" fy="21.226" fx="68.4" gradientTransform="matrix(1.7222 0 0 1.695 -49.395 -14.078)" gradientUnits="userSpaceOnUse" xlink:href="#linearGradient9286"/><linearGradient id="linearGradient9286"><stop id="stop9288" offset="0" stop-color="#fff"/><stop id="stop9290" offset="1" stop-color="#fff" stop-opacity="0"/></linearGradient><filter id="filter9298" color-interpolation-filters="sRGB"><feGaussianBlur id="feGaussianBlur9300" stdDeviation=".326"/></filter><linearGradient id="linearGradient5905" x1="95.5" x2="153.5" y1="208.164" y2="223.5" gradientUnits="userSpaceOnUse" xlink:href="#linearGradient5899-3"/><linearGradient id="linearGradient5899-3"><stop id="stop5901-1" offset="0" stop-color="#fff"/><stop id="stop5903-7" offset="1" stop-color="#fff" stop-opacity="0"/></linearGradient><filter id="filter5983-5" width="1.165" height="1.245" x="-.083" y="-.122" color-interpolation-filters="sRGB"><feGaussianBlur id="feGaussianBlur5985-9" stdDeviation="3.687"/></filter><linearGradient id="linearGradient5801" x1="57.225" x2="53.632" y1="76.246" y2="84.48" gradientTransform="matrix(.8853 0 0 .8853 5.177 9.23)" gradientUnits="userSpaceOnUse" xlink:href="#linearGradient5793-6"/><linearGradient id="linearGradient5793-6"><stop id="stop5795-2" offset="0" stop-color="#eeeeec"/><stop id="stop5797-1" offset="1" stop-color="#eeeeec" stop-opacity="0"/></linearGradient><radialGradient id="radialGradient5811" cx="181.227" cy="214.551" r="22.466" gradientUnits="userSpaceOnUse" gradientTransform="matrix(1.3515 0 0 1.7176 -63.706 -153.956)" fy="214.551" fx="181.227" xlink:href="#linearGradient5805"/><linearGradient id="linearGradient5805"><stop id="stop5807" offset="0" stop-color="#fff"/><stop id="stop5809" offset="1" stop-color="#fff" stop-opacity="0"/></linearGradient><filter id="filter5845" color-interpolation-filters="sRGB"><feGaussianBlur id="feGaussianBlur5847" stdDeviation="1.241"/></filter><linearGradient id="linearGradient5822" x1="73.712" x2="82.754" y1="180.476" y2="187.66" gradientTransform="matrix(.4928 0 0 .4928 -6 -9.723)" gradientUnits="userSpaceOnUse" xlink:href="#WhiteTransparent-4"/><linearGradient id="linearGradient10981-3"><stop id="stop10983-2" offset="0" stop-color="#729fcf"/><stop id="stop10985-3" offset="1" stop-color="#729fcf" stop-opacity="0"/></linearGradient><filter id="filter10997-7" color-interpolation-filters="sRGB"><feGaussianBlur id="feGaussianBlur10999-0" stdDeviation="2.77"/></filter><linearGradient id="linearGradient1030" x1="180.813" x2="153.701" y1="217.5" y2="144.5" xlink:href="#linearGradient10981-3" gradientUnits="userSpaceOnUse" gradientTransform="translate(-130.166 -83.353)"/></defs><style id="style26">.specularity {opacity:0.5;} .low-specularity {opacity:0.25;} .full-specularity {opacity:1;} .black {fill:#000000;} .white {fill:#ffffff;} .outline-big {stroke-width:16;stroke:none;opacity:0.1;fill:none;} .outline-small {stroke-width:8;stroke:none;opacity:0.2;fill:none;} .stroke-highlight {fill:none;stroke:none;opacity:0.2;} .base-shadow {fill:black;opacity:75;}</style><g id="g9139" transform="matrix(.9966 0 0 .9963 .22 -1.598)" enable-background="new"><g id="g6035" opacity=".783"><path id="path5987" d="M54.1 12.988l-41.2 42.2c-15.6 15.6 10.1 14.3 19.4 20.2 4.3 2.8-13.8 6.4-10.1 10.1 3.6 3.7 21.7 7.1 25.3 10.7 3.6 3.7-7.3 7.6-3.7 11.3 3.5 3.7 11.9.2 13.4 8.6 1.1 6.2 15.4 3.1 21.8-2.2 4-3.4-6.9-3.4-3.3-7.1 9-9.1 17-4.1 20.3-12.5 1.8-4.5-13.6-7.7-9.5-10.6 9.8-6.9 45.8-10.4 29.2-27L73 12.988c-5.3-5-14-5-18.9 0zm47.3 81.3c0 2.1 16.3 3.3 15.4-.5-1.3-6.4-13.6-5.9-15.4.5zm-69.5 11.1c3.7 3.2 9.3-.7 11.1-5.2-3.6-4.7-16.9.3-11.1 5.2zm67.5-6.7c-4.6 4.2.8 8.6 5.3 5.7 1.2-.8-.1-4.7-5.3-5.7z" filter="url(#filter6017)" transform="translate(0 .488)"/><path id="path6021" d="M54.1 13.965l-41.2 42.2c-15.6 15.6 10.1 14.3 19.4 20.2 4.3 2.8-13.8 6.4-10.1 10.1 3.6 3.7 21.7 7.1 25.3 10.7 3.6 3.7-7.3 7.6-3.7 11.3 3.5 3.7 11.9.2 13.4 8.6 1.1 6.2 15.4 3.1 21.8-2.2 4-3.4-6.9-3.4-3.3-7.1 9-9.1 17-4.1 20.3-12.5 1.8-4.5-13.6-7.7-9.5-10.6 9.8-6.9 45.8-10.4 29.2-27L73 13.965c-5.3-5-14-5-18.9 0zm47.3 81.3c0 2.1 16.3 3.3 15.4-.5-1.3-6.4-13.6-5.9-15.4.5zm-69.5 11.1c3.7 3.2 9.3-.7 11.1-5.2-3.6-4.7-16.9.3-11.1 5.2zm67.5-6.7c-4.6 4.2.8 8.6 5.3 5.7 1.2-.8-.1-4.7-5.3-5.7z" opacity=".576" filter="url(#filter6031)" transform="translate(0 .488)"/></g><path id="use7631" d="M54.1 12.5L12.9 54.7C-2.7 70.3 23 69 32.3 74.9c4.3 2.8-13.8 6.4-10.1 10.1 3.6 3.7 21.7 7.1 25.3 10.7 3.6 3.7-7.3 7.6-3.7 11.3 3.5 3.7 11.9.2 13.4 8.6 1.1 6.2 15.4 3.1 21.8-2.2 4-3.4-6.9-3.4-3.3-7.1 9-9.1 17-4.1 20.3-12.5 1.8-4.5-13.6-7.7-9.5-10.6 9.8-6.9 45.8-10.4 29.2-27L73 12.5c-5.3-5-14-5-18.9 0zm47.3 81.3c0 2.1 16.3 3.3 15.4-.5-1.3-6.4-13.6-5.9-15.4.5zm-69.5 11.1c3.7 3.2 9.3-.7 11.1-5.2-3.6-4.7-16.9.3-11.1 5.2zm67.5-6.7c-4.6 4.2.8 8.6 5.3 5.7 1.2-.8-.1-4.7-5.3-5.7z"/><path id="use7639" fill="none" d="M54.1 12.5L12.9 54.7C-2.7 70.3 23 69 32.3 74.9c4.3 2.8-13.8 6.4-10.1 10.1 3.6 3.7 21.7 7.1 25.3 10.7 3.6 3.7-7.3 7.6-3.7 11.3 3.5 3.7 11.9.2 13.4 8.6 1.1 6.2 15.4 3.1 21.8-2.2 4-3.4-6.9-3.4-3.3-7.1 9-9.1 17-4.1 20.3-12.5 1.8-4.5-13.6-7.7-9.5-10.6 9.8-6.9 45.8-10.4 29.2-27L73 12.5c-5.3-5-14-5-18.9 0zm47.3 81.3c0 2.1 16.3 3.3 15.4-.5-1.3-6.4-13.6-5.9-15.4.5zm-69.5 11.1c3.7 3.2 9.3-.7 11.1-5.2-3.6-4.7-16.9.3-11.1 5.2zm67.5-6.7c-4.6 4.2.8 8.6 5.3 5.7 1.2-.8-.1-4.7-5.3-5.7z"/><use id="use7641" width="400" height="300" fill="url(#linearGradient9175)" clip-path="url(#clipPath9086)" transform="matrix(.9905 0 0 .9905 .605 .604)" class="low-specularity" xlink:href="#outline1" opacity=".67" filter="url(#filter8490)"/><path id="path7643" fill="url(#shinySpecular-4)" d="M16.565 57.04C5.363 68.14 25.042 65.01 40.18 70.965l31.285-55c-4.743-4.845-10.798-4.44-15.138 0z" class="specularity" opacity=".505"/><path id="icecap-7" fill="url(#IcecapTip-6)" d="M70.5 15.5l16.3 16.6c1.5 1.5 1.5 4.6.6 5.5L79.3 31l-1.6 9.7-6.7-3.6L60.1 44l-3.6-14.5-5.8 12.6-14.5-.1c-2.8 0-2.4-2.9.5-5.8 5.7-6.3 16.8-17 20.3-20.7 3.6-3.7 9.9-3.6 13.5 0z" class="full-specularity"/><path id="path8566" fill="url(#radialGradient9177)" fill-rule="evenodd" d="M113 203.5s3.34 5.1 3 7.5c-.668 4.71-10.81 7.058-8.563 11.25 2.22 4.14 10.222 1.794 16.938 6.125 6.688 4.313 4.89 13.101 9.75 15.313 9.48 4.312 34.375-7.438 33.125-7.188s-24.57 5.095-29.82.845c-5.986-4.845-7.702-8.23-12.118-11.095-4.137-2.685-9.95-3.78-11.302-5.98-1.353-2.197 2.71-5.033 2.99-9.27.17-2.544-4-7.5-4-7.5z" transform="matrix(.5296 0 0 .5296 -11.722 -13.864)" opacity=".217"/><path id="path8718" fill="url(#radialGradient8574)" fill-rule="evenodd" d="M113 203.5s3.34 5.1 3 7.5c-.668 4.71-10.81 7.058-8.563 11.25 2.22 4.14 10.222 1.794 16.938 6.125 6.688 4.313 4.89 13.101 9.75 15.313 9.48 4.312 34.375-7.438 33.125-7.188-41.34.157-33.625-10.495-49.563-17.5-2.302-1.012-.968-3.763-.687-8 .17-2.544-4-7.5-4-7.5z" transform="matrix(.5296 0 0 .5296 -11.722 -13.864)" opacity=".276" filter="url(#filter8732)"/><path id="path8736" fill="url(#radialGradient8744)" fill-rule="evenodd" d="M183.25 181.75c37.104-13.655 49.024-15.53 61.25-27.75-14.16 11.954-44.099 18.366-68.5 29z" transform="matrix(.5296 0 0 .5296 -11.722 -13.864)" opacity=".453"/><path id="path8746" fill="url(#radialGradient8768)" fill-rule="evenodd" d="M183.25 181.75c61.104-21.655 50.774-21.53 61.25-27.75-19.428 7.437-55.734 8.23-68.5 29z" transform="matrix(.5296 0 0 .5296 -11.722 -14.79)" opacity=".512" filter="url(#filter8764)"/><ellipse id="path8864" cx="229.938" cy="199.063" fill="url(#linearGradient8912)" ry="2.438" rx="7.938" transform="matrix(.5296 0 0 .5296 -12.384 -14.79)" overflow="visible" opacity=".286" enable-background="accumulate"/><ellipse id="path8874" cx="229.938" cy="199.063" fill="url(#linearGradient8910)" transform="matrix(.713 0 0 1.1408 -54.578 -134.955)" rx="7.938" overflow="visible" opacity=".621" ry="2.438" filter="url(#filter8906)" enable-background="accumulate"/><path id="path8914" fill="url(#radialGradient8922)" fill-rule="evenodd" d="M214.125 203.75c3.77 3.484 24.756 5.272 28.188-1-6.737 4.784-21.717 3.103-28.188 1z" transform="matrix(.5296 0 0 .5296 -11.722 -14.24)" filter="url(#filter8980)"/><ellipse id="path8984" cx="229.938" cy="199.063" fill="url(#linearGradient8990)" ry="3.082" rx="6.508" transform="matrix(.2043 -.1036 .2395 .4724 5.755 30.287)" overflow="visible" opacity=".286" enable-background="accumulate"/><ellipse id="path8986" cx="229.938" cy="199.063" fill="url(#linearGradient8992)" transform="matrix(.275 -.1394 .516 1.0175 -65.353 -69.3)" rx="7.056" overflow="visible" opacity=".621" ry="2.14" filter="url(#filter8906)" enable-background="accumulate"/><path id="path8988" fill="url(#radialGradient8994)" fill-rule="evenodd" d="M217.058 201.94c3.77 3.485 26.97 8.912 25.255.81-3.318 5.323-18.785 1.293-25.255-.81z" transform="matrix(.2043 -.1036 .2395 .4724 6.26 30.65)" filter="url(#filter8980)"/><path id="path8996" fill="url(#radialGradient9004)" fill-rule="evenodd" d="M68.25 186c0-.62 38.846 11.838 45.5 18.5-5.47-5.338-33.16-17.616-37.375-17.75-4.215-.134-7.625-.5-8.125-.75z" transform="matrix(.5296 0 0 .5296 -11.722 -13.864)"/><g id="g9018" transform="matrix(.879 -.193 .2338 .696 -20.21 36.726)"><ellipse id="path9006" cx="229.938" cy="199.063" fill="url(#linearGradient9023)" ry="2.438" rx="7.938" transform="matrix(.5296 0 0 .5296 -84.416 -4.728)" overflow="visible" opacity=".286" enable-background="accumulate"/><ellipse id="path9008" cx="229.938" cy="199.063" fill="url(#linearGradient9025)" transform="matrix(.713 0 0 1.1408 -126.61 -124.892)" rx="7.938" overflow="visible" opacity=".621" ry="2.438" filter="url(#filter8906)" enable-background="accumulate"/></g><path id="path9038" fill="url(#radialGradient9046)" fill-rule="evenodd" d="M80.5 220.063s2.103 5.65 7.875 5.937c5.84.29 12.503-7.007 13.063-9.625-1 2.25-6.59 9.033-13.813 8.938-4.1-.054-7.125-5.25-7.125-5.25z" transform="matrix(.5296 0 0 .5296 -11.623 -14.427)" opacity=".616" filter="url(#filter9068)"/><path id="87235" fill="none" stroke="url(#radialGradient11553)" stroke-width="1.004" d="M63.406 10.207c-3.097 0-6.123 1.12-8.27 3.31L13.95 55.706a1.457 1.457 0 0 1-.014.012c-3.766 3.765-4.682 6.248-4.45 7.642.117.697.48 1.29 1.21 1.925.728.635 1.815 1.25 3.14 1.807 2.65 1.112 6.212 1.994 9.713 2.955 3.5.96 6.94 1.978 9.542 3.63a1.457 1.457 0 0 1 .015.01c.397.257.76.57 1.022 1.026.26.455.36 1.066.257 1.572-.21 1.013-.844 1.534-1.48 2.018-1.274.968-3.04 1.77-4.798 2.623-1.76.852-3.498 1.746-4.38 2.46-.44.358-.602.66-.595.64.006-.022-.13-.266.082-.055a1.457 1.457 0 0 1 .013.014c.552.567 2.267 1.52 4.46 2.387 2.196.87 4.89 1.747 7.603 2.626 2.713.88 5.446 1.76 7.77 2.666 2.323.906 4.215 1.745 5.466 2.996a1.457 1.457 0 0 1 .013.014c.623.64 1.037 1.432 1.13 2.246.094.814-.116 1.572-.427 2.213-.62 1.282-1.626 2.27-2.537 3.222-.912.95-1.727 1.868-2.022 2.476-.148.304-.17.487-.157.61.015.122.048.26.325.546a1.457 1.457 0 0 1 .016.016c1.195 1.262 3.78 1.43 6.712 2.115 1.466.343 3.015.874 4.328 2.012 1.314 1.138 2.292 2.863 2.71 5.21a1.457 1.457 0 0 1 0 .003c.178.994.71 1.487 1.976 1.883 1.266.396 3.182.457 5.3.148 4.235-.617 9.272-2.686 12.168-5.083.16-.14.122-.108.178-.18-.197-.14-.646-.457-1.398-.832-.892-.444-1.93-.85-2.737-1.867-.402-.507-.705-1.3-.587-2.084.117-.784.546-1.433 1.125-2.027a1.457 1.457 0 0 1 .007-.008c4.746-4.8 9.442-5.967 12.957-6.898 1.757-.465 3.2-.893 4.314-1.595 1.114-.703 1.987-1.65 2.72-3.518a1.457 1.457 0 0 1 .004-.01c.08-.2.08-.24-.03-.48-.11-.238-.405-.62-.876-1.03-.94-.82-2.51-1.723-4.062-2.586-1.552-.864-3.07-1.65-4.164-2.67-.548-.51-1.1-1.14-1.164-2.113-.066-.973.566-1.87 1.306-2.392a1.457 1.457 0 0 1 .004-.002c2.746-1.933 6.88-3.417 11.39-4.98 4.51-1.564 9.374-3.16 13.325-5.01 3.95-1.85 6.87-3.997 7.793-6.143.462-1.073.54-2.155.055-3.558-.485-1.404-1.594-3.115-3.567-5.088a1.457 1.457 0 0 1-.012-.012L72 13.56l-.002-.003c-2.36-2.227-5.494-3.35-8.592-3.35zm45.928 79.998c-2.638.095-5.058 1.31-6.09 3.2.293.11.553.222 1.022.33 1.375.316 3.32.542 5.213.583 1.89.042 3.763-.113 4.916-.433.52-.144.808-.316.932-.406-.26-1.08-.898-1.85-1.932-2.42-1.078-.597-2.556-.91-4.062-.855zm-70.498 9.092c-2.09-.145-4.72.673-6.002 1.705-.642.516-.89.994-.914 1.312-.024.32.065.752.926 1.48a1.457 1.457 0 0 1 .013.01c1.352 1.17 2.864 1.056 4.607.102 1.464-.8 2.763-2.306 3.63-3.885-.584-.373-1.3-.656-2.26-.723zm61.03.596c-.46.58-.726 1.1-.755 1.476-.037.51.135.91.53 1.284.736.7 2.316.992 3.946.114-.035-.19-.098-.466-.344-.827-.498-.73-1.645-1.54-3.375-2.047z" xlink:href="#use7639" filter="url(#filter9298)"/><path id="path5897" fill="url(#linearGradient5905)" fill-rule="evenodd" d="M95.5 172c-5.09 1.502-21.592 7.737-19.25 12.5 2.244 4.563 40.61 6.4 46.5 20 2.568 5.93-5.892 10.403-3.75 16.5 1.65 4.695 14.412 16.49 22.486 22.068 6.333 4.374 14.65-3.523 11.264-10.068-5.396-10.428 18.443-23.2 29.25-29 6.305-3.384-13-20-13-20l-73.5-12z" transform="translate(-5.81 -7.704) scale(.4883)" opacity=".325" filter="url(#filter5983-5)"/><path id="path5783" fill="url(#linearGradient5801)" fill-rule="evenodd" d="M41.742 78.533c2.232 1.64 6.637.65 9.282 1.842 6.35 2.86 14.155 6.045 12.72.404l-1.617 1.34-.03-2.556-3.753.916s-2.907-2.333-4.24-3.102c-.277-.16-1.707 1.293-1.707 1.293l-.257-1.543c-1.857-.197-3.696-.285-5.315-.272-3.88.03-6.5.638-5.083 1.678z"/><path id="path5803" fill="url(#radialGradient5811)" fill-rule="evenodd" d="M182.75 187.25c-1.76 6.478 21.628 15.28 19.875 19.75-3.86 9.842-24.976 3.138-41.125 23.75-2.313 2.953 3.25 13.5 2.5 12.25s-6.465-9.963-5-14.25c4.594-13.445 49.013-18.457 40.875-24.875-4.68-3.69-21.506-13.887-17.125-16.625z" transform="translate(-5.81 -7.704) scale(.4883)" opacity=".478" filter="url(#filter5845)"/><ellipse id="path6041" cx="233.938" cy="201.188" fill="#fff" ry="1.063" rx="2.563" transform="translate(-6.36 -8.01) scale(.4883)" overflow="visible" opacity=".586" enable-background="accumulate"/><ellipse id="path6043" cx="233.938" cy="201.188" fill="#fff" ry="1.063" rx="2.563" transform="matrix(.3097 0 0 .4883 27.528 1.574)" overflow="visible" opacity=".586" enable-background="accumulate"/><ellipse id="path6045" cx="233.938" cy="201.188" fill="#fff" ry="1.063" rx="2.563" transform="matrix(.548 0 0 .4883 -92.102 1.116)" overflow="visible" opacity=".586" enable-background="accumulate"/><path id="path5049" fill="url(#linearGradient5822)" stroke-width="2.048" d="M36.672 76.53c-7.153 4.423-18.274 6.033-6.104 8.97-1.45-3.227 3.14-2.87 6.104-8.97z" overflow="visible" opacity=".251" enable-background="accumulate"/><path id="path10207" fill="url(#linearGradient1030)" stroke-width="2" d="M8.834 171.647S31.426 169.52 36.652 163c3.058-3.813-12.15-8.263-8.868-12 12.35-14.053 22.73-13.467 37.05-19.353 14.32-5.886 9.036-8.77 4.404-11.353-7.932-4.427-25.587-9.143-19.747-19.647 5.878-10.57 57.344-25.25 57.344-25.25 15.596-5.328 13.64-14.964 6-23l-46-45.75s2.283 43.39-7 62c-11.47 23-72.544 48.662-47 51.5 9 1 13.32 4.07 17 11 7.577 14.27-21 40.5-21 40.5z" transform="translate(57.75 32.997) scale(.4883)" color="#000" overflow="visible" opacity=".363" filter="url(#filter10997-7)" enable-background="accumulate"/></g></svg>
