<svg xmlns="http://www.w3.org/2000/svg" id="svg2" xmlns:xlink="http://www.w3.org/1999/xlink" viewBox="0 0 128 128" version="1"><defs id="defs4"><linearGradient id="WhiteTransparent" gradientUnits="userSpaceOnUse"><stop id="stop7" offset="0" stop-color="#fff"/><stop id="stop9" offset="1" stop-color="#fff" stop-opacity="0"/></linearGradient><linearGradient id="liquidSpecular" x2="0" y1="128" y2="76" gradientUnits="userSpaceOnUse" xlink:href="#WhiteTransparent"/><linearGradient id="sideSpecular" x1="80" x2="60" y1="20" y2="40" gradientUnits="userSpaceOnUse" xlink:href="#WhiteTransparent"/><clipPath id="clipoutline1"><path id="outline1" d="M54.1 12.5L12.9 54.7C-2.7 70.3 23 69 32.3 74.9c4.3 2.8-13.8 6.4-10.1 10.1 3.6 3.7 21.7 7.1 25.3 10.7 3.6 3.7-7.3 7.6-3.7 11.3 3.5 3.7 11.9.2 13.4 8.6 1.1 6.2 15.4 3.1 21.8-2.2 4-3.4-6.9-3.4-3.3-7.1 9-9.1 17-4.1 20.3-12.5 1.8-4.5-13.6-7.7-9.5-10.6 9.8-6.9 45.8-10.4 29.2-27L73 12.5c-5.3-5-14-5-18.9 0zm-9.9 64.7c.9 0 30.8 4 19.3 7.1-4.4 1.2-24.6-7.1-19.3-7.1zm57.2 16.6c0 2.1 16.3 3.3 15.4-.5-1.3-6.4-13.6-5.9-15.4.5zm-69.5 11.1c3.7 3.2 9.3-.7 11.1-5.2-3.6-4.7-16.9.3-11.1 5.2zm67.5-6.7c-4.6 4.2.8 8.6 5.3 5.7 1.2-.8-.1-4.7-5.3-5.7z"/></clipPath><linearGradient id="linearGradient9175" x1="82.119" x2="60" y1="20" y2="40" gradientUnits="userSpaceOnUse" xlink:href="#linearGradient5785"/><linearGradient id="linearGradient5785" gradientUnits="userSpaceOnUse"><stop id="stop5787" offset="0" stop-color="#c0cdf9"/><stop id="stop5789" offset="1" stop-color="#07092d" stop-opacity=".288"/></linearGradient><filter id="filter8490" color-interpolation-filters="sRGB"><feGaussianBlur id="feGaussianBlur8492" stdDeviation="2.416"/></filter><filter id="filter6017-3" color-interpolation-filters="sRGB"><feGaussianBlur id="feGaussianBlur6019-9" stdDeviation=".805"/></filter><filter id="filter6031-0" color-interpolation-filters="sRGB"><feGaussianBlur id="feGaussianBlur6033-8" stdDeviation="3.49"/></filter><linearGradient id="linearGradient9175-3" x1="82.119" x2="60" y1="20" y2="40" gradientUnits="userSpaceOnUse" xlink:href="#linearGradient5785-8"/><linearGradient id="linearGradient5785-8" gradientUnits="userSpaceOnUse"><stop id="stop5787-7" offset="0" stop-color="#c0cdf9"/><stop id="stop5789-3" offset="1" stop-color="#07092d" stop-opacity=".288"/></linearGradient><clipPath id="clipPath9086-1"><use id="use9088-0" width="400" height="300" fill="#fff" xlink:href="#outline1" opacity=".25"/></clipPath><filter id="filter8490-0" color-interpolation-filters="sRGB"><feGaussianBlur id="feGaussianBlur8492-5" stdDeviation="2.416"/></filter><linearGradient id="shinySpecular-0" x1="33" x2="58" y1="35" y2="60" gradientTransform="matrix(1.0092 0 0 1.0092 -.39 -.383)" gradientUnits="userSpaceOnUse" xlink:href="#WhiteTransparent-3"/><linearGradient id="WhiteTransparent-3" gradientUnits="userSpaceOnUse"><stop id="stop7606-1" offset="0" stop-color="#fff"/><stop id="stop7608-8" offset="1" stop-color="#fff" stop-opacity="0"/></linearGradient><linearGradient id="IcecapTip-0" x1="60" x2="90" y1="20" y2="50" gradientUnits="userSpaceOnUse" xlink:href="#WhiteTransparent-3"/><radialGradient id="radialGradient9177-1" cx="116.31" cy="250.897" r="30.6" gradientTransform="matrix(1.57 0 0 1.051 -75.5 -22.096)" gradientUnits="userSpaceOnUse" xlink:href="#linearGradient8568-7" fy="250.897" fx="116.31"/><linearGradient id="linearGradient8568-7"><stop id="stop8570-9" offset="0" stop-color="#fff"/><stop id="stop8572-1" offset="1" stop-color="#fff" stop-opacity="0"/></linearGradient><radialGradient id="radialGradient8574-0" cx="132.444" cy="251.994" r="30.6" gradientTransform="matrix(2.0033 0 0 1.341 -132.875 -95.166)" gradientUnits="userSpaceOnUse" xlink:href="#linearGradient8568-7" fy="251.994" fx="132.444"/><filter id="filter8732-3" width="1.156" height="1.228" x="-.078" y="-.114" color-interpolation-filters="sRGB"><feGaussianBlur id="feGaussianBlur8734-5" stdDeviation="1.958"/></filter><radialGradient id="radialGradient8744-9" cx="210.25" cy="168.5" r="34.25" gradientTransform="matrix(1 0 0 .4234 0 97.164)" gradientUnits="userSpaceOnUse" xlink:href="#linearGradient8738-4" fy="168.5" fx="210.25"/><linearGradient id="linearGradient8738-4"><stop id="stop8740-8" offset="0" stop-color="#fff"/><stop id="stop8742-4" offset="1" stop-color="#fff" stop-opacity="0"/></linearGradient><radialGradient id="radialGradient8768-6" cx="217.5" cy="182.082" r="34.25" gradientTransform="matrix(1 0 0 .4234 0 97.164)" gradientUnits="userSpaceOnUse" xlink:href="#linearGradient8738-4" fy="182.082" fx="217.5"/><filter id="filter8764-9" width="1.149" height="1.351" x="-.074" y="-.175" color-interpolation-filters="sRGB"><feGaussianBlur id="feGaussianBlur8766-2" stdDeviation="2.12"/></filter><linearGradient id="linearGradient8912-9" x1="231.625" x2="231.75" y1="195.188" y2="201.5" gradientUnits="userSpaceOnUse" xlink:href="#linearGradient8866-0"/><linearGradient id="linearGradient8866-0"><stop id="stop8868-3" offset="0" stop-color="#fff"/><stop id="stop8870-0" offset="1" stop-color="#fff" stop-opacity="0"/></linearGradient><linearGradient id="linearGradient8910-3" x1="231.376" x2="231.376" y1="195.621" y2="200.071" gradientUnits="userSpaceOnUse" xlink:href="#linearGradient8866-0"/><filter id="filter8906-3" width="1.171" height="1.556" x="-.085" y="-.278" color-interpolation-filters="sRGB"><feGaussianBlur id="feGaussianBlur8908-7" stdDeviation=".565"/></filter><radialGradient id="radialGradient8922-9" cx="228.219" cy="204.832" r="14.094" gradientTransform="matrix(1 0 0 .1477 0 174.57)" gradientUnits="userSpaceOnUse" xlink:href="#linearGradient8916-4" fy="204.832" fx="228.219"/><linearGradient id="linearGradient8916-4"><stop id="stop8918-9" offset="0" stop-color="#fff"/><stop id="stop8920-9" offset="1" stop-color="#fff" stop-opacity="0"/></linearGradient><filter id="filter8980-1" width="1.14" height="1.946" x="-.07" y="-.473" color-interpolation-filters="sRGB"><feGaussianBlur id="feGaussianBlur8982-9" stdDeviation=".821"/></filter><linearGradient id="linearGradient8990-4" x1="231.625" x2="231.75" y1="195.188" y2="201.5" gradientUnits="userSpaceOnUse" xlink:href="#linearGradient8866-0"/><linearGradient id="linearGradient8992-2" x1="231.376" x2="231.376" y1="195.621" y2="200.071" gradientUnits="userSpaceOnUse" xlink:href="#linearGradient8866-0"/><radialGradient id="radialGradient8994-0" cx="228.219" cy="204.832" r="14.094" gradientTransform="matrix(1 0 0 .1477 0 174.57)" gradientUnits="userSpaceOnUse" xlink:href="#linearGradient8916-4" fy="204.832" fx="228.219"/><radialGradient id="radialGradient9004-6" cx="89.875" cy="187.869" r="22.75" gradientTransform="matrix(1 0 0 .407 0 115.76)" gradientUnits="userSpaceOnUse" xlink:href="#linearGradient8998-5" fy="187.869" fx="89.875"/><linearGradient id="linearGradient8998-5"><stop id="stop9000-9" offset="0" stop-color="#fff" stop-opacity=".33"/><stop id="stop9002-5" offset="1" stop-color="#fff" stop-opacity="0"/></linearGradient><linearGradient id="linearGradient9023-6" x1="231.625" x2="231.75" y1="195.188" y2="201.5" gradientUnits="userSpaceOnUse" xlink:href="#linearGradient8866-0"/><linearGradient id="linearGradient9025-1" x1="231.376" x2="231.376" y1="195.621" y2="200.071" gradientUnits="userSpaceOnUse" xlink:href="#linearGradient8866-0"/><radialGradient id="radialGradient9046-1" cx="90.281" cy="230.836" r="10.469" gradientTransform="matrix(1.185 -.3284 .123 .4434 -45.068 152.922)" gradientUnits="userSpaceOnUse" xlink:href="#linearGradient9040-4" fy="230.836" fx="90.281"/><linearGradient id="linearGradient9040-4"><stop id="stop9042-3" offset="0" stop-color="#fff"/><stop id="stop9044-7" offset="1" stop-color="#fff" stop-opacity="0"/></linearGradient><filter id="filter9068-2" width="1.152" height="1.331" x="-.076" y="-.166" color-interpolation-filters="sRGB"><feGaussianBlur id="feGaussianBlur9070-7" stdDeviation=".665"/></filter><radialGradient id="radialGradient11553-3" cx="68.4" cy="21.226" r="54.783" gradientTransform="matrix(1.7222 0 0 1.695 -49.395 -14.078)" gradientUnits="userSpaceOnUse" xlink:href="#linearGradient9286-3" fy="21.226" fx="68.4"/><linearGradient id="linearGradient9286-3"><stop id="stop9288-9" offset="0" stop-color="#fff"/><stop id="stop9290-2" offset="1" stop-color="#fff" stop-opacity="0"/></linearGradient><filter id="filter9298-4" color-interpolation-filters="sRGB"><feGaussianBlur id="feGaussianBlur9300-4" stdDeviation=".326"/></filter><linearGradient id="linearGradient5905-4" x1="95.5" x2="153.5" y1="208.164" y2="223.5" gradientUnits="userSpaceOnUse" xlink:href="#linearGradient5899-9"/><linearGradient id="linearGradient5899-9"><stop id="stop5901-9" offset="0" stop-color="#fff"/><stop id="stop5903-3" offset="1" stop-color="#fff" stop-opacity="0"/></linearGradient><filter id="filter5983-8" width="1.165" height="1.245" x="-.083" y="-.122" color-interpolation-filters="sRGB"><feGaussianBlur id="feGaussianBlur5985-3" stdDeviation="3.687"/></filter><linearGradient id="linearGradient5801-2" x1="57.225" x2="53.632" y1="76.246" y2="84.48" gradientTransform="matrix(.8853 0 0 .8853 5.177 9.23)" gradientUnits="userSpaceOnUse" xlink:href="#linearGradient5793-9"/><linearGradient id="linearGradient5793-9"><stop id="stop5795-5" offset="0" stop-color="#eeeeec"/><stop id="stop5797-4" offset="1" stop-color="#eeeeec" stop-opacity="0"/></linearGradient><radialGradient id="radialGradient5811-3" cx="181.227" cy="214.551" r="22.466" gradientTransform="matrix(1.3515 0 0 1.7176 -63.706 -153.956)" gradientUnits="userSpaceOnUse" xlink:href="#linearGradient5805-9" fy="214.551" fx="181.227"/><linearGradient id="linearGradient5805-9"><stop id="stop5807-4" offset="0" stop-color="#fff"/><stop id="stop5809-9" offset="1" stop-color="#fff" stop-opacity="0"/></linearGradient><filter id="filter5845-5" color-interpolation-filters="sRGB"><feGaussianBlur id="feGaussianBlur5847-5" stdDeviation="1.241"/></filter><linearGradient id="linearGradient5822-7" x1="73.712" x2="82.754" y1="180.476" y2="187.66" gradientTransform="matrix(.4928 0 0 .4928 -6 -9.723)" gradientUnits="userSpaceOnUse" xlink:href="#WhiteTransparent-3"/><linearGradient id="linearGradient10981-3-9"><stop id="stop10983-2-0" offset="0" stop-color="#729fcf"/><stop id="stop10985-3-7" offset="1" stop-color="#729fcf" stop-opacity="0"/></linearGradient><filter id="filter10997-7-2" color-interpolation-filters="sRGB"><feGaussianBlur id="feGaussianBlur10999-0-7" stdDeviation="2.77"/></filter><linearGradient id="linearGradient1539" x1="180.813" x2="153.7" y1="217.5" y2="144.5" gradientTransform="translate(-130.166 -83.353)" gradientUnits="userSpaceOnUse" xlink:href="#linearGradient10981-3-9"/><clipPath id="clipPath1385"><ellipse id="use1387" cx="513.929" cy="409.505" fill="#fff" ry="50.357" rx="37.143" transform="matrix(.6983 -.0743 .0768 .7226 104.877 149.22)"/></clipPath><clipPath id="clipPath1381"><ellipse id="use1383" cx="513.929" cy="409.505" fill="#fff" ry="50.357" rx="37.143" transform="matrix(.8405 -.0906 .0744 1.0946 33.667 1.396)"/></clipPath><clipPath id="clipPath1355"><ellipse id="use1357" cx="508.864" cy="412.178" fill="url(#linearGradient1769)" ry="31.05" rx="21.915" transform="matrix(1.6314 -.1278 .1277 1.6298 -504.888 -236.517)" clip-path="url(#clipPath1385)"/></clipPath><clipPath id="clipPath1351"><ellipse id="use1353" cx="508.864" cy="412.178" fill="url(#linearGradient1765)" ry="31.05" rx="21.915" transform="matrix(1.6314 -.1278 .1277 1.6298 -504.888 -236.517)" clip-path="url(#clipPath1385)"/></clipPath><clipPath id="clipPath1240"><path id="use1242" fill="#fff" d="M605.724 452.595c-6.62.222-11.124-21.816-10.533-48.135.592-26.32 10.944-48.772 17.565-48.572 18.86.568 15.143 73.205 10.6 98.874-4.876.58-8.68-.52-17.63-2.167z"/></clipPath><clipPath id="clipPath1236"><path id="use1238" fill="#fff" d="M607.386 447.687c-5.217.16-8.706-17.53-8.17-38.642.536-21.11 8.752-39.095 13.968-38.917 14.86.508 11.735 58.766 8.087 79.346-3.842.452-6.837-.442-13.884-1.787z"/></clipPath><clipPath id="clipPath1185"><ellipse id="use1187" cx="605.839" cy="421.774" fill="url(#linearGradient1777)" ry="44.116" rx="20.606" transform="rotate(-1.74 -1516.276 4947.428)" clip-path="url(#clipPath1240)"/></clipPath><clipPath id="clipPath1181"><ellipse id="use1183" cx="605.839" cy="421.774" fill="url(#linearGradient1773)" ry="44.116" rx="20.606" transform="rotate(-1.74 -1516.276 4947.428)" clip-path="url(#clipPath1240)"/></clipPath><linearGradient id="linearGradient1061"><stop id="stop1063" offset="0" stop-color="#0083a2"/><stop id="stop1065" offset="1" stop-color="#00c0ee"/></linearGradient><linearGradient id="linearGradient1765" x1="506.704" x2="506.704" y1="401.673" y2="419.593" xlink:href="#linearGradient1061" gradientUnits="userSpaceOnUse"/><linearGradient id="linearGradient1769" x1="506.704" x2="506.704" y1="401.673" y2="419.593" xlink:href="#linearGradient1061" gradientUnits="userSpaceOnUse"/><linearGradient id="linearGradient1773" x1="609.627" x2="609.627" y1="415.208" y2="434.401" xlink:href="#linearGradient1061" gradientUnits="userSpaceOnUse"/><linearGradient id="linearGradient1777" x1="609.627" x2="609.627" y1="415.208" y2="434.401" xlink:href="#linearGradient1061" gradientUnits="userSpaceOnUse"/><clipPath id="clipPath4578"><use id="use4580" width="1" height="1" transform="matrix(2.9742 -.2007 .2007 2.9742 310.277 303.046)" xlink:href="#path1567"/></clipPath><clipPath id="clipPath4582"><use id="use4584" width="1" height="1" transform="matrix(2.9742 -.2007 .2007 2.9742 310.277 303.046)" xlink:href="#path1567"/></clipPath><clipPath id="clipPath4588"><use id="use4590" width="1" height="1" transform="matrix(2.961 -.3446 .3446 2.961 313.16 310.127)" xlink:href="#path1612"/></clipPath><clipPath id="clipPath4592"><use id="use4594" width="1" height="1" transform="matrix(2.961 -.3446 .3446 2.961 313.16 310.127)" xlink:href="#path1612"/></clipPath><clipPath id="clipPath4605"><use id="use4607" width="1" height="1" transform="matrix(2.9794 -.0944 .0944 2.9794 308.993 292.573)" xlink:href="#path1648"/></clipPath><linearGradient id="linearGradient4922" x1="480.22" x2="479.825" y1="266.604" y2="274.537" gradientUnits="userSpaceOnUse" xlink:href="#linearGradient1061"/><linearGradient id="linearGradient4924" x1="513.699" x2="514.564" y1="267.169" y2="273.748" gradientUnits="userSpaceOnUse" xlink:href="#linearGradient1061"/></defs><style id="style26"/><g id="g4719" transform="matrix(.8342 0 0 .8342 10.613 19.75)"><path id="path4655" fill="#c35a3c" stroke="#89402b" d="M48.967-6.836c-.562 4.55 3.36 11.52 3.138 16.705l8.74-.464L55.53-6.47z"/><path id="path4112" fill="#fff0bf" stroke="#e1cb6d" d="M58.214 4.465c.683 3.754-.22 7.854-.653 11.102l10.83-.01c-.25-3.335-1.02-6.037-.064-10.847"/><g id="g9139" transform="matrix(.994 0 0 .994 .39 -1.445)" enable-background="new"><g id="g6035" opacity=".783"><path id="path5987" d="M54.1 12.988l-41.2 42.2c-15.6 15.6 10.1 14.3 19.4 20.2 4.3 2.8-13.8 6.4-10.1 10.1 3.6 3.7 21.7 7.1 25.3 10.7 3.6 3.7-7.3 7.6-3.7 11.3 3.5 3.7 11.9.2 13.4 8.6 1.1 6.2 15.4 3.1 21.8-2.2 4-3.4-6.9-3.4-3.3-7.1 9-9.1 17-4.1 20.3-12.5 1.8-4.5-13.6-7.7-9.5-10.6 9.8-6.9 45.8-10.4 29.2-27L73 12.988c-5.3-5-14-5-18.9 0zm47.3 81.3c0 2.1 16.3 3.3 15.4-.5-1.3-6.4-13.6-5.9-15.4.5zm-69.5 11.1c3.7 3.2 9.3-.7 11.1-5.2-3.6-4.7-16.9.3-11.1 5.2zm67.5-6.7c-4.6 4.2.8 8.6 5.3 5.7 1.2-.8-.1-4.7-5.3-5.7z" filter="url(#filter6017-3)" transform="translate(0 .488)"/><path id="path6021" d="M54.1 13.965l-41.2 42.2c-15.6 15.6 10.1 14.3 19.4 20.2 4.3 2.8-13.8 6.4-10.1 10.1 3.6 3.7 21.7 7.1 25.3 10.7 3.6 3.7-7.3 7.6-3.7 11.3 3.5 3.7 11.9.2 13.4 8.6 1.1 6.2 15.4 3.1 21.8-2.2 4-3.4-6.9-3.4-3.3-7.1 9-9.1 17-4.1 20.3-12.5 1.8-4.5-13.6-7.7-9.5-10.6 9.8-6.9 45.8-10.4 29.2-27L73 13.965c-5.3-5-14-5-18.9 0zm47.3 81.3c0 2.1 16.3 3.3 15.4-.5-1.3-6.4-13.6-5.9-15.4.5zm-69.5 11.1c3.7 3.2 9.3-.7 11.1-5.2-3.6-4.7-16.9.3-11.1 5.2zm67.5-6.7c-4.6 4.2.8 8.6 5.3 5.7 1.2-.8-.1-4.7-5.3-5.7z" opacity=".576" filter="url(#filter6031-0)" transform="translate(0 .488)"/></g><path id="use7631" d="M54.1 12.5L12.9 54.7C-2.7 70.3 23 69 32.3 74.9c4.3 2.8-13.8 6.4-10.1 10.1 3.6 3.7 21.7 7.1 25.3 10.7 3.6 3.7-7.3 7.6-3.7 11.3 3.5 3.7 11.9.2 13.4 8.6 1.1 6.2 15.4 3.1 21.8-2.2 4-3.4-6.9-3.4-3.3-7.1 9-9.1 17-4.1 20.3-12.5 1.8-4.5-13.6-7.7-9.5-10.6 9.8-6.9 45.8-10.4 29.2-27L73 12.5c-5.3-5-14-5-18.9 0zm47.3 81.3c0 2.1 16.3 3.3 15.4-.5-1.3-6.4-13.6-5.9-15.4.5zm-69.5 11.1c3.7 3.2 9.3-.7 11.1-5.2-3.6-4.7-16.9.3-11.1 5.2zm67.5-6.7c-4.6 4.2.8 8.6 5.3 5.7 1.2-.8-.1-4.7-5.3-5.7z"/><path id="use7639" fill="none" d="M54.1 12.5L12.9 54.7C-2.7 70.3 23 69 32.3 74.9c4.3 2.8-13.8 6.4-10.1 10.1 3.6 3.7 21.7 7.1 25.3 10.7 3.6 3.7-7.3 7.6-3.7 11.3 3.5 3.7 11.9.2 13.4 8.6 1.1 6.2 15.4 3.1 21.8-2.2 4-3.4-6.9-3.4-3.3-7.1 9-9.1 17-4.1 20.3-12.5 1.8-4.5-13.6-7.7-9.5-10.6 9.8-6.9 45.8-10.4 29.2-27L73 12.5c-5.3-5-14-5-18.9 0zm47.3 81.3c0 2.1 16.3 3.3 15.4-.5-1.3-6.4-13.6-5.9-15.4.5zm-69.5 11.1c3.7 3.2 9.3-.7 11.1-5.2-3.6-4.7-16.9.3-11.1 5.2zm67.5-6.7c-4.6 4.2.8 8.6 5.3 5.7 1.2-.8-.1-4.7-5.3-5.7z"/><use id="use7641" width="400" height="300" fill="url(#linearGradient9175-3)" transform="matrix(.9905 0 0 .9905 .605 .604)" clip-path="url(#clipPath9086-1)" xlink:href="#outline1" opacity=".67" filter="url(#filter8490-0)"/><path id="path7643" fill="url(#shinySpecular-0)" d="M16.565 57.04C5.363 68.14 25.042 65.01 40.18 70.965l31.285-55c-4.743-4.844-10.798-4.44-15.138 0z" opacity=".505"/><path id="icecap" fill="url(#IcecapTip-0)" d="M70.5 15.5l16.3 16.6c1.5 1.5 1.5 4.6.6 5.5L79.3 31l-1.6 9.7-6.7-3.6L60.1 44l-3.6-14.5-5.8 12.6-14.5-.1c-2.8 0-2.4-2.9.5-5.8 5.7-6.3 16.8-17 20.3-20.7 3.6-3.7 9.9-3.6 13.5 0z"/><path id="path8566" fill="url(#radialGradient9177-1)" fill-rule="evenodd" d="M113 203.5s3.34 5.1 3 7.5c-.668 4.71-10.81 7.058-8.563 11.25 2.22 4.14 10.222 1.794 16.938 6.125 6.688 4.313 4.89 13.1 9.75 15.313 9.48 4.312 34.375-7.438 33.125-7.188s-24.57 5.095-29.82.845c-5.986-4.845-7.702-8.23-12.118-11.095-4.137-2.685-9.95-3.78-11.302-5.98-1.353-2.197 2.71-5.033 2.99-9.27.17-2.544-4-7.5-4-7.5z" transform="matrix(.5296 0 0 .5296 -11.722 -13.864)" opacity=".217"/><path id="path8718" fill="url(#radialGradient8574-0)" fill-rule="evenodd" d="M113 203.5s3.34 5.1 3 7.5c-.668 4.71-10.81 7.058-8.563 11.25 2.22 4.14 10.222 1.794 16.938 6.125 6.688 4.313 4.89 13.1 9.75 15.313 9.48 4.312 34.375-7.438 33.125-7.188-41.34.157-33.625-10.495-49.563-17.5-2.303-1.012-.968-3.763-.687-8 .17-2.544-4-7.5-4-7.5z" transform="matrix(.5296 0 0 .5296 -11.722 -13.864)" opacity=".276" filter="url(#filter8732-3)"/><path id="path8736" fill="url(#radialGradient8744-9)" fill-rule="evenodd" d="M183.25 181.75c37.104-13.655 49.024-15.53 61.25-27.75-14.16 11.954-44.098 18.366-68.5 29z" transform="matrix(.5296 0 0 .5296 -11.722 -13.864)" opacity=".453"/><path id="path8746" fill="url(#radialGradient8768-6)" fill-rule="evenodd" d="M183.25 181.75c61.104-21.655 50.774-21.53 61.25-27.75-19.428 7.437-55.734 8.23-68.5 29z" transform="matrix(.5296 0 0 .5296 -11.722 -14.79)" opacity=".512" filter="url(#filter8764-9)"/><path id="path8864" fill="url(#linearGradient8912-9)" d="M237.875 199.063a7.938 2.438 0 1 1-15.875 0 7.938 2.438 0 1 1 15.875 0z" transform="matrix(.5296 0 0 .5296 -12.384 -14.79)" overflow="visible" opacity=".286" enable-background="accumulate"/><path id="path8874" fill="url(#linearGradient8910-3)" d="M237.875 199.063a7.938 2.438 0 1 1-15.875 0 7.938 2.438 0 1 1 15.875 0z" transform="matrix(.713 0 0 1.1408 -54.578 -134.955)" overflow="visible" opacity=".621" filter="url(#filter8906-3)" enable-background="accumulate"/><path id="path8914" fill="url(#radialGradient8922-9)" fill-rule="evenodd" d="M214.125 203.75c3.77 3.484 24.756 5.272 28.188-1-6.737 4.784-21.717 3.103-28.188 1z" transform="matrix(.5296 0 0 .5296 -11.722 -14.24)" filter="url(#filter8980-1)"/><path id="path8984" fill="url(#linearGradient8990-4)" d="M236.446 199.063a6.508 3.082 0 1 1-13.017 0 6.508 3.082 0 1 1 13.016 0z" transform="matrix(.2043 -.1036 .2395 .4724 5.755 30.287)" overflow="visible" opacity=".286" enable-background="accumulate"/><path id="path8986" fill="url(#linearGradient8992-2)" d="M236.993 199.063a7.056 2.14 0 1 1-14.11 0 7.056 2.14 0 1 1 14.11 0z" transform="matrix(.275 -.1394 .516 1.0175 -65.353 -69.3)" overflow="visible" opacity=".621" filter="url(#filter8906-3)" enable-background="accumulate"/><path id="path8988" fill="url(#radialGradient8994-0)" fill-rule="evenodd" d="M217.058 201.94c3.77 3.485 26.97 8.912 25.254.81-3.317 5.323-18.784 1.293-25.254-.81z" transform="matrix(.2043 -.1036 .2395 .4724 6.26 30.65)" filter="url(#filter8980-1)"/><path id="path8996" fill="url(#radialGradient9004-6)" fill-rule="evenodd" d="M68.25 186c0-.62 38.846 11.84 45.5 18.5-5.47-5.34-33.16-17.616-37.375-17.75-4.215-.134-7.625-.5-8.125-.75z" transform="matrix(.5296 0 0 .5296 -11.722 -13.864)"/><g id="g9018"><path id="path9006" fill="url(#linearGradient9023-6)" d="M237.875 199.063a7.938 2.438 0 1 1-15.875 0 7.938 2.438 0 1 1 15.875 0z" transform="matrix(.4656 -.1022 .1238 .3686 -95.518 49.727)" overflow="visible" opacity=".286" enable-background="accumulate"/><path id="path9008" fill="url(#linearGradient9025-1)" d="M237.875 199.063a7.938 2.438 0 1 1-15.875 0 7.938 2.438 0 1 1 15.875 0z" transform="matrix(.627 -.1376 .2668 .794 -160.706 -25.755)" overflow="visible" opacity=".621" filter="url(#filter8906-3)" enable-background="accumulate"/></g><path id="path9038" fill="url(#radialGradient9046-1)" fill-rule="evenodd" d="M80.5 220.063s2.103 5.65 7.875 5.937c5.84.29 12.503-7.007 13.063-9.625-1 2.25-6.59 9.033-13.813 8.938-4.1-.055-7.125-5.25-7.125-5.25z" transform="matrix(.5296 0 0 .5296 -11.623 -14.427)" opacity=".616" filter="url(#filter9068-2)"/><path id="87235" fill="none" stroke="url(#radialGradient11553-3)" stroke-width=".488" d="M63.406 10.22c-3.098 0-6.134 1.12-8.28 3.31L13.937 55.72c-3.766 3.764-4.67 6.23-4.438 7.624.116.697.46 1.303 1.188 1.937.728.636 1.83 1.258 3.156 1.814 2.65 1.112 6.218 2.008 9.719 2.97 3.5.96 6.93 1.973 9.53 3.624.397.258.77.576 1.032 1.03.262.456.354 1.057.25 1.563-.208 1.014-.832 1.548-1.47 2.032-1.272.97-3.022 1.774-4.78 2.626-1.758.85-3.525 1.723-4.406 2.437-.442.357-.6.678-.595.656.006-.02-.117-.272.094-.06.55.566 2.273 1.537 4.468 2.405 2.194.868 4.88 1.746 7.593 2.625 2.714.88 5.46 1.75 7.782 2.656 2.324.907 4.218 1.75 5.47 3 .622.64 1.062 1.436 1.156 2.25.093.814-.127 1.578-.438 2.22-.62 1.28-1.62 2.266-2.53 3.218-.912.95-1.737 1.86-2.032 2.47-.148.303-.17.5-.157.624.015.122.036.246.314.53a1.457 1.457 0 0 1 .03.032c1.195 1.262 3.788 1.44 6.72 2.125 1.466.343 3 .862 4.312 2 1.314 1.138 2.3 2.87 2.72 5.22.175.993.702 1.478 1.968 1.874 1.266.395 3.194.464 5.312.155 4.237-.62 9.26-2.695 12.156-5.094.18-.152.13-.11.188-.186-.195-.14-.652-.437-1.406-.813-.892-.443-1.945-.858-2.75-1.874-.403-.507-.68-1.31-.563-2.094.12-.784.548-1.437 1.126-2.03 4.746-4.8 9.422-5.945 12.938-6.876 1.758-.465 3.23-.89 4.344-1.594 1.114-.702 1.985-1.663 2.718-3.53.08-.203.08-.262-.03-.5-.11-.24-.405-.622-.876-1.032-.94-.82-2.51-1.7-4.063-2.563-1.552-.863-3.06-1.668-4.156-2.687-.547-.51-1.12-1.152-1.186-2.125-.066-.973.572-1.852 1.312-2.375 2.746-1.933 6.897-3.405 11.406-4.97 4.51-1.563 9.362-3.18 13.313-5.03 3.95-1.85 6.857-3.98 7.78-6.125.463-1.073.548-2.16.064-3.563-.485-1.403-1.59-3.12-3.564-5.093L72 13.562l-.03-.032c-2.36-2.206-5.48-3.31-8.564-3.31zm45.938 80c-2.635.094-5.06 1.3-6.094 3.186.294.11.558.235 1.03.344 1.377.316 3.297.52 5.19.563 1.89.04 3.783-.118 4.936-.438.505-.14.773-.282.906-.375-.255-1.09-.864-1.862-1.906-2.438-1.078-.595-2.556-.898-4.062-.843zm-70.5 9.06c-2.09-.144-4.717.688-6 1.72-.642.516-.914.994-.938 1.313-.024.318.078.74.938 1.468a1.457 1.457 0 0 1 0 .032c1.353 1.17 2.882 1.048 4.625.094 1.46-.8 2.756-2.3 3.624-3.875-.585-.376-1.285-.682-2.25-.75zm61 .626c-.448.57-.69 1.098-.72 1.47-.037.51.108.906.5 1.28.738.7 2.34 1.003 3.97.125-.032-.188-.094-.475-.344-.843-.5-.734-1.67-1.525-3.406-2.03z" filter="url(#filter9298-4)"/><path id="path5897" fill="url(#linearGradient5905-4)" fill-rule="evenodd" d="M95.5 172c-5.09 1.502-21.592 7.737-19.25 12.5 2.244 4.563 40.61 6.4 46.5 20 2.568 5.93-5.892 10.403-3.75 16.5 1.65 4.695 14.412 16.49 22.486 22.068 6.333 4.374 14.65-3.523 11.264-10.068-5.396-10.428 18.443-23.2 29.25-29 6.305-3.384-13-20-13-20l-73.5-12z" transform="translate(-5.81 -7.704) scale(.4883)" opacity=".325" filter="url(#filter5983-8)"/><path id="path5783" fill="url(#linearGradient5801-2)" fill-rule="evenodd" d="M41.742 78.533c2.232 1.64 6.637.65 9.282 1.842 6.35 2.86 14.155 6.045 12.72.404l-1.617 1.34-.03-2.556-3.753.916s-2.907-2.333-4.24-3.102c-.277-.16-1.707 1.293-1.707 1.293l-.257-1.543c-1.857-.197-3.696-.285-5.315-.272-3.88.03-6.5.638-5.083 1.678z"/><path id="path5803" fill="url(#radialGradient5811-3)" fill-rule="evenodd" d="M182.75 187.25c-1.76 6.478 21.628 15.28 19.875 19.75-3.86 9.842-24.976 3.138-41.125 23.75-2.313 2.953 3.25 13.5 2.5 12.25s-6.465-9.963-5-14.25c4.594-13.445 49.013-18.457 40.875-24.875-4.68-3.69-21.505-13.887-17.125-16.625z" transform="translate(-5.81 -7.704) scale(.4883)" opacity=".478" filter="url(#filter5845-5)"/><path id="path6041" fill="#fff" d="M109.125 90.232a1.25.52 0 1 1-2.503 0 1.25.52 0 1 1 2.503 0z" overflow="visible" opacity=".586" enable-background="accumulate"/><path id="path6043" fill="#fff" d="M100.763 99.815a.793.52 0 1 1-1.587 0 .793.52 0 1 1 1.587 0z" overflow="visible" opacity=".586" enable-background="accumulate"/><path id="path6045" fill="#fff" d="M37.466 99.357a1.404.52 0 1 1-2.808 0 1.404.52 0 1 1 2.808 0z" overflow="visible" opacity=".586" enable-background="accumulate"/><path id="path5049" fill="url(#linearGradient5822-7)" stroke-width="2.048" d="M36.672 76.53c-7.153 4.423-18.274 6.033-6.104 8.97-1.45-3.227 3.14-2.87 6.104-8.97z" overflow="visible" opacity=".251" enable-background="accumulate"/><path id="path10207" fill="url(#linearGradient1539)" stroke-width="2" d="M8.834 171.647S31.426 169.52 36.652 163c3.058-3.813-12.15-8.263-8.868-12 12.35-14.053 22.73-13.467 37.05-19.353 14.32-5.886 9.036-8.77 4.404-11.353-7.932-4.427-25.587-9.143-19.747-19.647 5.878-10.57 57.344-25.25 57.344-25.25 15.596-5.328 13.64-14.964 6-23l-46-45.75s2.283 43.39-7 62c-11.47 23-72.544 48.662-47 51.5 9 1 13.32 4.07 17 11 7.577 14.27-21 40.5-21 40.5z" transform="translate(57.75 32.997) scale(.4883)" color="#000" overflow="visible" opacity=".363" filter="url(#filter10997-7-2)" enable-background="accumulate"/></g><path id="path4133" fill="#fff0bf" stroke="#e1cb6d" d="M50.977 14.496c-.13.942-.536 2.83-.35 3.29 1.07 2.648 6.994 1.842 7.35-2.108.223-2.474-.02-4.992-.625-6.4-1.34-3.116-5.374-1.998-6.375 5.218z"/><path id="path4661" fill="#c35a3c" d="M58.358 4.853c1.025 2.482 2.14 4.14.995 5.126-1.594 1.37-6.19-3.577-10.253 4.795-1.084-6.562 3.24-6.806 3.64-9.585"/><path id="path4657" fill="#89402b" d="M57.896 5.044c.208.504.42.975.613 1.405.292.654.534 1.2.68 1.676.244.783.172 1.18-.166 1.47-.088.076-.212.126-.425.135-.223.01-.5-.027-.854-.096-.675-.132-1.6-.378-2.59-.388-1.838-.018-3.85.762-5.727 3.866-.07-2.117.58-3.324 1.283-4.265.607-.814 1.057-1.256 1.37-1.71.322-.468.667-1.115.656-1.947-.226.735-.777 1.23-1.123 1.547-.146.134-1.074.937-1.603 1.544-1.13 1.297-1.97 3.158-1.408 6.576l.944.137c1.972-4.058 3.98-4.752 5.597-4.735.867.01 1.644.22 2.406.368.364.07.74.13 1.09.114.36-.015.728-.11 1.04-.378.807-.697.75-1.62.465-2.533-.17-.544-.44-1.15-.726-1.79-.195-.433-.4-.89-.6-1.378z"/><path id="path4665" fill="none" stroke="#89402b" stroke-width=".5" d="M52.547-1.312c-.387 3.372 1.417 4.853 3.248 7.16.382.48.193.818-.646 1.163-1.882.776-5.142 3.052-4.813 5.466"/><path id="path4114" fill="#fff0bf" stroke="#e1cb6d" d="M75.426-5.717C75.426.706 69.2 6.49 63.334 6.49 57.47 6.49 51.397.706 51.397-5.717c0-6.423 5.38-11.63 12.014-11.63 6.637 0 12.016 5.207 12.016 11.63z"/><path id="path4129" fill="#fff0bf" stroke="#e1cb6d" d="M75.68 13.688c.13.942.537 2.83.35 3.29-1.07 2.648-6.994 1.84-7.35-2.108-.223-2.475.02-4.993.626-6.4 1.338-3.117 5.374-2 6.375 5.218z"/><path id="path4609" fill="#c35a3c" stroke="#89402b" d="M49.122-13.394c4.294-13.84 21.432-11.754 26.026-1.48"/><path id="path4145" fill="#fff0bf" d="M54.643-11.668c-.16-5.666-2.563-9.166-4.467-6.662-2.36 3.105-4.224 13.538 2.657 14.903"/><path id="path4139" fill="#e1cb6d" d="M50.676-14.517c-.45 1.334-.7 2.816-.55 4.306l.03.25c.088.652.298 1.223.572 1.668.248.4.57.657.892.783-.242-.233-.393-.58-.53-.96-.16-.435-.265-.976-.37-1.576l-.04-.235c-.192-1.287-.198-2.95-.004-4.237z"/><path id="path4453" fill="#fff0bf" d="M72.48-11.14c.423-5.65 2.987-9.036 4.772-6.445 2.213 3.21 3.59 13.72-3.348 14.762"/><path id="path4461" fill="#e1cb6d" d="M76.575-13.8c.134 1.295.05 2.956-.203 4.23-.015.078-.03.156-.05.234-.132.595-.263 1.13-.44 1.56-.156.37-.323.71-.576.932.328-.11.66-.35.927-.74.294-.432.53-.993.65-1.64.014-.083.028-.167.04-.25.22-1.48.04-2.972-.348-4.327z"/><path id="path4457" fill="#e1cb6d" d="M72.48-11.14c.07-.28.17-.544.224-.817.608-3.116 1.74-4.738 2.078-5.177.335-.434.712-.776 1.073-.82.172-.02.54.006.985.652.505.732.983 1.926 1.304 3.344.32 1.41.474 3.006.36 4.527-.047.607-.135 1.2-.272 1.764-.206.846-.53 1.615-.957 2.28-.225.35-.48.675-.77.973-.626.645-1.427 1.276-2.6 1.59 1.197-.044 2.273-.314 3.138-.978.388-.3.725-.654 1.012-1.05.547-.753.908-1.64 1.147-2.574.16-.623.26-1.272.314-1.928.13-1.638-.04-3.337-.384-4.832-.343-1.487-.866-2.81-1.468-3.685-.612-.887-1.294-1.15-1.894-1.11-.856.06-1.494.73-1.842 1.208-.535.736-1.377 2.415-1.513 5.782-.01.28.038.564.065.85z"/><ellipse id="path1648" cx="480.896" cy="273.156" fill="#fff" ry="19.283" rx="10.652" transform="matrix(.3348 .0214 -.0214 .3348 -85.387 -107.078)"/><ellipse id="path1480" cx="41.938" cy="62.909" fill="#fff" ry="19.352" rx="13.235" transform="matrix(.3336 -.035 .035 .3336 41.474 -24.755)"/><ellipse id="path1567" cx="480.938" cy="273.255" fill="url(#linearGradient4922)" ry="14.092" rx="9.777" transform="matrix(.334 -.032 .032 .334 -111.2 -80.92)"/><ellipse id="path1612" cx="514.42" cy="270.8" fill="url(#linearGradient4924)" ry="13.658" rx="8.897" clip-path="url(#clipPath4605)" transform="matrix(.3353 .0106 -.0106 .3353 -100.496 -101.382)"/><path id="path1658" fill="#3edaff" d="M478.84 281.023l-6.16 2.5 2.23 4.018 4.822-5.714z" transform="scale(.3355) rotate(3.86 4651.51 -4452.14)" clip-path="url(#clipPath4582)"/><path id="path1661" fill="#92eaff" d="M479.286 281.916l-5.18 5.357 3.662 2.053 2.59-6.696z" transform="scale(.3355) rotate(3.86 4651.51 -4452.14)" clip-path="url(#clipPath4578)"/><path id="path1663" fill="#3edaff" d="M520.357 276.29l5.625.983-1.607 4.107-5.09-3.75z" transform="matrix(.3332 .0388 -.0388 .3332 -92.322 -115.484)" clip-path="url(#clipPath4592)"/><path id="path1665" fill="#92eaff" d="M519.554 277.273l5.09 3.393-1.965 3.482-3.84-5.447z" transform="matrix(.3332 .0388 -.0388 .3332 -92.322 -115.484)" clip-path="url(#clipPath4588)"/><path id="path4481" fill="#c53474" d="M61.15 1.656c1.838.87 3.736.91 5.083.423-.425 3.465-4.774 3.66-5.083-.424z"/><path id="path4483" fill="#f67033" d="M62.37 4.204c.657-.82 1.453-.743 1.877.448z"/><path id="path4465" fill="none" stroke="#e1cb6d" stroke-width=".6" d="M61.15 1.656c1.838.87 3.736.91 5.083.423-.425 3.465-4.774 3.66-5.083-.424z"/><ellipse id="path1569" cx="481.518" cy="276.157" ry="10.043" rx="6.56" transform="matrix(.3354 -.005 .005 .3354 -104.61 -95.067)"/><ellipse id="path1640" cx="515.178" cy="272.398" ry="9.238" rx="5.814" transform="matrix(.3353 .0115 -.0115 .3353 -100.557 -102.05)"/><ellipse id="path1642" cx="504.95" cy="265.201" fill="#fff" ry="5.44" rx="3.405" transform="matrix(.2744 .193 -.193 .2744 -19.433 -177.222)"/><g id="layer48" fill="#fff" transform="matrix(.3347 .0226 -.0226 .3347 -97.7 -107.564)"><ellipse id="path1608" cx="480.893" cy="267.139" ry="5.638" rx="3.643" transform="rotate(32.927 479.624 266.38)"/><ellipse id="path1610" cx="485.58" cy="277.764" ry="1.92" rx=".848" transform="rotate(40.133 489.992 280.876)"/><ellipse id="path1644" cx="485.58" cy="277.764" ry="1.564" rx=".848" transform="rotate(42.91 506.325 316.626)"/></g><path id="path4632" d="M66.74-1.436c-.28-.895-.525-2.312-.333-4.12.15-1.82.697-3.334 1.375-4.353.843-1.267 1.734-1.59 2.373-1.553.717.043 1.423.535 1.994 1.475.564.933.953 2.247 1.03 3.753l.335-.01c-.022-1.543-.34-2.952-.896-4.008-.553-1.047-1.38-1.81-2.423-1.88-.962-.064-2.04.487-2.912 1.906-.7 1.14-1.21 2.764-1.297 4.644-.044 1.883.373 3.292.752 4.147z"/><path id="path4621" fill="#c35a3c" d="M62.29-15.93c4.316 1.255 11.01 7.16 14.17 13.29.81-5.9-1.677-10.708-4.212-13.468"/><path id="path4613" fill="#89402b" d="M62.15-15.45c2.052.593 4.735 2.33 7.315 4.71 2.572 2.372 4.992 5.335 6.55 8.33l.94-.16c.405-3.043-.033-5.804-.97-8.12-.94-2.316-2.375-4.132-3.737-5.418 1.173 1.475 2.246 3.437 2.985 5.694.598 1.827.975 3.88.878 6.12-1.575-2.627-3.717-5.135-5.958-7.192-2.636-2.42-5.458-4.262-7.722-4.924z"/><path id="path4617" fill="#c35a3c" d="M54.617-13.435c5.034-.737 8.935 1.83 12.912 6.952-.307-2.974-2.582-8.993-5.526-10.32"/><path id="path4611" fill="#89402b" d="M54.69-12.94c.965-.14 1.883-.155 2.762-.05 3.503.42 6.524 2.763 9.682 6.814l.892-.358c-.217-2.032-1.094-4.412-1.864-5.92-.57-1.115-1.515-2.645-2.77-3.644-.446-.354-.927-.574-1.388-.704.4.256.75.624 1.1 1.01.99 1.09 1.77 2.652 2.246 3.725.37.835.724 1.758 1.015 2.678.106.336.212.697.307 1.067-2.806-3.246-5.704-5.254-9.102-5.66-.972-.116-1.978-.1-3.025.054z"/><path id="path4135" fill="#e1cb6d" d="M54.643-11.668c.052-.31.136-.61.137-.917.01-3.035-.665-4.84-1.28-5.774-.38-.58-.98-1.2-1.78-1.294-.624-.073-1.31.19-1.942 1.022-.643.844-1.227 2.143-1.64 3.613-.412 1.478-.662 3.167-.607 4.81.024.657.095 1.31.225 1.94.195.944.515 1.846 1.026 2.624.27.41.59.78.963 1.095.833.703 1.895 1.023 3.09 1.123-1.158-.37-1.928-1.036-2.524-1.71-.276-.31-.517-.648-.725-1.008-.396-.683-.683-1.467-.85-2.322-.11-.57-.17-1.166-.19-1.775-.042-1.525.186-3.11.57-4.506.387-1.402.92-2.572 1.46-3.28.465-.612.83-.632 1.013-.602.325.053.684.36 1.038.863.463.662 1.355 2.337 1.79 5.21.044.296.157.583.227.89z"/><path id="path4523" fill="#e1cb6d" d="M62.64-.848c.37-.124 1.12-.173 1.43-.16.257.008.527.03.817.09.2.042.418.07.64.138-.168-.158-.333-.318-.53-.428-.282-.16-.588-.266-.908-.282-.66-.033-1.036.22-1.45.642z"/><path id="path4527" fill="#e1cb6d" d="M63.013-.514c-.07.154-.164.36-.025.514l.015.015c.07.065.164.097.26.076h.008c.107-.027.194-.114.293-.198-.136.014-.237-.022-.295-.046l-.005-.002c-.04-.017-.068-.032-.074-.036-.002 0-.003-.002-.004-.003-.038-.026-.132-.103-.173-.32z"/><path id="path4531" fill="#e1cb6d" d="M65.173-.428c-.04.216-.134.293-.172.32l-.003.002c-.005.004-.034.02-.074.036 0 0-.003 0-.004.002-.06.024-.16.06-.296.046.098.084.186.17.292.197l.008.002c.096.02.19-.01.26-.076l.014-.014c.14-.153.046-.36-.025-.514z"/><path id="path4627" d="M53.587-7.69c.464-1.797 1.367-2.69 1.894-3.074.566-.41 1.114-.556 1.55-.597.713-.07 1.9.1 3.063 1.417.644.73 1.53 2.13 1.788 4.26.225 1.605.055 3.147-.457 4.39.64-1.184.996-2.738.875-4.432-.2-2.232-1.075-3.763-1.76-4.597-1.25-1.524-2.633-1.812-3.58-1.707-.554.065-1.2.288-1.83.82-.593.497-1.478 1.547-1.868 3.445z"/><path id="path4637" d="M53.6-8.197c-.547-.048-.954-.272-1.14-.382-.176-.103-.6-.367-.89-.818-.107-.164-.21-.34-.272-.538-.003.208.02.42.092.625.21.585.61.938.827 1.096.213.155.67.427 1.328.514z"/><path id="path4641" d="M53.8-8.948c-.668-.126-1.01-.43-1.168-.59-.107-.108-.287-.315-.404-.667-.06-.18-.118-.383-.142-.614-.043.228-.072.445-.054.655.036.417.175.7.29.873.186.278.562.643 1.372.833z"/><path id="path4645" d="M54.195-9.755c-.423-.146-.697-.348-.85-.483-.088-.075-.264-.24-.364-.514-.053-.147-.104-.32-.11-.528-.06.198-.097.386-.084.567.024.355.165.6.26.736.183.254.468.473.967.688z"/><path id="path4651" fill="none" stroke="#89402b" stroke-width=".5" d="M58.537-22.574c-3.975 6.303 4.654 6.683 6.307 13.26"/><path id="path4653" fill="none" stroke="#89402b" stroke-width=".5" d="M66.512-22.017c-1.716 4.345 6.964 6.638 7.823 15.82"/></g></svg>
