<?xml version="1.0" standalone="no"?>
<!DOCTYPE svg PUBLIC "-//W3C//DTD SVG 20010904//EN"
 "http://www.w3.org/TR/2001/REC-SVG-20010904/DTD/svg10.dtd">
<svg version="1.0" xmlns="http://www.w3.org/2000/svg"
 width="260.000000pt" height="260.000000pt" viewBox="0 0 260.000000 260.000000"
 preserveAspectRatio="xMidYMid meet">
<metadata>
Created by potrace 1.11, written by Peter Selinger 2001-2013
</metadata>
<g transform="translate(0.000000,260.000000) scale(0.100000,-0.100000)"
fill="#000000" stroke="none">
<path d="M1361 2579 c-163 -32 -328 -118 -435 -226 l-50 -50 -24 29 c-48 56
-114 73 -172 43 -59 -31 -151 -178 -198 -316 -21 -64 -42 -102 -84 -155 -172
-215 -276 -445 -313 -694 -16 -101 -20 -240 -7 -240 4 0 27 27 52 60 24 33 45
60 45 60 0 0 0 -51 1 -113 1 -135 21 -239 79 -407 83 -239 174 -515 180 -542
l5 -28 164 0 164 0 11 33 c24 73 41 169 47 264 l7 99 51 -13 c50 -13 96 -17
96 -9 0 3 -22 34 -50 71 -27 36 -65 98 -84 138 -34 72 -74 212 -63 223 3 4 29
1 57 -6 28 -7 53 -10 55 -8 3 3 -19 32 -48 65 -104 121 -174 278 -194 439 -8
63 -7 71 6 66 9 -3 -5 17 -29 46 -69 79 -116 165 -135 243 -49 199 27 491 168
645 52 57 70 63 118 39 72 -38 118 -141 154 -348 14 -77 28 -143 32 -146 5 -3
27 -31 50 -62 23 -31 68 -76 101 -101 l59 -44 -38 -21 -39 -21 -51 69 c-28 38
-58 69 -66 69 -19 0 -11 -27 37 -115 l38 -70 -20 -25 -19 -24 -85 42 c-84 42
-114 50 -114 32 0 -9 83 -75 125 -98 42 -24 46 -29 40 -53 -6 -25 -7 -25 -100
-21 -101 5 -143 -2 -114 -18 19 -11 180 -40 220 -40 23 0 30 5 35 28 21 84
105 187 180 218 31 13 37 13 77 -8 l42 -22 -31 -6 c-105 -23 -193 -146 -210
-295 -7 -54 -6 -55 19 -55 47 0 57 -9 57 -54 0 -24 6 -63 14 -88 13 -45 13
-45 -15 -62 -16 -10 -29 -23 -29 -30 0 -24 83 -108 125 -127 156 -71 315 71
336 299 4 47 3 109 -1 140 -19 114 -100 236 -175 263 -31 11 -62 45 -51 56 2
3 28 -8 57 -24 90 -49 164 -162 189 -291 18 -89 8 -262 -18 -336 -12 -33 -20
-62 -17 -64 8 -9 66 94 83 148 22 74 22 226 -2 304 -27 92 -73 174 -125 226
-56 56 -97 79 -165 95 -44 10 -51 15 -62 48 l-13 37 27 -6 c196 -43 351 -102
487 -184 47 -28 85 -53 85 -55 0 -2 -7 -32 -17 -67 -20 -78 -22 -261 -4 -338
15 -62 42 -120 79 -168 l24 -32 -44 0 c-24 0 -69 -8 -99 -17 l-54 -17 137 -7
c141 -8 178 -17 178 -47 0 -38 -49 -120 -99 -164 -107 -97 -255 -105 -320 -18
l-21 30 25 6 c34 8 21 24 -20 24 -40 0 -95 -42 -95 -73 l0 -21 22 21 21 22 46
-49 c37 -39 56 -50 98 -59 135 -28 289 53 357 188 48 93 27 171 -46 171 -60 0
-65 13 -22 57 22 21 47 61 57 87 17 48 17 49 -3 63 -17 12 -18 21 -13 79 5 51
12 72 29 90 l24 23 36 -47 c32 -42 35 -52 30 -89 -3 -23 -15 -69 -26 -102 -11
-33 -20 -70 -20 -81 0 -42 23 -110 45 -134 14 -16 19 -26 12 -29 -9 -3 -9 -8
0 -18 12 -15 5 -71 -9 -66 -4 1 -20 -17 -37 -40 -59 -82 -173 -146 -329 -186
-80 -20 -110 -22 -360 -22 -227 1 -267 -1 -238 -11 19 -7 55 -16 79 -19 l43
-7 -12 -61 c-12 -61 -34 -276 -34 -336 0 -23 5 -31 18 -31 17 0 20 16 31 148
6 81 17 174 24 207 l12 59 155 2 c169 2 274 18 393 61 85 30 171 80 211 122
17 17 35 31 42 31 7 0 19 8 26 18 7 9 20 17 28 17 12 0 15 16 16 77 0 69 -2
80 -21 92 -14 9 -28 37 -39 74 -16 59 -16 62 8 143 l24 84 48 -78 c27 -42 53
-77 58 -77 14 0 0 366 -18 462 -33 175 -91 316 -181 442 -53 75 -54 76 -22 60
70 -36 158 -107 242 -196 l88 -93 -8 59 c-16 138 -76 308 -144 413 -53 82 -97
130 -166 180 -54 40 -59 48 -60 83 -1 36 -18 70 -35 70 -4 0 -24 -11 -43 -25
l-37 -24 -77 20 c-107 27 -258 34 -358 16 -44 -8 -81 -14 -82 -13 -1 1 18 34
43 74 24 40 44 75 44 77 0 8 -121 4 -169 -6z m656 -299 l-13 -65 -26 28 c-46
49 -45 74 4 124 l43 44 3 -33 c1 -18 -3 -62 -11 -98z m-87 -30 c7 -17 25 -38
40 -47 l28 -16 -15 -51 c-8 -28 -18 -55 -23 -59 -13 -14 -78 60 -91 102 -10
35 -9 42 12 70 12 17 26 31 30 31 3 0 12 -14 19 -30z m-87 -101 c4 -15 2 -19
-10 -15 -8 3 -19 6 -24 6 -5 0 -4 9 3 19 14 23 23 20 31 -10z m-479 -669 c12
-11 21 -38 24 -69 14 -154 -141 -270 -203 -151 -30 58 -12 146 43 204 47 50
96 56 136 16z m642 -76 c56 -47 57 -80 1 -141 -42 -47 -97 -14 -97 57 0 34 33
120 45 120 4 0 27 -16 51 -36z m-538 -245 c3 -28 -22 -63 -41 -56 -25 8 -31
35 -13 62 21 33 50 29 54 -6z m532 -19 c0 -30 -30 -57 -50 -45 -14 9 -12 49 2
63 23 23 48 14 48 -18z"/>
<path d="M741 2211 c-45 -45 -97 -298 -85 -412 9 -79 26 -169 33 -168 3 0 19
28 35 61 16 34 53 87 83 117 51 53 53 57 53 110 -1 105 -27 271 -45 291 -23
25 -50 25 -74 1z"/>
<path d="M1798 790 c14 -24 15 -33 4 -50 -19 -30 13 -27 33 4 19 28 12 50 -21
65 -35 15 -35 15 -16 -19z"/>
</g>
</svg>
