<svg xmlns="http://www.w3.org/2000/svg" xmlns:xlink="http://www.w3.org/1999/xlink" viewBox="0 -1 200 199"><defs><clipPath id="a" transform="translate(-5.5616 -1.0841)"><rect width="200" height="200" fill="none"/></clipPath><mask id="b" x="135.824" y="72.7436" width="31.2982" height="59.7523" maskUnits="userSpaceOnUse"><g transform="translate(-5.5616 -1.0841)"><path d="M158.81,73.84c-7.3726-.4456-12.4108,10.86-13.4369,27.8209s4.6359,31.4616,12.0082,31.9078a6.02,6.02,0,0,0,1.4271-.0866,31.7886,31.7886,0,0,0,4.0395-4.8961,32.8864,32.8864,0,0,0,2.4189-4.3047,37.5883,37.5883,0,0,0,1.9041-4.8995,58.2593,58.2593,0,0,0,2.2463-11.2155,95.6328,95.6328,0,0,0,.4668-12.5535,54.5407,54.5407,0,0,0-2.0515-13.14q-.4669-1.67-1.0526-3.33C164.427,75.9172,161.6148,74.01,158.81,73.84Z" fill="#fff"/></g></mask><mask id="c" x="133.8936" y="79.9726" width="26.6475" height="49.4772" maskUnits="userSpaceOnUse"><g transform="translate(-5.5616 -1.0841)"><path d="M163.4439,106.2362c.0944,13.6609-5.198,24.5371-11.8219,24.2937s-12.0705-11.5149-12.1655-25.1752,5.1983-24.5371,11.8219-24.294S163.3486,92.5762,163.4439,106.2362Z" fill="#fff"/></g></mask><linearGradient id="d" x1="187.7541" y1="216.7892" x2="189.9646" y2="171.8401" gradientTransform="translate(-46.4872 -81.725) rotate(-2.7457)" gradientUnits="userSpaceOnUse"><stop offset="0" stop-color="#f6df58"/><stop offset="0.7" stop-color="#ff8d38"/></linearGradient><mask id="e" x="68.0947" y="73.0875" width="53.3" height="69.2303" maskUnits="userSpaceOnUse"><g transform="translate(-5.5616 -1.0841)"><path d="M126.8531,106.92C125.589,87.912,113.0424,73.27,98.83,74.215a20.0527,20.0527,0,0,0-5.9919,1.38,18.4392,18.4392,0,0,0-2.0428.3995c-13.3758,3.4238-20.39,21.16-15.666,39.6151s19.3964,30.64,32.7722,27.2165c6.1353-1.57,10.93-6.1534,13.87-12.4345A41.509,41.509,0,0,0,126.8531,106.92Z" fill="#fff"/></g></mask><mask id="f" x="73.0712" y="79.1961" width="44.2333" height="56.8436" maskUnits="userSpaceOnUse"><g transform="translate(-5.5616 -1.0841)"><path d="M122.8648,108.8159c-.1243,15.6975-9.1652,28.3706-20.1928,28.3077s-19.8653-12.8392-19.74-28.5354S92.0968,80.2175,103.1244,80.28,122.99,93.119,122.8648,108.8159Z" fill="#fff"/></g></mask><linearGradient id="g" x1="178.438" y1="492.1564" x2="189.738" y2="439.1683" gradientTransform="matrix(0.9759, -0.2182, 0.2182, 0.9759, -178.3688, -306.3748)" xlink:href="#d"/></defs><title>guest</title><g clip-path="url(#a)"><path d="M126.19,142.3748a4.0968,4.0968,0,0,1-.97-.38,5.3023,5.3023,0,0,1-.8589-.5744,2.6343,2.6343,0,0,1-.7513-.8369c-.2037-.3426-.5157-.6857-.7946-1.0642-.2773-.386-.6324-.7388-.9678-1.13a20.1759,20.1759,0,0,0-2.3688-2.1837c-.4229-.35-.8711-.6682-1.3168-.9759-.4512-.3-.8994-.59-1.352-.8438-.8894-.5345-1.7914-.91-2.5309-1.3241-.3658-.2185-.7426-.33-1.0383-.5307a3.2612,3.2612,0,0,1-.6779-.77,3.8879,3.8879,0,0,1-.4716-1.0051,4.0216,4.0216,0,0,1,1.0281-.4143,2.9564,2.9564,0,0,1,1.0414-.0872,11.2518,11.2518,0,0,1,1.174.398,17.48,17.48,0,0,1,2.8359,1.3684c.5057.2837,1.013.6105,1.522.9489.5048.3473,1.012.7082,1.4938,1.1051.5021.3708.9376.8224,1.397,1.2281.4246.4425.86.8624,1.2377,1.3072.37.45.7577.8627,1.0608,1.3021.3115.4373.6262.8172.8776,1.2288a3.413,3.413,0,0,1,.5608,1.1721,4.4248,4.4248,0,0,1,.0516,1.0358A4.1019,4.1019,0,0,1,126.19,142.3748Z" transform="translate(-5.5616 -1.0841)" fill="#2864bc"/><path d="M105.6941,152.7362" transform="translate(-5.5616 -1.0841)" fill="none"/><path d="M120.15,135.0458c6.8672,2.1061,10.6755,5.4189,13.3758,14.8717,4.4084-7.3549,2.1727-20.4187-16.5949-40.5832C106.8959,98.5529,100.827,93.263,102.1453,73.6986" transform="translate(-5.5616 -1.0841)" fill="none" stroke="#2864bc" stroke-miterlimit="20" stroke-width="2.7275"/><path d="M46.0276,204.0124c.8207-5.6355,1.3414-11.4034,2.1082-17.2361l8.509-28.3288,39.5524-1.2638,10.4879,8.6988c-2.141,4.3137-2.8788,13.3219-3.76,23.65-.3652,4.2813-.4908,8.9564-.4677,13.7727" transform="translate(-5.5616 -1.0841)" fill="#e6effc" stroke="#9cbddb" stroke-width="2.7273"/><path d="M48.7369,184.0726c2.31-19.2032,3.7139-37.3055-4.0021-78.8207-6.4-34.433,24.12-65.16,59.0666-67.4844s67.0263,24.0467,67.4843,59.0667c.46,35.1643-14.4414,42.306-34.1282,49.424" transform="translate(-5.5616 -1.0841)" fill="#e6effc"/><path d="M46.7588,186.704s.1591-1.3542.4572-3.8934c.2786-2.53.7005-6.2431,1.0617-10.9736.35-4.7305.62-10.4839.5431-17.0887-.0677-6.6039-.5037-14.0562-1.377-22.1539-.868-8.0982-2.1634-16.8411-3.8624-26.0346a60.1122,60.1122,0,0,1-.953-7.2178,49.823,49.823,0,0,1,.0663-7.4945,52.5361,52.5361,0,0,1,3.5248-15.0031A62.1689,62.1689,0,0,1,65.4236,51.3858,69.6708,69.6708,0,0,1,95.2625,37.52a67.8887,67.8887,0,0,1,8.274-1.1c1.446-.0591,2.7222-.1485,4.1407-.1448,1.4036.0135,2.8128.0026,4.19.1134a64.12,64.12,0,0,1,16.24,2.9862,66.13,66.13,0,0,1,27.219,16.607,60.0334,60.0334,0,0,1,15.1162,25.7491A58.5628,58.5628,0,0,1,172.6,95.5169a96.6424,96.6424,0,0,1-.4117,12.944c-.8306,8.2614-3.17,15.9241-7.2438,21.57a31.2115,31.2115,0,0,1-6.7023,6.9,43.5916,43.5916,0,0,1-6.8893,4.2143,75.6471,75.6471,0,0,1-10.4167,4.0191c-2.4564.7449-3.7788,1.0947-3.7788,1.0947l3.5776-1.6241c1.1649-.5267,2.6023-1.1744,4.2577-1.9923,1.664-.7955,3.5571-1.7468,5.5824-2.9464a33.7525,33.7525,0,0,0,16.5881-20.3172,57.9326,57.9326,0,0,0,2.25-11.2135,93.9264,93.9264,0,0,0,.4525-12.5519,55.1514,55.1514,0,0,0-2.0477-13.138,57.3016,57.3016,0,0,0-14.4368-24.58,63.404,63.404,0,0,0-26.0964-15.9188,61.3989,61.3989,0,0,0-15.5737-2.8639c-1.3329-.1078-2.6452-.0938-3.9633-.11-1.3029-.0083-2.748.0892-4.0237.1393A65.16,65.16,0,0,0,95.79,40.196,66.9486,66.9486,0,0,0,67.1256,53.5168,59.4473,59.4473,0,0,0,48.7562,77.8455a49.8085,49.8085,0,0,0-3.3435,14.2257A47.09,47.09,0,0,0,45.35,99.166a57.2392,57.2392,0,0,0,.914,6.9021c1.709,9.2485,3.0151,18.0584,3.8915,26.2351.8818,8.1758,1.3237,15.719,1.3925,22.4133.0779,6.6949-.196,12.5338-.5505,17.3236-.3658,4.79-.7911,8.5324-1.0725,11.0865l-.4575,3.8959Z" transform="translate(-5.5616 -1.0841)" fill="#9cbddb"/><path d="M165.9226,121.7557c-.7083,11.6081,6.1378,14.17,6.0446,18.2862-.38,16.7681-35.4939,33.17-79.3657,23.8731" transform="translate(-5.5616 -1.0841)" fill="#e6effc"/><path d="M168.497,123.6882l-.0915.2879a6.4978,6.4978,0,0,0-.17.6939,2.9177,2.9177,0,0,0-.0089,1.0058l.0626.357.0978.4643c.0692.3139.1344.6725.2194,1.0034.311,1.3568.7916,3.0438,1.416,4.9589a45.6633,45.6633,0,0,1,1.9182,6.8277,14.4826,14.4826,0,0,1-1.7372,8.656,24.65,24.65,0,0,1-6.1542,7.2865,42.5184,42.5184,0,0,1-8.4345,5.3554,62.9815,62.9815,0,0,1-9.5186,3.71,91.7554,91.7554,0,0,1-19.65,3.5268,89.8506,89.8506,0,0,1-9.1713.2461c-2.9153-.07-5.6638-.2789-8.1912-.5263a78.78,78.78,0,0,1-12.0513-2.2058c-1.4241-.4056-2.5366-.7354-3.2838-1.0107-.7516-.2529-1.1463-.4106-1.1463-.4106s.4267.01,1.2151.0709l3.4073.26c2.9256.2335,7.0744.6391,12.051.8914a141.4468,141.4468,0,0,0,16.973-.066,86.1316,86.1316,0,0,0,19.0542-3.3855,60.27,60.27,0,0,0,9.1086-3.5485,39.8189,39.8189,0,0,0,7.8955-5.006,21.9621,21.9621,0,0,0,5.4843-6.46,13.891,13.891,0,0,0,1.3058-3.57c.045-.2942.1219-.6074.1425-.8777l.05-.4149.0284-.486a8.153,8.153,0,0,0-.0781-1.6553,44.399,44.399,0,0,0-1.8109-6.3645c-.6414-1.97-1.1415-3.7117-1.4858-5.2151-.0956-.38-.1536-.7055-.225-1.0294l-.0978-.4643-.0911-.5159a5.7153,5.7153,0,0,1,.019-1.8749,9.0517,9.0517,0,0,1,.2563-1.048l.095-.2987Z" transform="translate(-5.5616 -1.0841)" fill="#9cbddb"/><path d="M172.783,75.2389" transform="translate(-5.5616 -1.0841)" fill="none"/><path d="M165.7724,84.7041" transform="translate(-5.5616 -1.0841)" fill="none"/><g mask="url(#b)"><path d="M172.5885,103.6671c-1.0261,16.9613-7.8347,30.3483-15.207,29.9021s-13.034-14.9465-12.0082-31.9078S151.4376,73.3948,158.81,73.84,173.614,86.7058,172.5885,103.6671Z" transform="translate(-5.5616 -1.0841)" fill="#fff"/><g mask="url(#c)"><path d="M163.4439,106.2362c.0944,13.6609-5.198,24.5371-11.8219,24.2937s-12.0705-11.5149-12.1655-25.1752,5.1983-24.5371,11.8219-24.294S163.3486,92.5762,163.4439,106.2362Z" transform="translate(-5.5616 -1.0841)" fill="url(#d)"/><polygon points="144.904 109.647 160.154 100.162 159.155 110.527 144.904 109.647" fill="#f9e98c"/><polygon points="145.979 109.982 160.541 108.709 158.838 117.323 145.979 109.982" fill="#fcf1bd"/></g><path d="M159.4552,107.5084c.0686,10.49-3.9208,18.8433-8.91,18.6576s-9.09-8.8405-9.1587-19.33,3.92-18.843,8.9094-18.657S159.386,97.018,159.4552,107.5084Z" transform="translate(-5.5616 -1.0841)"/><path d="M149.9017,104.8857c-2.8651-.9273-4.0093-5.65-2.5569-10.5468s4.9518-8.1167,7.8169-7.19,4.01,5.6492,2.5576,10.5465S152.7671,105.8121,149.9017,104.8857Z" transform="translate(-5.5616 -1.0841)" fill="#fff"/><path d="M150.13,115.8975c-1.1819-.6322-1.4411-2.5345-.58-4.2511s2.5167-2.5965,3.6983-1.9655,1.4411,2.5342.58,4.2508S151.3117,116.5278,150.13,115.8975Z" transform="translate(-5.5616 -1.0841)" fill="#fff"/></g><path d="M154.19,132.3178s-.3188-.2021-.8929-.6041a17.0415,17.0415,0,0,1-2.2585-2.0631,25.7207,25.7207,0,0,1-2.8663-3.8138,33.6673,33.6673,0,0,1-2.708-5.5838,48.3014,48.3014,0,0,1-2.49-15.2A60.7537,60.7537,0,0,1,145.2348,87.6a39.1562,39.1562,0,0,1,3.42-8.398,20.3921,20.3921,0,0,1,2.6691-3.7434,10.0034,10.0034,0,0,1,3.9662-2.7712,7.4366,7.4366,0,0,1,4.8278-.025,10.2854,10.2854,0,0,1,3.781,2.331,20.4855,20.4855,0,0,1,4.2886,6.2645,43.9442,43.9442,0,0,1,3.1373,10.5081c.2355,1.2933.3792,2.3138.4684,3.01s.1375,1.0673.1375,1.0673l-2.7089.318-.1324-1.0266c-.0856-.6694-.2239-1.65-.4489-2.8849a41.3424,41.3424,0,0,0-2.928-9.8455,17.8684,17.8684,0,0,0-3.6782-5.42c-1.6254-1.54-3.7841-2.4978-5.8972-1.704a7.4507,7.4507,0,0,0-2.8089,2.0283,17.7145,17.7145,0,0,0-2.3029,3.2427,36.49,36.49,0,0,0-3.17,7.8049,58.0576,58.0576,0,0,0-2.1543,16.6536,50.6388,50.6388,0,0,0,2.2516,14.4125,39.3707,39.3707,0,0,0,2.0017,5.4642,38.6882,38.6882,0,0,0,2.0928,4.0076c.65,1.0858,1.1868,1.9323,1.5636,2.514C153.9965,131.9934,154.19,132.3178,154.19,132.3178Z" transform="translate(-5.5616 -1.0841)"/><path d="M78.2056,96.8868S58.918,94.548,59.19,93.2356s18.0082.182,18.0082.182Z" transform="translate(-5.5616 -1.0841)"/><path d="M78.386,89.79S63.0531,80.3434,63.8583,79.0668,80.01,86.4553,80.01,86.4553Z" transform="translate(-5.5616 -1.0841)"/><path d="M82.7159,82.3382s-8.5956-14.3561-7.37-15.1818S85.5854,80.15,85.5854,80.15Z" transform="translate(-5.5616 -1.0841)"/><ellipse cx="101.9088" cy="108.5793" rx="24.9996" ry="34.493" transform="translate(-12.5434 5.9191) rotate(-3.8055)" fill="#fff"/><g mask="url(#e)"><g mask="url(#f)"><path d="M122.8648,108.8159c-.1243,15.6975-9.1652,28.3706-20.1928,28.3077s-19.8653-12.8392-19.74-28.5354S92.0968,80.2175,103.1244,80.28,122.99,93.119,122.8648,108.8159Z" transform="translate(-5.5616 -1.0841)" fill="url(#g)"/><polygon points="73.071 115.123 104.734 109.63 78.126 125.7 73.071 115.123" fill="#fcf1bd"/><polygon points="73.315 105.546 105.199 110.025 73.572 116.954 73.315 105.546" fill="#f9e98c"/></g><path d="M118.1756,109.369c-.12,12.1942-6.6684,22.0337-14.6259,21.9776S89.2388,121.36,89.3582,109.1652s6.6684-22.0337,14.6259-21.9776S118.2952,97.1744,118.1756,109.369Z" transform="translate(-5.5616 -1.0841)"/><path d="M101.9316,84.2043c4.463.9245,6.6073,6.7871,4.7911,13.095s-6.9068,10.6718-11.3694,9.7476-6.6077-6.7878-4.7908-13.095S97.4689,83.28,101.9316,84.2043Z" transform="translate(-5.5616 -1.0841)" fill="#fff"/><path d="M111.7356,108.2578c1.4464.3219,2.1251,2.1808,1.5156,4.152s-2.2749,3.31-3.7214,2.9885-2.1251-2.18-1.5162-4.1526S110.2895,107.9369,111.7356,108.2578Z" transform="translate(-5.5616 -1.0841)" fill="#fff"/></g><path d="M76.5327,96.6619l-.2194-.341c-.1519-.2291-.3433-.5492-.5788-.9929l-.3715-.7832c-.0459-.1422-.1852-.3173-.1612-.458a1.9842,1.9842,0,0,0,.1215-.4264c.1318-.5988.319-1.2777.5548-2.0283A29.076,29.076,0,0,1,89.3418,75.3538a23.04,23.04,0,0,1,9.3259-2.8356,22.0517,22.0517,0,0,1,10.2707,1.83,27.2467,27.2467,0,0,1,8.68,6.1322,35.9634,35.9634,0,0,1,6.0861,8.5462,42.959,42.959,0,0,1,3.5455,9.4493,46.9993,46.9993,0,0,1,1.3525,9.3067,38.2,38.2,0,0,1-.46,8.3974,36.8942,36.8942,0,0,1-1.8864,6.846,30.0563,30.0563,0,0,1-2.3646,4.9,27.0732,27.0732,0,0,1-1.9478,2.8746l-.7783.9427.4876-1.1154c.2952-.7352.7632-1.7872,1.2238-3.1687.2219-.6944.4622-1.46.6749-2.3061.2344-.8371.4671-1.7466.6549-2.73a50.6524,50.6524,0,0,0,.8769-6.6188,63.6235,63.6235,0,0,0,.1131-7.8548,43.5768,43.5768,0,0,0-1.2552-8.6481,39.5514,39.5514,0,0,0-3.2638-8.7043,32.5625,32.5625,0,0,0-5.506-7.7415,23.8463,23.8463,0,0,0-7.5944-5.381A18.5913,18.5913,0,0,0,98.9024,75.92a19.6477,19.6477,0,0,0-7.9247,2.4256,24.924,24.924,0,0,0-6.0087,4.6386,26.043,26.043,0,0,0-3.8553,5.1587,24.336,24.336,0,0,0-1.9874,4.5257,23.024,23.024,0,0,0-.7391,3.0376c-.1077.772-.1652,1.1837-.1652,1.1837Z" transform="translate(-5.5616 -1.0841)"/><path d="M167.7654,132.5194a58.1157,58.1157,0,0,1,6.1639,6.6235c.2867,1.28-1.4271,1.2339-1.8506,1.2906s.61,2.75,1.0255,4.2882.956,3.24.1016,3.24-.7519-.6048-1.3149-1.3648-.454.884-.8756,1.8234-1.1211,3.2636-1.69,2.4186.7584-4.8621-1.2274-6.8943S167.7654,132.5194,167.7654,132.5194Z" transform="translate(-5.5616 -1.0841)" fill="#e6effc"/><path d="M169.558,138.9211l.2355.084a3.4192,3.4192,0,0,0,.6108.1307,3.9834,3.9834,0,0,0,1.902-.2634,3.0009,3.0009,0,0,0,.524-.2772,2.2733,2.2733,0,0,0,.2061-.1583c.0253-.0232.0465-.0475.0447-.0546.01-.0061-.0266-.0161-.1063.1334a.7445.7445,0,0,0-.0718.3564l.0034.04c.0176.1306.0039.0326.0074.06l-.0032-.0125-.0261-.1c-.024-.0446.0005.0582-.0144.0327a.39.39,0,0,1-.0831-.0495,3.8373,3.8373,0,0,0-.52-.3,17.0909,17.0909,0,0,1-1.7057-.9064,7.2556,7.2556,0,0,1-1.6967-1.4925,7.36,7.36,0,0,1-1.1266-1.9561c-.2426-.6467-.4218-1.19-.6228-1.7742-.3892-1.1405-.7254-2.2278-.9747-3.1824a22.8689,22.8689,0,0,1-.6619-3.298l2.71-.313a18.4314,18.4314,0,0,0,.6,2.9011c.2408.8806.5578,1.9122.9244,3.0225l.5742,1.6851a6.2789,6.2789,0,0,0,.6547,1.3624,5.1163,5.1163,0,0,0,1.0006,1.1339,15.4666,15.4666,0,0,0,1.4144,1.0045,4.4861,4.4861,0,0,1,.8787.7395,2.2171,2.2171,0,0,1,.3933.6454,2.013,2.013,0,0,1,.1157.4268l.0085.1031.001.0128.0093.0728.0022.0524a1.1973,1.1973,0,0,1-.0142.2119,1.0038,1.0038,0,0,1-.0931.2921,1.294,1.294,0,0,1-.3611.4445,2.0073,2.0073,0,0,1-.2725.1874,2.6235,2.6235,0,0,1-.4766.2188,4.6515,4.6515,0,0,1-.8726.2106,3.9356,3.9356,0,0,1-1.5287-.0526,2.5064,2.5064,0,0,1-1.0509-.5468,2.0182,2.0182,0,0,1-.4481-.5921A1.3977,1.3977,0,0,1,169.558,138.9211Z" transform="translate(-5.5616 -1.0841)" fill="#9cbddb"/><path d="M172.5436,139.2322c.12.235.2542.5108.3649.7563l.3312.7658c.2091.5146.4152,1.0315.5828,1.5658a13.9342,13.9342,0,0,1,.687,3.3745,4.9237,4.9237,0,0,1-.2463,1.9425,2.6655,2.6655,0,0,1-.6418.9839l-.1143.1053-.0144.0129-.0073.0065-.1387.0951-.0222.0115-.0112.0058a1.0165,1.0165,0,0,1-.1348.0568.9764.9764,0,0,1-.3311.0506,1.008,1.008,0,0,1-.3632-.0852,1.3828,1.3828,0,0,1-.1876-.1107,1.3034,1.3034,0,0,1-.1951-.18,2.4467,2.4467,0,0,1-.3257-.4921,14.32,14.32,0,0,1-.6525-1.5747c-.1848-.5-.3643-1.0291-.5458-1.45l1.2866-.2477v0c-.1044,1.0865-.1959,2.1864-.4125,3.3124a7.5735,7.5735,0,0,1-.52,1.7193,3.1574,3.1574,0,0,1-.5756.8632,2.2745,2.2745,0,0,1-.47.366,2.3109,2.3109,0,0,1-.5337.2075,1.389,1.389,0,0,1-.3632.0486.9976.9976,0,0,1-.2972-.0394.7957.7957,0,0,1-.5692-.7323,1.2228,1.2228,0,0,1,.02-.23,1.809,1.809,0,0,1,.0844-.2853c.12-.2983.24-.5271.349-.77a6.5247,6.5247,0,0,0,.4911-1.4612,4.9471,4.9471,0,0,0-.4257-3.095,5.2984,5.2984,0,0,1,1.112,3.15,7.3728,7.3728,0,0,1-.1965,1.7286c-.06.2758-.1351.5565-.1722.78a.3922.3922,0,0,0-.0048.1134c0,.0178.0119-.0187.0086-.0265a.3955.3955,0,0,0-.08-.24.5431.5431,0,0,0-.2583-.1937c-.0516-.02-.1071-.0174-.0947-.0226-.0193-.0018.0023-.01.04-.015a.71.71,0,0,0,.4-.2195,1.8538,1.8538,0,0,0,.3188-.497,6.3266,6.3266,0,0,0,.4116-1.408c.1926-1.0174.2815-2.095.38-3.1785v0l.1251-2.4424,1.1616,2.1947c.2865.5413.483,1.0143.71,1.5008a13.1027,13.1027,0,0,0,.68,1.34.77.77,0,0,0,.1267.1678.2046.2046,0,0,0-.0481-.0443.4128.4128,0,0,0-.1015-.0593.6176.6176,0,0,0-.2664-.0618.7092.7092,0,0,0-.2813.0454.7376.7376,0,0,0-.11.0532l.0107-.0066.0212-.0133.0027-.0017c.12-.0823-.16.11-.131.09l.0018-.0023.0035-.0045.0293-.0346a.9906.9906,0,0,0,.1954-.3663,3.2978,3.2978,0,0,0,.06-1.2278,12.4055,12.4055,0,0,0-.76-2.8575,26.7309,26.7309,0,0,0-1.2177-2.8158Z" transform="translate(-5.5616 -1.0841)" fill="#9cbddb"/><path d="M137.0046,134.537c9.6086-2.8034,21.25-.7737,22.9965-.1627,7.1134,2.4878-2.6719,22.3307-18.4417,24.12-7.4564.846-12.2316-.6674-16.6226-8.4619Z" transform="translate(-5.5616 -1.0841)" fill="#e6effc"/><path d="M137.0045,134.537s.2827-.145.8214-.3837c.2705-.1167.596-.2834.9948-.4332l1.4044-.4886a33.1574,33.1574,0,0,1,9.0721-1.41,47.3832,47.3832,0,0,1,6.1362.3035c1.0865.1256,2.1959.2908,3.3451.5255.2846.0544.5787.12.88.196.1458.0337.2984.0712.4755.1271l.2545.0773.0636.02.1718.0717.097.0451.3892.1809a4.17,4.17,0,0,1,.5448.3446,4.4093,4.4093,0,0,1,.9435.8966,6.4443,6.4443,0,0,1,1.1041,4.2844,13.8721,13.8721,0,0,1-.8712,3.9133,25.3879,25.3879,0,0,1-3.8543,6.7816,27.8142,27.8142,0,0,1-12.1428,9.0364,23.5985,23.5985,0,0,1-3.5058.9769c-.5964.0955-1.1552.1851-1.7681.2617-.5561.0457-1.0554.1164-1.6389.14a18.84,18.84,0,0,1-6.4309-.5447,13.2063,13.2063,0,0,1-4.9445-2.6461,18.7011,18.7011,0,0,1-2.86-3.1039,26.1087,26.1087,0,0,1-1.4618-2.2085l-.476-.7989,2.3762-1.3386.4371.732a23.4388,23.4388,0,0,0,1.3159,1.99,16.0232,16.0232,0,0,0,2.4265,2.6427,10.4557,10.4557,0,0,0,3.9331,2.1079,16.1736,16.1736,0,0,0,5.4788.4482c.4821-.0148,1.0547-.0917,1.5882-.1355l1.5146-.2257a20.8777,20.8777,0,0,0,3.0838-.861,25.1036,25.1036,0,0,0,10.9254-8.1526,22.7055,22.7055,0,0,0,3.4388-6.0309,11.2178,11.2178,0,0,0,.7126-3.1407,3.7332,3.7332,0,0,0-.5416-2.4458c-.117-.1107-.23-.2647-.3091-.294a.4649.4649,0,0,1-.0566-.055c-.01-.0191-.0315-.0433-.1151-.0753l-.3912-.1766-.0975-.044-.0244-.011c.0467.0188-.139-.0575.0985.0393l-.0389-.0105-.1548-.0432c-.0939-.03-.2167-.0594-.3469-.0875-.2478-.0594-.5029-.1142-.7686-.1617-1.0466-.1969-2.1043-.3562-3.1344-.4781-2.0617-.2563-4.0274-.4159-5.8432-.5077-1.8174-.1168-3.4837-.13-4.9713-.1666-1.4817.0073-2.7906.0184-3.858.0885-1.0659.0393-1.928.1127-2.5175.1664C137.3222,134.527,137.0045,134.537,137.0045,134.537Z" transform="translate(-5.5616 -1.0841)" fill="#9cbddb"/><path d="M130.66,148.7407s-.2059.07-.5637.1587l-1.4129.3469c-.2817.0871-.5873.1481-.8969.2494-.3122.09-.6359.1818-.96.2979-.3307.095-.6494.2436-.9829.357-.319.15-.6527.2725-.9619.4456-.3259.14-.62.3376-.9259.5068-.2966.1851-.5889.37-.8632.5707-.5485.3975-1.06.8064-1.4958,1.1907-.4354.3818-.8062.7281-1.07.9753s-.4363.3878-.4363.3878.0154-.213.0792-.5832a3.8624,3.8624,0,0,1,.1637-.653,4.4805,4.4805,0,0,1,.3139-.8186,7.1273,7.1273,0,0,1,3.3181-3.405,8.2276,8.2276,0,0,1,1.231-.49,7.651,7.651,0,0,1,1.2448-.2516,6.9033,6.9033,0,0,1,1.1708-.0547,7.3166,7.3166,0,0,1,1.0331.106,6.57,6.57,0,0,1,.8576.1967,3.9385,3.9385,0,0,1,.6248.2216C130.4669,148.64,130.66,148.7407,130.66,148.7407Z" transform="translate(-5.5616 -1.0841)" fill="#9cbddb"/><path d="M137.1326,137.3192a4.0124,4.0124,0,0,1,.4423.0464,4.9623,4.9623,0,0,1,1.1365.2845,5.66,5.66,0,0,1,1.5206.7807,4.9978,4.9978,0,0,1,.8036.6891,2.1818,2.1818,0,0,1,.363.4559,1.8286,1.8286,0,0,1,.2777.5471,3.037,3.037,0,0,1,.1216.6331,4.4292,4.4292,0,0,1-.0447.6785,2.8651,2.8651,0,0,1-.5486,1.2237,4.0607,4.0607,0,0,1-.8527.8018,8.9364,8.9364,0,0,1-.7924.44,4.6111,4.6111,0,0,1-1.1511.3111l-.4153.0558.296-.2171a4.8143,4.8143,0,0,0,.7263-.6362c.1208-.1585.26-.327.3814-.5205a2.7837,2.7837,0,0,0,.2792-.6622,2.5366,2.5366,0,0,0,.1022-.76,3.1719,3.1719,0,0,0-.1207-.7851,6.2026,6.2026,0,0,0-1.5446-2.462A10.1285,10.1285,0,0,0,137.1326,137.3192Z" transform="translate(-5.5616 -1.0841)" fill="#9cbddb"/><path d="M47.5384,88.7743c.2035,16.0505,3.8569,33.642,17.3726,47.9224-15.4792-5.475-21.0906-12.5229-26.0526-21.3884l17.57,16.2993c1.0917,14.66,5.3692,25.2109,15.5664,37.9329-14.5542-1.7108-22.6384-12.0839-27.4816-22.6656l17.285,19.1236c1.887,27.3875-10.2739,43.6537-24.7938,60.8576,4.4842-46.0617-29.8419-75.5-20.3932-117.2072l-9.66,12.2359c.24-36.3112,17.9109-63.19,40.3283-83.5854Z" transform="translate(-5.5616 -1.0841)" fill="#3da9ff"/><path d="M39.5969,60.6619C29.94,71.5253,24.6693,88.6534,24.266,106.6547l5.92-8.0449c-8.4081,35.7836,24.0684,71.2626,23.5187,105.1433,6.0688-11.0907,11.4014-22.2612,9.06-36.1445l6.44.2147c-8.1066-11.4863-10.5864-23.5977-13.7386-35.6345l5.5813,1.7173c-7.534-12.8982-14.8233-25.8618-13.9532-41.0011Z" transform="translate(-5.5616 -1.0841)" fill="#94d4ff"/><path d="M48.9015,88.7379l.0933,3.2586c.0663,1.0656.1052,2.1287.1925,3.1963.1033,1.0669.1665,2.1393.3021,3.2018.1431,1.0611.2327,2.1312.4187,3.185.1813,1.0541.311,2.1189.543,3.1624.22,1.0456.3979,2.1018.6744,3.1332.2615,1.035.4891,2.08.8124,3.0967.3061,1.0216.5839,2.0529.956,3.0519.3536,1.0051.6815,2.02,1.1042,2.9982.4041.985.7807,1.9823,1.2554,2.9353.4574.96.88,1.9386,1.408,2.8629.5135.9309.979,1.89,1.56,2.7814.572.8957,1.0753,1.8364,1.7095,2.6913.6222.8616,1.1846,1.7672,1.8544,2.5938.6667.828,1.3,1.6833,1.9928,2.49l2.1233,2.3824,3.0019,3.3682-4.3-1.1024-.001,0-2.1873-.5623-2.1613-.6676-2.1282-.7777-2.0869-.8919-2.0368-1.01c-.6693-.357-1.3159-.7576-1.957-1.1616l-1.8556-1.3185c-.5894-.4789-1.188-.9434-1.7645-1.4331-.5507-.522-1.1148-1.0257-1.6479-1.56-.5132-.5559-1.0465-1.0892-1.5371-1.6605-.4772-.5837-.9645-1.157-1.4026-1.7669-.4235-.6216-.8756-1.2184-1.2689-1.8546-.3788-.6459-.7944-1.2648-1.1373-1.9265-.3318-.6681-.688-1.3189-.9942-1.9935-.2914-.6825-.5947-1.3561-.8571-2.0452l-.7209-2.0867,1.0637,1.923,1.154,1.8553c.3947.6089.8353,1.1876,1.2476,1.7787.4269.5819.8938,1.1334,1.3355,1.6982.4523.5573.9586,1.07,1.4316,1.6038.4867.5231,1.0251.9969,1.5182,1.5075.5137.4916,1.0657.9427,1.5933,1.4144.5476.45,1.1219.8681,1.678,1.3024l1.74,1.2077,1.81,1.0942c.6295.3211,1.2475.6566,1.8535,1.0156l1.8954.9394,1.9486.8327,1.9939.7286,2.032.6277,2.0634.5305.0009,0-1.2982,2.2657-2.2214-2.4918c-.7242-.8444-1.39-1.739-2.0864-2.6067-.7-.8662-1.2918-1.8131-1.9421-2.7163-.6624-.8966-1.1925-1.88-1.79-2.8185-.6069-.935-1.0964-1.9366-1.633-2.9115-.5509-.9686-.9949-1.99-1.4726-2.9943-.4952-.9976-.89-2.0375-1.3114-3.0662-.44-1.0222-.7835-2.0791-1.1517-3.1272-.387-1.0426-.6773-2.1141-.9953-3.1774-.3355-1.0592-.5731-2.1425-.8442-3.2176-.2863-1.0724-.4719-2.1647-.6993-3.2488-.24-1.0826-.3749-2.1812-.5618-3.2719-.1916-1.0906-.2853-2.1923-.4323-3.288-.1393-1.0967-.2053-2.1989-.3111-3.2982-.09-1.1015-.1317-2.2144-.1992-3.321l-.0935-3.268Z" transform="translate(-5.5616 -1.0841)" fill="#2864bc"/><path d="M61.7984,165.9985c1.887,27.3875-7.6935,46.2341-24.7938,60.8576,4.4842-46.0617-29.8419-75.5-20.3932-117.2072l-9.66,12.2359c.24-36.3112,17.9109-63.19,40.3283-83.5854" transform="translate(-5.5616 -1.0841)" fill="none" stroke="#2864bc" stroke-width="2.7273"/><path d="M58.8438,133.2569c.201,1.6421.4165,3.2687.6578,4.866q.3737,2.4112.8577,4.7935l.5372,2.3635c.2108.7773.403,1.5611.6281,2.3334.2444.7655.4535,1.5439.7258,2.2991.2766.7533.5129,1.5225.8293,2.26a47.5622,47.5622,0,0,0,1.9739,4.39c.3589.7187.73,1.4316,1.138,2.1263.39.7039.7927,1.4011,1.2293,2.0805.4223.6871.8478,1.3724,1.3112,2.0365.4551.6686.8947,1.3466,1.3829,1.9954.4832.6516.941,1.3194,1.4445,1.958l1.4968,1.9246.0027.0034,2.128,2.7372-3.3513-.53-2.4025-.38c-.8-.1341-1.5826-.3669-2.3743-.5475a9.1671,9.1671,0,0,1-1.1718-.3368c-.3856-.13-.7753-.2491-1.1564-.3927a22.7534,22.7534,0,0,1-2.2451-.9562,30.7788,30.7788,0,0,1-4.2168-2.4214,21.7464,21.7464,0,0,1-1.9344-1.459c-.6448-.4862-1.2205-1.0509-1.8113-1.5951-.6052-.53-1.1345-1.134-1.687-1.7122a23.8968,23.8968,0,0,1-1.547-1.8273c-.5166-.607-.9452-1.2807-1.4155-1.9186-.4746-.6356-.8649-1.3282-1.2993-1.9872-.4322-.6611-.7817-1.3729-1.1745-2.0541-.3807-.6889-.7115-1.4043-1.0679-2.1024-.6751-1.4178-1.2592-2.8728-1.8186-4.33l1.1633,2.03,1.23,1.981c.4333.6441.8395,1.3029,1.292,1.93.46.6216.8927,1.26,1.3718,1.8629.4857.5972.9265,1.2273,1.4451,1.7932.5143.5683.9857,1.1718,1.5373,1.701.5417.5372,1.0518,1.1024,1.6216,1.6044.5613.51,1.0975,1.0462,1.7012,1.5023a22.5416,22.5416,0,0,0,1.7951,1.3719,21.9546,21.9546,0,0,0,1.8826,1.231,19.7211,19.7211,0,0,0,1.9554,1.0938,19.4947,19.4947,0,0,0,2.03.9334,20.2783,20.2783,0,0,0,2.0939.7687c.7174.1978,1.3964.5154,2.1316.6548.7267.1631,1.4407.38,2.177.5024l2.2127.3508-1.2231,2.2071-.0027-.0035-1.5389-1.9784c-.5168-.6561-.9926-1.3481-1.4907-2.0206-.5027-.6691-.9611-1.3741-1.4332-2.068-.48-.6884-.9241-1.403-1.365-2.12-.4543-.708-.8762-1.4375-1.2854-2.1756-.4266-.7273-.8167-1.4761-1.1946-2.2322a50.2847,50.2847,0,0,1-2.0791-4.6248c-.3325-.7787-.583-1.587-.8735-2.381-.286-.7958-.5065-1.6108-.7624-2.4155-.236-.81-.4372-1.6274-.6569-2.4408l-.5587-2.4579q-.5016-2.466-.8842-4.94c-.2509-1.6624-.4677-3.3036-.6673-4.9336Z" transform="translate(-5.5616 -1.0841)" fill="#2864bc"/><path d="M65.1082,28.9669c10.3611-16.5011,32.4746-26.9128,49.9053-26.47l-8.253,13.0255-9.1516,2.42c42.43-14.3716,81.2031-.4275,88.7119,49.6982-11.3121-13.5466-25.7-24.2338-43.2432-23.7137L72.2843,37.7418Z" transform="translate(-5.5616 -1.0841)" fill="#3da9ff"/><path d="M63.984,28.1952l2.08-3.0264,2.41-2.9782,2.5815-2.7454,2.7579-2.5583,2.9115-2.3735c.9985-.7533,2.0314-1.46,3.046-2.191,1.0333-.7033,2.1108-1.3384,3.1647-2.01,1.0646-.654,2.1815-1.2171,3.27-1.8291C87.3,7.879,88.4508,7.3884,89.5708,6.8364s2.3016-.97,3.45-1.4608c1.1467-.4973,2.3528-.8413,3.5266-1.2684,1.1719-.4364,2.3988-.7064,3.5959-1.0667,1.1963-.3672,2.44-.5629,3.6575-.8515,1.22-.2862,2.4749-.408,3.7108-.6184,1.2406-.1887,2.5031-.2379,3.7538-.3618,1.257-.0687,2.5223-.0485,3.783-.0747l2.4076-.05-1.2739,2.1165L112.158,9.8857l-2.0118,3.3425-.503.8356c-.0805.1413-.175.2741-.2441.4223a.52.52,0,0,1-.1133.2164,2.6506,2.6506,0,0,1-.24.14c-.3347.178-.6422.3724-.9993.5369-.3391.1754-.7067.3335-1.08.4881l-1.1683-.7032,8.0474-13.37L114.9787,3.86c-1.1861.0282-2.3723.0066-3.5583.0712-1.1844.12-2.3751.1624-3.5546.3431-1.1761.2027-2.3664.3136-3.5314.5888-1.163.2777-2.3475.46-3.4934.8134-1.1459.3467-2.3192.6008-3.4432,1.0215-1.1254.4113-2.282.7375-3.3826,1.2166-1.1017.4725-2.2361.87-3.3116,1.4023s-2.1815,1-3.2306,1.5811c-1.0441.5886-2.1179,1.1276-3.1385,1.7553-1.0095.6451-2.0444,1.2531-3.0341,1.9268-.97.7011-1.96,1.3769-2.9156,2.097l-2.7807,2.2667L72.9774,21.38l-2.45,2.6049-2.2151,2.7273-2.08,3.026Z" transform="translate(-5.5616 -1.0841)" fill="#2864bc"/><path d="M143.0911,42.5641l3.1937.0312,3.3389.2885,3.2558.5412,3.2.7919c1.0427.342,2.092.6675,3.1283,1.0263,1.014.4146,2.04.8046,3.0431,1.2422.9823.48,1.9814.9309,2.9487,1.4383.9488.5393,1.9183,1.0465,2.8489,1.6142.9147.5915,1.8524,1.1514,2.747,1.7706.8807.6375,1.7851,1.246,2.6454,1.9087.8477.6779,1.7176,1.3309,2.5461,2.03.8158.7133,1.6509,1.4067,2.45,2.1371.7855.7443,1.5861,1.4742,2.3584,2.231l2.2712,2.3136,2.1887,2.3864,2.111,2.4509.0007.0008-2.3952,1.076c-.4191-2.42-.8047-4.8479-1.3837-7.2321-.1367-.5976-.2567-1.2-.407-1.7938l-.4868-1.7717c-.3217-1.1821-.6338-2.3673-1.0436-3.52a72.5656,72.5656,0,0,0-2.58-6.8581c-.5223-1.1015-.9917-2.2308-1.5558-3.31-.5846-1.0679-1.1223-2.1639-1.7434-3.21-.649-1.028-1.2479-2.09-1.936-3.0916-.7147-.9816-1.3679-2.0109-2.1306-2.9549a51.8937,51.8937,0,0,0-4.8372-5.4263c-.8774-.8358-1.74-1.6884-2.6941-2.437l-1.3964-1.1625L161.31,24.0045c-.495-.3485-.97-.7265-1.4809-1.0515L158.29,21.987c-1.0067-.6764-2.1-1.2065-3.16-1.7936-1.0559-.5961-2.1912-1.0368-3.2821-1.5644-1.1124-.4821-2.2592-.8853-3.3865-1.3334-1.1593-.3617-2.31-.7526-3.4783-1.0855-1.1827-.282-2.349-.6315-3.5446-.8606a62.9862,62.9862,0,0,0-7.2247-1.08c-1.2162-.0966-2.43-.2256-3.6528-.237-1.2208-.04-2.4412-.0938-3.6644-.0479-1.2233.0059-2.444.054-3.6679.1071-1.224.0415-2.45.0781-3.6717.2008-2.4492.17-4.8895.4879-7.3319.8243-2.44.353-4.8846.7466-7.3142,1.2444-2.4384.4679-4.86,1.0315-7.3024,1.5821l3.4649-1.4421c1.1678-.45,2.3542-.85,3.5353-1.2773,2.387-.76,4.7919-1.5107,7.25-2.0569,1.2189-.3227,2.461-.5347,3.7009-.7636,1.2364-.2542,2.4891-.4083,3.741-.5777,1.2494-.1923,2.5094-.2985,3.7706-.4086,1.2588-.1525,2.5281-.1309,3.7944-.1595,1.2664-.0464,2.5342.0078,3.8018.05,1.2686.0131,2.5329.1453,3.7983.2465a65.7278,65.7278,0,0,1,7.5386,1.1277c1.2494.24,2.4739.6042,3.7117.9016,1.225.3487,2.4343.7581,3.65,1.14,1.1866.469,2.3911.8947,3.5621,1.402,1.1506.5534,2.343,1.0211,3.4579,1.6478,1.1184.6176,2.2687,1.18,3.3329,1.8916l1.6235,1.02c.5388.3436,1.0416.7408,1.5638,1.109l1.5483,1.1313,1.4745,1.2259c1.0057.7921,1.9171,1.6889,2.842,2.5709a54.621,54.621,0,0,1,5.0925,5.7128c.8009.9935,1.488,2.07,2.2364,3.1017.7211,1.05,1.3492,2.16,2.0272,3.2372.6493,1.0943,1.2119,2.2359,1.8209,3.3521.5881,1.1269,1.0779,2.3,1.6207,3.4478a75.3075,75.3075,0,0,1,2.6774,7.1147c.4235,1.1953.7466,2.4181,1.0788,3.6384l.502,1.8295c.155.6125.279,1.2319.42,1.8475.5958,2.4579.9932,4.95,1.4222,7.436l.832,4.8216-3.2273-3.7456-.0007-.0008-2.0577-2.389-2.1287-2.321L178.8836,61.56c-.7482-.7331-1.5222-1.4377-2.2816-2.1584-.7722-.7058-1.5768-1.3726-2.3632-2.0613-.798-.6739-1.6332-1.2992-2.4475-1.9517-.8259-.6365-1.6909-1.2165-2.5339-1.8283-.8555-.5925-1.749-1.1237-2.6211-1.69-.8864-.5409-1.8066-1.02-2.7076-1.5343-.9175-.481-1.8622-.905-2.7914-1.3617-.9476-.4127-1.9143-.7785-2.87-1.1717l-2.94-.9649-3-.7425-3.045-.5062-3.0241-.2672-3.1937-.0312Z" transform="translate(-5.5616 -1.0841)" fill="#2864bc"/><path d="M127.2336,53.99c-.1835,11.949,13.077,12.9184,14.8047,10.7562,8.6713-10.85,19.23-50.2,15.1952-52.0193-3.2995-1.4873-18.06,17.77-27.8468,33.4228" transform="translate(-5.5616 -1.0841)" fill="#e6effc"/><path d="M127.2336,53.99s.0913.4861.304,1.3422a14.0081,14.0081,0,0,0,1.3148,3.4559,10.3988,10.3988,0,0,0,3.7113,3.8737,12.2426,12.2426,0,0,0,6.6732,1.7,4.7049,4.7049,0,0,0,1.6255-.3394,1.0817,1.0817,0,0,0,.1652-.0992c.03-.0322-.0483.061.0292-.0328l.1736-.22c.204-.2628.4225-.562.6292-.8577a35.5006,35.5006,0,0,0,2.3444-3.9445,88.6929,88.6929,0,0,0,4.0475-9.2528,170.958,170.958,0,0,0,6.5155-21.0993,78.0756,78.0756,0,0,0,1.9164-10.9328,17.5831,17.5831,0,0,0,.0415-2.576,4.4313,4.4313,0,0,0-.1741-1.0205c-.036-.1192-.09-.187-.0529-.1373a.5231.5231,0,0,0,.1653.1168c-.0052-.0021.226.09.106.0431l-.0407-.0136-.0814-.0273a.3231.3231,0,0,0,.1476.0405,3.2784,3.2784,0,0,0-.541.2244,7.737,7.737,0,0,0-.9609.6266,23.2834,23.2834,0,0,0-1.9143,1.6437,83.5,83.5,0,0,0-6.7532,7.4739c-2.0558,2.4949-3.93,4.9221-5.6284,7.1867-3.39,4.536-6.0885,8.4176-7.884,11.192-1.81,2.7654-2.8012,4.3716-2.8012,4.3716l-1.85-1.1566s1.001-1.6226,2.8266-4.4113c1.8456-2.7753,4.4479-6.7614,7.7783-11.41,1.6666-2.3233,3.5084-4.8164,5.5447-7.3973a85.4,85.4,0,0,1,6.8923-7.8168,22.8382,22.8382,0,0,1,2.1583-1.862,10.3476,10.3476,0,0,1,1.3168-.8516,3.8121,3.8121,0,0,1,2.0535-.53,2.94,2.94,0,0,1,.4866.0923l.0814.0273.0407.0137c-.0933-.0366.1661.0612.1857.0744a2.215,2.215,0,0,1,.7059.5338,3.0651,3.0651,0,0,1,.5975,1.0676,6.9468,6.9468,0,0,1,.3139,1.697,20.1269,20.1269,0,0,1-.0416,2.9951,80.4661,80.4661,0,0,1-1.9813,11.35c-.8817,3.7278-1.9058,7.4113-3.019,11.0056-1.1205,3.5916-2.3107,7.1017-3.6316,10.4428a97.417,97.417,0,0,1-4.2791,9.4765,44.6863,44.6863,0,0,1-2.5025,4.2171c-.23.3345-.4564.6522-.7117.9869l-.174.2243a2.74,2.74,0,0,1-.3519.3778,3.2588,3.2588,0,0,1-.7711.4992,7.0761,7.0761,0,0,1-2.6094.557,13.21,13.21,0,0,1-8.0574-2.3784,9.9366,9.9366,0,0,1-4.3-9.18,8.7833,8.7833,0,0,1,.1486-1.0335Z" transform="translate(-5.5616 -1.0841)" fill="#9cbddb"/><path d="M147.98,19.807c-.4425,5.1172,2.991,10.5575,7.8484,11.0172" transform="translate(-5.5616 -1.0841)" fill="none" stroke="#9cbddb" stroke-width="2.0457"/><path d="M141.81,27.9733c-.4425,5.1171,3.3312,12.8242,10.215,14.3231" transform="translate(-5.5616 -1.0841)" fill="none" stroke="#9cbddb" stroke-width="2.0457"/><path d="M70.0817,44.3918c3.7036,11.9025,15.65,27.0042,33.2158,34.4692a36.3482,36.3482,0,0,1-5.8493-26.9487L96.4036,63.82c35.5784,6.08,63.0472,22.8379,82.5172,56.4041,2.6314-59.3573-25.1592-85.0231-59.7466-88.3665Z" transform="translate(-5.5616 -1.0841)" fill="#3da9ff"/><path d="M74.0871,48.7535c.3046.8538.58,1.7615.9084,2.571.3447.8008.6285,1.6115,1.04,2.4033.3776.8.7654,1.5941,1.2172,2.3552.4148.7816.89,1.5279,1.3775,2.2664.4585.7575,1.0121,1.4515,1.53,2.1693.5085.7256,1.12,1.3741,1.6734,2.0659.5714.6782,1.2062,1.3031,1.8052,1.9583.6234.6331,1.2849,1.2307,1.9246,1.8487.6647.5926,1.3554,1.1582,2.0311,1.7395.6959.5585,1.4178,1.0869,2.1249,1.6325.718.5322,1.4725,1.0178,2.2065,1.53.7327.5143,1.52.9518,2.2769,1.4319.7539.486,1.5533.901,2.3371,1.34q1.17.67,2.3885,1.2557c.8107.3925,1.6005.8251,2.4322,1.1778l2.4694,1.1069-1.6693,2.0092c-.32-.5156-.6656-1.0154-.9735-1.539-.2908-.5347-.5986-1.0582-.8734-1.6013-.2669-.5474-.5614-1.0789-.8037-1.6384-.2458-.5572-.5135-1.1029-.7286-1.6736a31.991,31.991,0,0,1-1.2036-3.4439c-.1743-.5825-.34-1.167-.4639-1.7626q-.2131-.886-.3534-1.7857a25.8792,25.8792,0,0,1-.4052-3.604q-.0645-.9025-.0525-1.8057c-.0092-.6012-.0034-1.201.0353-1.8.0344-.599.0688-1.1959.1477-1.79.0734-.5937.1185-1.1873.2281-1.7743.1821-1.1775.4429-2.338.7333-3.4845l-.0656,1.7711c-.028.5874.0038,1.1786-.0113,1.763-.02.5847.0254,1.1709.0419,1.7535.01.5829.0681,1.1639.1193,1.7428.031.58.0945,1.1559.1722,1.73q.0915.8628.2552,1.7133c.0909.5692.202,1.1337.3386,1.6927.1108.5633.2405,1.1216.3975,1.6732q.206.8338.4811,1.6469.2439.8213.5435,1.6233c.38,1.0749.8267,2.1256,1.3083,3.1576.2267.5221.5059,1.0213.7613,1.53.2516.51.556.9957.83,1.4942.5831.98,1.1985,1.94,1.813,2.9031l2.4639,3.8613-4.1333-1.8521-2.547-1.1412c-.856-.364-1.6765-.8113-2.5145-1.2176q-1.26-.6051-2.4761-1.3018c-.8145-.4563-1.6422-.8876-2.43-1.394-.79-.5-1.6072-.9564-2.3754-1.4942-.7693-.5352-1.5565-1.0435-2.31-1.6019-.7441-.5727-1.5012-1.128-2.2336-1.7163-.7142-.6124-1.4414-1.2093-2.1436-1.8359-.6791-.6536-1.3776-1.2868-2.0393-1.9588-.6386-.6955-1.31-1.36-1.92-2.0826-.5927-.7368-1.24-1.4293-1.7856-2.2042-.5552-.7668-1.1437-1.51-1.6372-2.3207-.5224-.791-1.03-1.5911-1.4763-2.4289-.4832-.8168-.9-1.6683-1.3054-2.5261-.4336-.8365-.7652-1.7569-1.1392-2.641-.357-.8893-.6116-1.7393-.9225-2.6109Z" transform="translate(-5.5616 -1.0841)" fill="#2864bc"/><path d="M178.7119,118.3439c-7.8667-27.2429-28.161-58.14-48.048-64.238l2.5068,10.7586c-8.6671-10.42-19.166-19.0758-36.036-20.89l4.4914,6.8938C91.49,45.2935,80.0847,47.4384,70.604,51.599L69.1416,39.2736C136.3939,14.6968,183.9783,49.8849,178.7119,118.3439Z" transform="translate(-5.5616 -1.0841)" fill="#94d4ff"/><path d="M97.6085,62.6461l6.3048,1.2146,6.3317,1.5016c2.089.5682,4.1573,1.1962,6.2368,1.7922,2.056.6727,4.0936,1.4071,6.141,2.1086l6.0211,2.4436c1.9557.9341,3.9222,1.8473,5.8661,2.8054,1.8932,1.0569,3.8186,2.0588,5.6842,3.163,1.8219,1.1763,3.7,2.2687,5.4743,3.5162l2.6419,1.9c.88.6343,1.7735,1.2507,2.5969,1.9582l2.52,2.0575,1.26,1.0291c.4131.3509.801.73,1.2027,1.0942l2.39,2.2058,1.1947,1.1032,1.1282,1.17,2.2534,2.3428,1.1259,1.1722,1.0568,1.2334,2.1129,2.4673,1.0562,1.2339.99,1.2858,1.9711,2.5788c.6576.8592,1.3264,1.7106,1.9173,2.6163,1.2066,1.7932,2.4713,3.55,3.629,5.374L180.1,119.54l-2.5417.6238v-.0043c.0485-2.4693.197-4.9395.1508-7.4079-.0107-1.2341.0084-2.4695-.0264-3.7025l-.1349-3.698c-.027-1.234-.16-2.46-.2341-3.69-.0786-1.23-.1758-2.4587-.3259-3.6809-.1453-1.2223-.24-2.4524-.4263-3.6684l-.5406-3.6509c-.4437-2.418-.8909-4.8358-1.4888-7.2175-.2565-1.202-.6117-2.3761-.94-3.5578-.1691-.5893-.3235-1.1834-.5045-1.7688l-.5773-1.7445-.5767-1.7447-.6557-1.7144-.6583-1.7134c-.2291-.5669-.49-1.12-.7325-1.6808l-.7409-1.6771c-.2551-.555-.5446-1.0928-.8149-1.64l-.8241-1.6356-.902-1.5918-.9091-1.5876-.9907-1.5361c-.6387-1.0394-1.3541-2.0246-2.075-3.0059a59.2163,59.2163,0,0,0-4.67-5.6024c-.8387-.8793-1.7224-1.7154-2.59-2.5654-.9305-.7814-1.8024-1.6315-2.7446-2.4-.95-.7575-1.8694-1.559-2.8747-2.2468l-1.48-1.07-1.5356-.991a64.922,64.922,0,0,0-6.3905-3.5766c-2.2126-1.0453-4.4709-2.012-6.7895-2.8393-1.1583-.4172-2.3235-.8211-3.5122-1.1536-1.179-.3686-2.3717-.6921-3.5724-.9979-2.4-.62-4.84-1.09-7.2966-1.5435a64.0961,64.0961,0,0,1,7.4744.6467c1.24.1867,2.4869.3624,3.7108.6521,1.236.24,2.4549.5531,3.6724.8825,1.2275.2965,2.42.7134,3.6246,1.0977,1.1948.4112,2.3689.8855,3.55,1.3434a57.4012,57.4012,0,0,1,6.7917,3.4286l1.6363.98,1.5839,1.0647c1.0747.6854,2.065,1.4878,3.087,2.2494,1.0214.7632,1.955,1.6351,2.9167,2.4709.9112.89,1.8373,1.7679,2.7161,2.6895a61.9568,61.9568,0,0,1,4.8887,5.8636c.7535,1.0257,1.5,2.056,2.1671,3.139l1.0328,1.6031.9476,1.6529.9385,1.6577.8571,1.6994c.281.5686.5812,1.1286.8461,1.7044l.769,1.7389c.252.5813.5215,1.1559.7589,1.7428l.6818,1.7727.6777,1.7741L175.1,75.513l.5955,1.8014c.1866.6038.3461,1.2151.52,1.8224.338,1.2172.7029,2.4283.9672,3.6626.6144,2.45,1.0742,4.93,1.5283,7.41l.5538,3.7381c.19,1.2454.2878,2.5006.436,3.75.1529,1.25.2524,2.5035.3328,3.7583.0763,1.2546.2106,2.5074.2387,3.7635l.1374,3.7667c.0353,1.2555.0164,2.5109.0271,3.7664.0461,2.5123-.1033,5.0178-.1535,7.5267v.0044l-.1325,4.5576-2.4094-3.9337-3.3225-5.4246c-1.1356-1.7892-2.375-3.5086-3.5567-5.2668-.5789-.8886-1.2334-1.7205-1.8768-2.5608l-1.9279-2.5225-.9678-1.258-1.032-1.2045-2.0634-2.41-1.0314-1.205-1.0986-1.1425-2.1976-2.2847-1.1-1.1416-1.1644-1.0741-2.3282-2.1488c-.3912-.3545-.7687-.7248-1.171-1.0664l-1.227-1.0011-2.4532-2.003c-.8009-.69-1.6713-1.2884-2.5276-1.9055l-2.5707-1.8492c-1.7261-1.2147-3.5558-2.2757-5.3278-3.4224-1.8163-1.0749-3.6924-2.0494-5.5351-3.08-1.8948-.9329-3.8123-1.8226-5.7178-2.7346l-5.8772-2.385c-2.0021-.6845-3.9927-1.4027-6.0036-2.0612-2.0353-.5822-4.0641-1.1987-6.1043-1.7541l-6.1624-1.4633-6.3047-1.2146Z" transform="translate(-5.5616 -1.0841)" fill="#2864bc"/><path d="M74.2851,58.5212C76.355,24.9645,58.14,11.3547,53.1634,17.9654,35.92,40.8721,25.76,75.591,51.2811,95.5909,51.2811,95.5909,58.8616,71.0532,74.2851,58.5212Z" transform="translate(-5.5616 -1.0841)" fill="#e6effc"/><path d="M53.0855,74.1146c-1.4271-11.1812-.9588-34.96,2.943-40.516s7.0183-5.3643,8.4891,4.2565c.5322,3.8,1.7895,13.2835,1.7867,19.235C61.7475,58.7886,55.4988,68.0171,53.0855,74.1146Z" transform="translate(-5.5616 -1.0841)" fill="#c3cfe0"/><path d="M51.397,95.4585s-.49-.2534-1.3765-.7694a31.3992,31.3992,0,0,1-8.647-7.5417,34.0289,34.0289,0,0,1-4.5279-7.9693A42.2361,42.2361,0,0,1,34.0595,68.713a52.5857,52.5857,0,0,1-.1287-12.0253A71.6154,71.6154,0,0,1,41.36,31.8987,53.4679,53.4679,0,0,1,48.6535,20.8a23.3784,23.3784,0,0,1,2.4213-2.3754,9.6059,9.6059,0,0,1,3.1609-1.8719l.2474-.0776.2718-.0572.3846-.0757a6.2821,6.2821,0,0,1,.9056-.1148A5.2637,5.2637,0,0,1,57,16.2067a5.86,5.86,0,0,1,.9113.0754A9.7717,9.7717,0,0,1,61.27,17.3829,16.1125,16.1125,0,0,1,66.2,21.63a29.4225,29.4225,0,0,1,3.2181,5.0814A48.771,48.771,0,0,1,73.07,36.8641a70.8244,70.8244,0,0,1,1.65,8.8869,45.7324,45.7324,0,0,1,.2706,6.9363,35.92,35.92,0,0,1-.41,4.4542c-.1588,1.0237-.2838,1.5664-.2838,1.5664s-.1422-.5431-.3331-1.5552c-.1873-1.0121-.4594-2.4912-.7438-4.3613l-1.01-6.71a77.3131,77.3131,0,0,0-1.6677-8.57,47.4482,47.4482,0,0,0-3.5394-9.5724,26.75,26.75,0,0,0-2.9209-4.6009,13.5636,13.5636,0,0,0-4.0813-3.541,7.05,7.05,0,0,0-2.4555-.8122,3.5417,3.5417,0,0,0-.6347-.0523,2.8868,2.8868,0,0,0-.6016.0095,3.2,3.2,0,0,0-.6444.0765l-.3846.0757-.0963.019-.0482.0095c.02-.0044-.1119.0232.0317-.0075l-.1263.0432a7.1291,7.1291,0,0,0-2.2232,1.3634,20.711,20.711,0,0,0-2.13,2.0945,50.8671,50.8671,0,0,0-6.8964,10.5171,68.9729,68.9729,0,0,0-7.1489,23.8256A50.4621,50.4621,0,0,0,36.74,68.363a39.5829,39.5829,0,0,0,2.5132,9.8344,42.3413,42.3413,0,0,0,4.0535,7.5549A50.81,50.81,0,0,0,47.3309,91.1c1.2277,1.4223,2.2457,2.4933,2.9609,3.2342C51.0234,95.0531,51.397,95.4585,51.397,95.4585Z" transform="translate(-5.5616 -1.0841)" fill="#9cbddb"/><path d="M53.0971,74.1464l-.6865-2.3543c-.1944-.7545-.4293-1.6813-.65-2.7562-.174-1.0765-.419-2.29-.5745-3.6279-.1992-1.3356-.2761-2.7931-.3677-4.3362-.0533-1.5426-.1262-3.1755-.0565-4.8614.0172-.8439.077-1.6991.1393-2.5651.0491-.8672.1289-1.7423.2268-2.623q.1208-1.3241.3171-2.6572.1672-1.3356.4083-2.6677c.1422-.89.3048-1.7772.5131-2.6516.1827-.88.4011-1.748.6281-2.6072.4384-1.7218.9538-3.3972,1.5084-5.0016.2555-.8086.5886-1.58.8716-2.347a9.8452,9.8452,0,0,1,1.1945-2.3146,5.346,5.346,0,0,1,2.0543-1.7933,3.1016,3.1016,0,0,1,2.87.1482,4.3774,4.3774,0,0,1,1.5338,1.7181,9.0426,9.0426,0,0,1,.6937,1.72A17.8323,17.8323,0,0,1,64.3,35.3912c.1047.7822.1541,1.3962.1815,1.8151l.043.641-.1555-.6212c-.1-.4044-.2571-.9965-.4941-1.7336a17.2954,17.2954,0,0,0-1.0217-2.5657,5.1426,5.1426,0,0,0-2.0782-2.425,1.4672,1.4672,0,0,0-1.3516.113,4.09,4.09,0,0,0-1.2938,1.2686,7.7916,7.7916,0,0,0-.9536,1.92c-.26.7457-.5691,1.4893-.8034,2.2778-.51,1.56-.9838,3.1918-1.382,4.8718-.2069.838-.4053,1.6849-.5688,2.5439-.1763.8557-.3624,1.7126-.5121,2.5777q-.2564,1.2913-.44,2.5921-.2126,1.2946-.3509,2.5856c-.11.8575-.2014,1.71-.2626,2.5549-.0745.8439-.1467,1.6777-.1763,2.5-.11,1.6424-.1981,3.2324-.2335,4.7435q-.007,1.1336-.0134,2.202c.0164.7106.0415,1.397.0366,2.0591-.0016,1.3237.0995,2.5326.1459,3.6095.1164,1.0639.1378,2.0082.22,2.7834C53.0276,73.2536,53.0971,74.1464,53.0971,74.1464Z" transform="translate(-5.5616 -1.0841)" fill="#9cbddb"/></g></svg>
