<svg xmlns="http://www.w3.org/2000/svg" xmlns:xlink="http://www.w3.org/1999/xlink" viewBox="0 0 200 200"><defs><mask id="a" x="0" y="0" width="200" height="200" maskUnits="userSpaceOnUse"><rect width="200" height="200" rx="24" ry="24" fill="#fff"/></mask><mask id="b" x="1.636" y="3.273" width="196.727" height="226.326" maskUnits="userSpaceOnUse"><rect x="1.636" y="3.273" width="196.727" height="196.727" fill="#fff"/></mask><mask id="c" x="140.708" y="75.892" width="30.786" height="58.775" maskUnits="userSpaceOnUse"><path d="M157.848,75.9c-7.252-.438-12.208,10.682-13.217,27.366s4.56,30.947,11.812,31.386a5.921,5.921,0,0,0,1.4-.085,31.268,31.268,0,0,0,3.973-4.816,32.348,32.348,0,0,0,2.379-4.234,36.973,36.973,0,0,0,1.873-4.819,57.306,57.306,0,0,0,2.21-11.032,94.068,94.068,0,0,0,.459-12.348A53.648,53.648,0,0,0,166.723,84.4q-.459-1.643-1.035-3.276C163.373,77.948,160.607,76.072,157.848,75.9Z" fill="#fff"/></mask><mask id="d" x="138.81" y="83.003" width="26.211" height="48.668" maskUnits="userSpaceOnUse"><path d="M162.406,107.771c.093,13.437-5.113,24.136-11.628,23.9S138.9,120.34,138.811,106.9s5.113-24.136,11.628-23.9S162.312,94.334,162.406,107.771Z" fill="#fff"/></mask><linearGradient id="e" x1="197.712" y1="188.815" x2="199.887" y2="144.602" gradientTransform="translate(-55.935 -52.094) rotate(-2.746)" gradientUnits="userSpaceOnUse"><stop offset="0" stop-color="#f6df58"/><stop offset="0.7" stop-color="#ff8d38"/></linearGradient><mask id="f" x="74.087" y="76.231" width="52.428" height="68.097" maskUnits="userSpaceOnUse"><path d="M126.414,108.443c-1.243-18.7-13.585-33.1-27.565-32.17a19.725,19.725,0,0,0-5.894,1.357,18.137,18.137,0,0,0-2.009.393C77.789,81.391,70.89,98.837,75.536,116.99s19.079,30.139,32.236,26.771c6.035-1.545,10.752-6.053,13.643-12.231A40.83,40.83,0,0,0,126.414,108.443Z" fill="#fff"/></mask><mask id="g" x="78.982" y="82.239" width="43.509" height="55.913" maskUnits="userSpaceOnUse"><path d="M122.491,110.308c-.122,15.441-9.015,27.906-19.862,27.844s-19.54-12.629-19.417-28.068,9.015-27.906,19.862-27.844S122.614,94.868,122.491,110.308Z" fill="#fff"/></mask><linearGradient id="h" x1="239.321" y1="364.486" x2="250.437" y2="312.365" gradientTransform="matrix(0.976, -0.218, 0.218, 0.976, -209.979, -167.433)" xlink:href="#e"/></defs><title>logo</title><rect width="200" height="200" rx="24" ry="24" fill="#fff"/><g mask="url(#a)"><g opacity="0.5"><line x1="132" y1="200" x2="132" fill="none" stroke="#a5a5a5" stroke-width="2"/><line x1="100" y1="200" x2="100" fill="none" stroke="#a5a5a5" stroke-width="2"/><line x1="68" y1="200" x2="68" fill="none" stroke="#a5a5a5" stroke-width="2"/><line x1="36" y1="200" x2="36" fill="none" stroke="#a5a5a5" stroke-width="2"/><line x1="164" y1="200" x2="164" fill="none" stroke="#a5a5a5" stroke-width="2"/><line y1="132" x2="200" y2="132" fill="none" stroke="#a5a5a5" stroke-width="2"/><line y1="100" x2="200" y2="100" fill="none" stroke="#a5a5a5" stroke-width="2"/><line y1="68" x2="200" y2="68" fill="none" stroke="#a5a5a5" stroke-width="2"/><line y1="36" x2="200" y2="36" fill="none" stroke="#a5a5a5" stroke-width="2"/><line y1="164" x2="200" y2="164" fill="none" stroke="#a5a5a5" stroke-width="2"/></g><g mask="url(#b)"><path d="M125.762,143.318a4.031,4.031,0,0,1-.954-.374,5.216,5.216,0,0,1-.845-.565,2.591,2.591,0,0,1-.739-.823c-.2-.337-.507-.674-.782-1.047s-.622-.727-.952-1.112a19.844,19.844,0,0,0-2.33-2.148c-.416-.344-.857-.657-1.3-.96s-.885-.581-1.33-.83c-.875-.526-1.762-.9-2.49-1.3-.36-.215-.73-.324-1.021-.522a3.207,3.207,0,0,1-.667-.758,3.824,3.824,0,0,1-.464-.989,3.955,3.955,0,0,1,1.011-.407,2.909,2.909,0,0,1,1.024-.086,11.073,11.073,0,0,1,1.155.392,17.192,17.192,0,0,1,2.79,1.346c.5.279,1,.6,1.5.933s1,.7,1.469,1.087c.494.365.922.809,1.374,1.208.418.435.846.848,1.217,1.286s.745.849,1.043,1.281.616.8.863,1.209a3.356,3.356,0,0,1,.552,1.153,4.35,4.35,0,0,1,.051,1.019A4.035,4.035,0,0,1,125.762,143.318Z" fill="#2864bc"/><path d="M105.6,153.51" fill="none"/><path d="M119.82,136.109c6.755,2.072,10.5,5.33,13.157,14.628,4.336-7.235,2.137-20.085-16.323-39.919-9.871-10.605-15.84-15.808-14.543-35.053" fill="none" stroke="#2864bc" stroke-miterlimit="20" stroke-width="2.683"/><path d="M46.911,203.947c.807-5.543,1.319-11.217,2.074-16.954l8.37-27.865,38.905-1.243,10.316,8.556c-2.106,4.243-2.832,13.1-3.7,23.263-.359,4.211-.483,8.81-.46,13.547" fill="#e6effc" stroke="#9cbddb" stroke-width="2.683"/><path d="M49.576,184.333c2.273-18.889,3.653-36.7-3.937-77.531-6.3-33.87,23.726-64.094,58.1-66.38s65.929,23.653,66.38,58.1c.452,34.589-14.205,41.614-33.57,48.615" fill="#e6effc"/><path d="M47.63,186.922l.45-3.83c.274-2.488.689-6.141,1.044-10.794s.61-10.312.534-16.809-.5-13.826-1.354-21.791-2.128-16.565-3.8-25.609a59.124,59.124,0,0,1-.937-7.1,49,49,0,0,1,.065-7.372A51.677,51.677,0,0,1,47.1,78.86a61.152,61.152,0,0,1,18.89-25.042A68.531,68.531,0,0,1,95.34,40.179a66.767,66.767,0,0,1,8.139-1.082c1.422-.058,2.678-.146,4.073-.142s2.767,0,4.122.112A63.073,63.073,0,0,1,127.647,42a65.048,65.048,0,0,1,26.774,16.335A59.051,59.051,0,0,1,169.29,83.667a57.6,57.6,0,0,1,2.122,13.56,95.056,95.056,0,0,1-.405,12.732c-.817,8.126-3.118,15.664-7.125,21.217a30.7,30.7,0,0,1-6.593,6.787,42.876,42.876,0,0,1-6.777,4.145,74.409,74.409,0,0,1-10.246,3.953c-2.416.733-3.717,1.077-3.717,1.077l3.519-1.6c1.146-.518,2.56-1.155,4.188-1.96,1.637-.782,3.5-1.718,5.491-2.9A33.2,33.2,0,0,0,166.064,120.7a56.986,56.986,0,0,0,2.214-11.03,92.383,92.383,0,0,0,.445-12.346A54.25,54.25,0,0,0,166.709,84.4a56.364,56.364,0,0,0-14.2-24.178,62.367,62.367,0,0,0-25.669-15.658,60.393,60.393,0,0,0-15.319-2.817c-1.311-.106-2.6-.092-3.9-.108s-2.7.088-3.958.137a64.1,64.1,0,0,0-7.805,1.037,65.853,65.853,0,0,0-28.2,13.1A58.474,58.474,0,0,0,49.595,79.844a48.991,48.991,0,0,0-3.289,13.993,46.322,46.322,0,0,0-.062,6.979,56.319,56.319,0,0,0,.9,6.789c1.681,9.1,2.966,17.763,3.828,25.806s1.3,15.462,1.37,22.047-.193,12.329-.541,17.04-.778,8.393-1.055,10.905l-.45,3.832Z" fill="#9cbddb"/><path d="M164.844,123.036c-.7,11.418,6.037,13.938,5.946,17.987-.373,16.494-34.913,32.628-78.067,23.482" fill="#e6effc"/><path d="M167.376,124.937l-.09.283a6.407,6.407,0,0,0-.167.683,2.87,2.87,0,0,0-.009.989l.062.351.1.457c.068.309.132.662.216.987.306,1.335.779,2.994,1.393,4.878a44.919,44.919,0,0,1,1.887,6.716,14.246,14.246,0,0,1-1.709,8.514A24.246,24.246,0,0,1,163,155.962a41.823,41.823,0,0,1-8.3,5.268,61.95,61.95,0,0,1-9.363,3.65,90.255,90.255,0,0,1-19.329,3.469,88.373,88.373,0,0,1-9.021.242c-2.868-.069-5.571-.274-8.057-.518A77.492,77.492,0,0,1,97.08,165.9c-1.4-.4-2.5-.723-3.23-.994-.739-.249-1.128-.4-1.128-.4s.42.01,1.2.07l3.351.256c2.878.23,6.959.629,11.854.877a139.133,139.133,0,0,0,16.7-.065,84.722,84.722,0,0,0,18.742-3.33c6.175-1.876,12.149-4.625,16.726-8.415a21.6,21.6,0,0,0,5.395-6.355,13.662,13.662,0,0,0,1.284-3.511c.044-.289.12-.6.14-.863l.05-.408.028-.478a8.021,8.021,0,0,0-.077-1.628,43.668,43.668,0,0,0-1.781-6.26c-.631-1.938-1.123-3.651-1.461-5.13-.094-.374-.151-.694-.221-1.013l-.1-.457-.09-.507a5.622,5.622,0,0,1,.019-1.844,8.9,8.9,0,0,1,.252-1.031l.093-.294Z" fill="#9cbddb"/><path d="M171.592,77.28" fill="none"/><path d="M164.7,86.591" fill="none"/><g mask="url(#c)"><path d="M171.4,105.243c-1.009,16.684-7.707,29.852-14.958,29.413s-12.821-14.7-11.812-31.386,5.965-27.8,13.217-27.366S172.409,88.56,171.4,105.243Z" fill="#fff"/><g mask="url(#d)"><path d="M162.406,107.771c.093,13.437-5.113,24.136-11.628,23.9S138.9,120.34,138.811,106.9s5.113-24.136,11.628-23.9S162.312,94.334,162.406,107.771Z" fill="url(#e)"/><polygon points="149.64 112.192 164.64 102.862 163.657 113.057 149.64 112.192" fill="#f9e98c"/><polygon points="150.697 112.522 165.021 111.269 163.345 119.742 150.697 112.522" fill="#fcf1bd"/></g><path d="M158.482,109.022c.067,10.319-3.857,18.535-8.764,18.352s-8.941-8.7-9.009-19.014,3.856-18.535,8.764-18.352S158.414,98.7,158.482,109.022Z"/><path d="M149.085,106.442c-2.818-.912-3.944-5.557-2.515-10.374s4.871-7.984,7.689-7.072,3.944,5.557,2.516,10.374S151.9,107.353,149.085,106.442Z" fill="#fff"/><path d="M149.31,117.274c-1.163-.622-1.418-2.493-.571-4.182s2.476-2.554,3.638-1.933,1.418,2.493.571,4.181S150.472,117.894,149.31,117.274Z" fill="#fff"/></g><path d="M153.3,133.425s-.314-.2-.878-.594A16.765,16.765,0,0,1,150.2,130.8a25.3,25.3,0,0,1-2.819-3.751,33.114,33.114,0,0,1-2.664-5.492,47.51,47.51,0,0,1-2.449-14.952,59.762,59.762,0,0,1,2.224-17.167,38.515,38.515,0,0,1,3.364-8.261,20.056,20.056,0,0,1,2.625-3.682,9.84,9.84,0,0,1,3.9-2.726,7.315,7.315,0,0,1,4.749-.025,10.117,10.117,0,0,1,3.719,2.293,20.15,20.15,0,0,1,4.218,6.162,43.227,43.227,0,0,1,3.086,10.336c.232,1.272.373,2.276.461,2.96l.135,1.05-2.665.313-.13-1.01c-.084-.658-.22-1.623-.442-2.838a40.666,40.666,0,0,0-2.88-9.684A17.575,17.575,0,0,0,161.019,79c-1.6-1.515-3.722-2.457-5.8-1.676a7.328,7.328,0,0,0-2.763,2,17.426,17.426,0,0,0-2.265,3.19,35.9,35.9,0,0,0-3.118,7.677,57.107,57.107,0,0,0-2.119,16.381,49.811,49.811,0,0,0,2.215,14.177,38.729,38.729,0,0,0,1.969,5.375,38.042,38.042,0,0,0,2.059,3.942c.639,1.068,1.167,1.9,1.538,2.473S153.3,133.425,153.3,133.425Z"/><path d="M78.562,98.574s-18.972-2.3-18.7-3.592,17.714.179,17.714.179Z"/><path d="M78.74,91.593S63.658,82.3,64.45,81.046s15.888,7.268,15.888,7.268Z"/><path d="M83,84.264s-8.455-14.121-7.25-14.933S85.821,82.111,85.821,82.111Z"/><ellipse cx="101.878" cy="110.075" rx="24.591" ry="33.929" transform="translate(-7.081 7.004) rotate(-3.806)" fill="#fff"/><g mask="url(#f)"><g mask="url(#g)"><path d="M122.491,110.308c-.122,15.441-9.015,27.906-19.862,27.844s-19.54-12.629-19.417-28.068,9.015-27.906,19.862-27.844S122.614,94.868,122.491,110.308Z" fill="url(#h)"/><polygon points="78.982 117.578 110.128 112.175 83.954 127.982 78.982 117.578" fill="#fcf1bd"/><polygon points="79.223 108.158 110.585 112.563 79.475 119.379 79.223 108.158" fill="#f9e98c"/></g><path d="M117.878,110.852c-.118,11.995-6.559,21.673-14.387,21.618s-14.077-9.823-13.959-21.818,6.559-21.673,14.387-21.618S118,98.857,117.878,110.852Z"/><path d="M101.9,86.1c4.39.909,6.5,6.676,4.713,12.881s-6.794,10.5-11.183,9.588-6.5-6.677-4.712-12.881S97.51,85.19,101.9,86.1Zm5.982,26.6c-.6,1.94.069,3.768,1.491,4.085s3.062-1,3.66-2.94-.068-3.767-1.491-4.084S108.482,110.759,107.882,112.7Z" fill="#fff"/></g><path d="M76.917,98.353l-.216-.335c-.149-.225-.338-.54-.569-.977l-.365-.77c-.045-.14-.182-.312-.159-.45a1.95,1.95,0,0,0,.119-.419c.13-.589.314-1.257.546-2A28.6,28.6,0,0,1,89.516,77.393,22.663,22.663,0,0,1,98.69,74.6a21.691,21.691,0,0,1,10.1,1.8,26.8,26.8,0,0,1,8.538,6.032,35.374,35.374,0,0,1,5.986,8.406,42.253,42.253,0,0,1,3.488,9.295,46.23,46.23,0,0,1,1.33,9.154,37.572,37.572,0,0,1-.452,8.26,36.289,36.289,0,0,1-1.856,6.734,29.568,29.568,0,0,1-2.326,4.82,26.638,26.638,0,0,1-1.916,2.828l-.766.927.48-1.1c.29-.723.751-1.758,1.2-3.117.218-.683.455-1.436.664-2.268.231-.823.459-1.718.644-2.685a49.825,49.825,0,0,0,.863-6.51,62.593,62.593,0,0,0,.111-7.726,42.869,42.869,0,0,0-1.235-8.507,38.9,38.9,0,0,0-3.21-8.562,32.031,32.031,0,0,0-5.416-7.615,23.457,23.457,0,0,0-7.47-5.293A18.287,18.287,0,0,0,98.92,77.95a19.326,19.326,0,0,0-7.795,2.386A25.249,25.249,0,0,0,79.468,94.425a22.637,22.637,0,0,0-.727,2.988l-.162,1.164Z"/><path d="M166.656,133.624a57.165,57.165,0,0,1,6.063,6.515c.282,1.259-1.4,1.214-1.82,1.27s.6,2.7,1.009,4.218.94,3.187.1,3.187-.74-.595-1.293-1.342-.447.87-.861,1.794-1.1,3.21-1.662,2.379.746-4.783-1.207-6.782S166.656,133.624,166.656,133.624Z" fill="#e6effc"/><path d="M168.42,139.921l.232.083a3.361,3.361,0,0,0,.6.129,3.918,3.918,0,0,0,1.871-.259,2.949,2.949,0,0,0,.515-.273,2.228,2.228,0,0,0,.2-.156c.025-.023.046-.047.044-.054s-.026-.016-.1.131a.732.732,0,0,0-.071.351l0,.039c.017.128,0,.032.007.059l0-.012-.026-.1c-.024-.044,0,.057-.014.032a.386.386,0,0,1-.082-.049,3.774,3.774,0,0,0-.512-.3,16.818,16.818,0,0,1-1.678-.892,7.138,7.138,0,0,1-1.669-1.468,7.24,7.24,0,0,1-1.108-1.924c-.239-.636-.415-1.171-.613-1.745-.383-1.122-.714-2.191-.959-3.13a22.494,22.494,0,0,1-.651-3.244l2.665-.308a18.136,18.136,0,0,0,.591,2.854c.237.866.549,1.881.909,2.973l.565,1.658a6.178,6.178,0,0,0,.644,1.34,5.032,5.032,0,0,0,.984,1.115,15.21,15.21,0,0,0,1.391.988,4.414,4.414,0,0,1,.864.727,2.181,2.181,0,0,1,.387.635,1.977,1.977,0,0,1,.114.42l.008.1v.013l.009.072,0,.051a1.185,1.185,0,0,1-.014.208.988.988,0,0,1-.092.287,1.272,1.272,0,0,1-.355.437,1.97,1.97,0,0,1-.268.184,2.584,2.584,0,0,1-.469.215,4.575,4.575,0,0,1-.858.207,3.872,3.872,0,0,1-1.5-.052,2.466,2.466,0,0,1-1.034-.538,1.985,1.985,0,0,1-.441-.582A1.376,1.376,0,0,1,168.42,139.921Z" fill="#9cbddb"/><path d="M171.357,140.227a22.2,22.2,0,0,1,1.258,3.037,13.707,13.707,0,0,1,.676,3.319,4.844,4.844,0,0,1-.242,1.911,2.622,2.622,0,0,1-.631.968l-.112.1-.014.013-.007.006-.136.094-.022.011-.011.006a1,1,0,0,1-.133.056.96.96,0,0,1-.326.05.992.992,0,0,1-.357-.084,1.362,1.362,0,0,1-.184-.109,1.287,1.287,0,0,1-.192-.177,2.406,2.406,0,0,1-.32-.484,14.082,14.082,0,0,1-.642-1.549c-.182-.491-.358-1.012-.537-1.426l1.266-.244h0c-.1,1.069-.193,2.151-.406,3.258a7.453,7.453,0,0,1-.511,1.691,3.107,3.107,0,0,1-.566.849,2.239,2.239,0,0,1-.463.36,2.275,2.275,0,0,1-.525.2,1.366,1.366,0,0,1-.357.048.983.983,0,0,1-.292-.039.783.783,0,0,1-.56-.72,1.2,1.2,0,0,1,.02-.226,1.775,1.775,0,0,1,.083-.281c.118-.293.236-.518.343-.757a6.418,6.418,0,0,0,.483-1.437,4.866,4.866,0,0,0-.419-3.044,5.211,5.211,0,0,1,1.094,3.1,7.252,7.252,0,0,1-.193,1.7c-.059.271-.133.547-.169.768a.387.387,0,0,0,0,.112c0,.018.012-.018.008-.026a.389.389,0,0,0-.078-.235.534.534,0,0,0-.254-.191c-.051-.02-.106-.017-.093-.022-.019,0,0-.01.039-.015a.7.7,0,0,0,.393-.216,1.823,1.823,0,0,0,.314-.489,6.221,6.221,0,0,0,.4-1.385c.189-1,.277-2.061.374-3.126h0l.123-2.4,1.143,2.159c.282.532.475,1,.7,1.476a12.9,12.9,0,0,0,.669,1.318.758.758,0,0,0,.125.165.2.2,0,0,0-.047-.044.407.407,0,0,0-.1-.058.607.607,0,0,0-.262-.061.7.7,0,0,0-.277.045.722.722,0,0,0-.108.052l.01-.007.021-.013,0,0-.129.089,0,0,0,0,.029-.034a.974.974,0,0,0,.192-.36,3.242,3.242,0,0,0,.059-1.208,12.2,12.2,0,0,0-.748-2.811,26.28,26.28,0,0,0-1.2-2.77Z" fill="#9cbddb"/><path d="M136.4,135.608c9.451-2.758,20.9-.761,22.62-.16,7,2.447-2.628,21.965-18.14,23.725-7.334.832-12.031-.657-16.351-8.323Z" fill="#e6effc"/><path d="M136.4,135.608s.278-.143.808-.377c.266-.115.586-.279.978-.426l1.381-.481a32.614,32.614,0,0,1,8.924-1.386,46.606,46.606,0,0,1,6.036.3c1.069.124,2.16.286,3.29.517.28.054.569.118.866.193.143.033.294.07.468.125l.25.076.063.019.169.071.1.044.383.178a4.1,4.1,0,0,1,.536.339,4.339,4.339,0,0,1,.928.882,6.339,6.339,0,0,1,1.086,4.214,13.645,13.645,0,0,1-.857,3.849,24.972,24.972,0,0,1-3.791,6.671,27.359,27.359,0,0,1-11.944,8.888,23.213,23.213,0,0,1-3.448.961c-.587.094-1.136.182-1.739.257-.547.045-1.038.115-1.612.138a18.533,18.533,0,0,1-6.326-.536,12.991,12.991,0,0,1-4.864-2.6,18.4,18.4,0,0,1-2.813-3.053,25.677,25.677,0,0,1-1.438-2.172l-.468-.786,2.337-1.317.43.72a23.053,23.053,0,0,0,1.294,1.958,15.761,15.761,0,0,0,2.387,2.6,10.284,10.284,0,0,0,3.869,2.073,15.908,15.908,0,0,0,5.389.441c.474-.015,1.037-.09,1.562-.133l1.49-.222a20.534,20.534,0,0,0,3.033-.847,24.693,24.693,0,0,0,10.747-8.019,22.334,22.334,0,0,0,3.383-5.932,11.035,11.035,0,0,0,.7-3.089,3.672,3.672,0,0,0-.533-2.406c-.115-.109-.226-.26-.3-.289a.461.461,0,0,1-.056-.054c-.01-.019-.031-.043-.113-.074l-.385-.174-.1-.043-.024-.011c.046.018-.137-.057.1.039l-.038-.01-.152-.043c-.092-.03-.213-.058-.341-.086-.244-.058-.495-.112-.756-.159-1.029-.194-2.07-.35-3.083-.47-2.028-.252-3.962-.409-5.748-.5-1.788-.115-3.427-.128-4.89-.164-1.457.007-2.745.018-3.795.087-1.048.039-1.9.111-2.476.164S136.4,135.608,136.4,135.608Z" fill="#9cbddb"/><path d="M130.158,149.579s-.2.068-.555.156l-1.39.341c-.277.086-.578.146-.882.245s-.625.179-.944.293c-.325.093-.639.24-.967.351-.314.147-.642.268-.946.438a15.13,15.13,0,0,0-3.231,2.231c-.428.376-.793.716-1.052.959s-.429.381-.429.381.015-.21.078-.574a3.8,3.8,0,0,1,.161-.642,4.406,4.406,0,0,1,.309-.805,7.011,7.011,0,0,1,3.264-3.349,8.094,8.094,0,0,1,1.211-.482,7.53,7.53,0,0,1,1.224-.247,6.8,6.8,0,0,1,1.152-.054,7.194,7.194,0,0,1,1.016.1,6.288,6.288,0,0,1,1.458.411C129.968,149.48,130.158,149.579,130.158,149.579Z" fill="#9cbddb"/><path d="M136.525,138.345a3.95,3.95,0,0,1,.435.046,4.881,4.881,0,0,1,1.118.28,5.568,5.568,0,0,1,1.5.768,4.913,4.913,0,0,1,.79.678,2.143,2.143,0,0,1,.357.448,1.8,1.8,0,0,1,.273.538,2.986,2.986,0,0,1,.12.623,4.357,4.357,0,0,1-.044.667,2.818,2.818,0,0,1-.54,1.2,3.993,3.993,0,0,1-.839.789,8.789,8.789,0,0,1-.779.433,4.534,4.534,0,0,1-1.132.306l-.409.055.291-.214a4.733,4.733,0,0,0,.714-.626c.119-.156.256-.322.375-.512a2.738,2.738,0,0,0,.275-.651,2.5,2.5,0,0,0,.1-.748,3.119,3.119,0,0,0-.119-.772,6.1,6.1,0,0,0-1.519-2.422A9.96,9.96,0,0,0,136.525,138.345Z" fill="#9cbddb"/><path d="M48.4,90.594c.2,15.788,3.794,33.092,17.088,47.138-15.226-5.385-20.746-12.318-25.626-21.038l17.283,16.033c1.074,14.42,5.281,24.8,15.312,37.312-14.316-1.683-22.268-11.886-27.032-22.295l17,18.811c1.856,26.939-10.106,42.939-24.388,59.862,4.411-45.308-29.354-74.265-20.059-115.289l-9.5,12.036C8.71,87.446,26.092,61.007,48.142,40.945Z" fill="#3da9ff"/><path d="M40.585,62.942c-9.5,10.686-14.683,27.533-15.08,45.24l5.823-7.913c-8.271,35.2,23.675,70.1,23.134,103.423,5.97-10.909,11.215-21.9,8.912-35.553l6.335.211c-7.974-11.3-10.413-23.212-13.514-35.051l5.49,1.689C54.274,122.3,47.1,109.549,47.96,94.657Z" fill="#94d4ff"/><path d="M49.738,90.559l.092,3.205c.065,1.048.1,2.094.189,3.144.1,1.049.164,2.1.3,3.149s.229,2.1.412,3.133.306,2.084.534,3.111.391,2.067.663,3.082.481,2.046.8,3.046c.3,1,.574,2.019.94,3,.348.989.67,1.987,1.086,2.949.4.969.768,1.95,1.235,2.887.45.945.866,1.907,1.385,2.816s.963,1.859,1.534,2.736,1.058,1.806,1.681,2.647,1.165,1.738,1.824,2.551,1.279,1.656,1.96,2.449l2.089,2.343,2.953,3.313-4.23-1.084h0l-2.152-.553-2.126-.657-2.093-.765-2.053-.877-2-.993c-.658-.351-1.294-.745-1.925-1.143L51,132.754c-.58-.471-1.169-.928-1.736-1.41-.542-.513-1.1-1.009-1.621-1.535-.5-.547-1.029-1.071-1.512-1.633s-.949-1.138-1.38-1.738-.861-1.2-1.248-1.824-.781-1.244-1.119-1.9-.677-1.3-.978-1.961-.585-1.334-.843-2.012l-.709-2.053,1.046,1.892,1.135,1.825c.388.6.822,1.168,1.227,1.75s.879,1.115,1.314,1.67.943,1.052,1.408,1.578,1.008.981,1.493,1.483c.505.484,1.048.927,1.567,1.391.539.443,1.1.854,1.651,1.281l1.712,1.188,1.781,1.076c.619.316,1.227.646,1.823,1l1.864.924,1.917.819,1.961.717,2,.617,2.03.522h0l-1.277,2.229L62.326,136.2c-.712-.831-1.367-1.711-2.052-2.564s-1.271-1.783-1.91-2.672S57.19,129.119,56.6,128.2s-1.078-1.9-1.606-2.864-.979-1.957-1.448-2.945c-.487-.981-.875-2-1.29-3.016-.433-1.005-.771-2.045-1.133-3.076-.381-1.026-.666-2.08-.979-3.125-.33-1.042-.564-2.108-.83-3.165s-.464-2.129-.688-3.2-.369-2.146-.553-3.218-.281-2.156-.425-3.234-.2-2.163-.306-3.244c-.088-1.083-.13-2.178-.2-3.267l-.092-3.215Z" fill="#2864bc"/><path d="M62.423,166.555c1.856,26.939-7.568,45.478-24.388,59.862,4.411-45.308-29.354-74.265-20.059-115.289l-9.5,12.036C8.71,87.446,26.092,61.007,48.142,40.945" fill="none" stroke="#2864bc" stroke-width="2.683"/><path d="M59.517,134.349c.2,1.615.41,3.215.647,4.786s.526,3.154.844,4.715l.528,2.325c.207.765.4,1.536.618,2.3.24.753.446,1.519.714,2.261s.5,1.5.816,2.223a46.793,46.793,0,0,0,1.942,4.318c.353.707.718,1.408,1.119,2.092.384.692.78,1.378,1.209,2.046s.834,1.35,1.29,2,.88,1.325,1.36,1.963.926,1.3,1.421,1.926L73.5,169.2l0,0,2.093,2.692-3.3-.521L69.933,171c-.786-.132-1.557-.361-2.335-.539a21.554,21.554,0,0,1-2.29-.717A22.372,22.372,0,0,1,63.1,168.8a30.277,30.277,0,0,1-4.148-2.382,21.4,21.4,0,0,1-1.9-1.435c-.634-.478-1.2-1.034-1.782-1.569s-1.116-1.115-1.659-1.684a23.516,23.516,0,0,1-1.522-1.8c-.508-.6-.93-1.26-1.392-1.887s-.851-1.306-1.278-1.955-.769-1.35-1.155-2.021-.7-1.381-1.05-2.068c-.664-1.395-1.239-2.826-1.789-4.259l1.144,2,1.21,1.949c.426.634.826,1.282,1.271,1.9s.878,1.24,1.349,1.832.911,1.207,1.421,1.764.97,1.153,1.512,1.673,1.035,1.084,1.6,1.578,1.08,1.029,1.673,1.478a22.166,22.166,0,0,0,1.766,1.349,21.591,21.591,0,0,0,1.852,1.211,19.4,19.4,0,0,0,1.923,1.076,19.173,19.173,0,0,0,2,.918,19.941,19.941,0,0,0,2.06.756c.706.195,1.373.507,2.1.644.715.16,1.417.374,2.141.494l2.176.345-1.2,2.171,0,0-1.514-1.946c-.508-.645-.976-1.326-1.466-1.988s-.945-1.352-1.41-2.034-.909-1.38-1.343-2.085-.862-1.414-1.264-2.14c-.42-.715-.8-1.452-1.175-2.2a49.471,49.471,0,0,1-2.045-4.549c-.327-.766-.573-1.561-.859-2.342s-.5-1.584-.75-2.376c-.232-.8-.43-1.6-.646-2.4l-.549-2.418q-.493-2.426-.87-4.859c-.247-1.635-.46-3.25-.656-4.853Z" fill="#2864bc"/><path d="M65.679,31.766C75.871,15.535,97.622,5.293,114.768,5.729L106.65,18.542l-9,2.381c41.736-14.136,79.874-.42,87.26,48.885-11.127-13.325-25.28-23.837-42.536-23.326L72.738,40.4Z" fill="#3da9ff"/><path d="M64.573,31.007,66.62,28.03,68.99,25.1l2.539-2.7,2.713-2.516,2.864-2.335c.982-.741,2-1.436,3-2.155,1.016-.692,2.076-1.316,3.113-1.977,1.047-.643,2.146-1.2,3.217-1.8S88.64,10.54,89.741,10s2.264-.954,3.393-1.437,2.314-.828,3.469-1.248,2.36-.695,3.537-1.049,2.4-.554,3.6-.838,2.434-.4,3.65-.608c1.22-.186,2.462-.234,3.692-.356,1.236-.068,2.481-.048,3.721-.073l2.368-.049-1.253,2.082L111.959,13l-1.979,3.288-.495.822c-.079.139-.172.27-.24.415a.512.512,0,0,1-.111.213,2.618,2.618,0,0,1-.236.138c-.329.175-.632.366-.983.528-.334.173-.7.328-1.063.48l-1.149-.692,7.916-13.151,1.115,2.032c-1.167.028-2.334.006-3.5.07-1.165.118-2.336.16-3.5.337-1.157.2-2.328.308-3.474.579s-2.309.452-3.436.8-2.281.591-3.387,1-2.245.725-3.327,1.2-2.2.856-3.257,1.379-2.146.984-3.178,1.555-2.083,1.109-3.087,1.727c-.993.635-2.011,1.233-2.984,1.9-.954.69-1.928,1.354-2.868,2.063L76,21.907,73.42,24.3l-2.41,2.562-2.179,2.683-2.046,2.976Z" fill="#2864bc"/><path d="M142.386,45.14l3.141.031,3.284.284,3.2.532,3.148.779c1.026.336,2.058.657,3.077,1.01,1,.408,2.007.791,2.993,1.222.966.473,1.949.916,2.9,1.415.933.53,1.887,1.029,2.8,1.588.9.582,1.822,1.133,2.7,1.742.866.627,1.756,1.226,2.6,1.877s1.689,1.309,2.5,2,1.624,1.384,2.41,2.1,1.56,1.45,2.32,2.194l2.234,2.276,2.153,2.347,2.076,2.411h0l-2.356,1.058c-.412-2.381-.792-4.769-1.361-7.114-.135-.588-.253-1.18-.4-1.764l-.479-1.743c-.316-1.163-.623-2.329-1.027-3.463a71.388,71.388,0,0,0-2.538-6.746c-.514-1.083-.975-2.194-1.53-3.256-.575-1.05-1.1-2.128-1.715-3.157-.638-1.011-1.227-2.056-1.9-3.041-.7-.966-1.345-1.978-2.1-2.907a51.037,51.037,0,0,0-4.758-5.337c-.863-.822-1.712-1.661-2.65-2.4l-1.374-1.143-1.443-1.053c-.487-.343-.954-.715-1.457-1.034l-1.514-.95c-.99-.665-2.066-1.187-3.108-1.764S152.073,22.116,151,21.6c-1.094-.474-2.222-.871-3.331-1.312-1.14-.356-2.272-.74-3.421-1.068-1.163-.277-2.311-.621-3.487-.847a61.958,61.958,0,0,0-7.106-1.062c-1.2-.1-2.39-.222-3.593-.233-1.2-.039-2.4-.092-3.6-.047-1.2.006-2.4.053-3.608.105s-2.41.077-3.612.2c-2.409.167-4.81.48-7.212.811-2.4.347-4.8.734-7.194,1.224-2.4.46-4.781,1.015-7.183,1.556l3.408-1.419c1.149-.443,2.316-.836,3.477-1.256,2.348-.747,4.714-1.486,7.131-2.023,1.2-.317,2.421-.526,3.64-.751,1.216-.25,2.448-.4,3.68-.568,1.229-.189,2.468-.294,3.709-.4,1.238-.15,2.487-.129,3.732-.157,1.246-.046,2.493.008,3.74.049,1.248.013,2.491.143,3.736.242a64.644,64.644,0,0,1,7.415,1.109c1.229.237,2.433.594,3.651.887,1.205.343,2.394.746,3.591,1.121,1.167.461,2.352.88,3.5,1.379,1.132.544,2.3,1,3.4,1.621s2.232,1.161,3.278,1.861l1.6,1c.53.338,1.025.729,1.538,1.091l1.523,1.113,1.45,1.206c.989.779,1.886,1.661,2.8,2.529a53.722,53.722,0,0,1,5.009,5.619c.788.977,1.464,2.036,2.2,3.051.709,1.033,1.327,2.124,1.994,3.184.639,1.076,1.192,2.2,1.791,3.3.578,1.108,1.06,2.262,1.594,3.391a74.066,74.066,0,0,1,2.634,7c.417,1.176.734,2.378,1.061,3.579l.494,1.8c.152.6.274,1.212.413,1.817.586,2.418.977,4.869,1.4,7.314l.818,4.743-3.175-3.684h0l-2.024-2.35-2.094-2.283-2.167-2.208c-.736-.721-1.5-1.414-2.244-2.123s-1.551-1.35-2.325-2.028-1.606-1.278-2.407-1.92c-.812-.626-1.663-1.2-2.492-1.8-.842-.583-1.72-1.105-2.578-1.662-.872-.532-1.777-1-2.663-1.509-.9-.473-1.832-.89-2.746-1.339-.932-.406-1.883-.766-2.823-1.152l-2.892-.949-2.951-.73-3-.5-2.975-.263-3.141-.031Z" fill="#2864bc"/><path d="M126.788,56.38c-.181,11.753,12.863,12.707,14.562,10.58,8.529-10.672,18.915-49.379,14.947-51.168-3.245-1.463-17.765,17.479-27.391,32.876" fill="#e6effc"/><path d="M126.788,56.38s.09.478.3,1.32a13.778,13.778,0,0,0,1.293,3.4,10.228,10.228,0,0,0,3.651,3.81,12.042,12.042,0,0,0,6.564,1.672,4.628,4.628,0,0,0,1.6-.334,1.063,1.063,0,0,0,.162-.1c.03-.032-.048.06.029-.032l.171-.216c.2-.259.416-.553.619-.844a34.926,34.926,0,0,0,2.306-3.88,87.245,87.245,0,0,0,3.981-9.1,168.158,168.158,0,0,0,6.409-20.754,76.8,76.8,0,0,0,1.885-10.754,17.294,17.294,0,0,0,.041-2.534,4.358,4.358,0,0,0-.171-1c-.035-.117-.089-.184-.052-.135a.514.514,0,0,0,.163.115c-.005,0,.222.088.1.042l-.04-.013-.08-.027a.318.318,0,0,0,.145.04,3.227,3.227,0,0,0-.532.221,7.609,7.609,0,0,0-.945.616,22.909,22.909,0,0,0-1.883,1.617,82.122,82.122,0,0,0-6.643,7.352c-2.022,2.454-3.866,4.842-5.536,7.069-3.334,4.462-5.989,8.28-7.755,11.009s-2.755,4.3-2.755,4.3L128,48.1s.985-1.6,2.78-4.339c1.815-2.73,4.375-6.651,7.651-11.223,1.639-2.285,3.451-4.738,5.454-7.276a84,84,0,0,1,6.78-7.689,22.472,22.472,0,0,1,2.123-1.832,10.181,10.181,0,0,1,1.3-.838,3.75,3.75,0,0,1,2.02-.522,2.9,2.9,0,0,1,.479.091l.08.027.04.013c-.092-.036.163.06.183.073a2.178,2.178,0,0,1,.694.525,3.015,3.015,0,0,1,.588,1.05,6.832,6.832,0,0,1,.309,1.669,19.8,19.8,0,0,1-.041,2.946,79.143,79.143,0,0,1-1.949,11.164c-.867,3.667-1.875,7.29-2.97,10.826s-2.273,6.985-3.572,10.272a95.839,95.839,0,0,1-4.209,9.321,43.98,43.98,0,0,1-2.462,4.148c-.226.329-.449.642-.7.971l-.171.221a2.7,2.7,0,0,1-.346.372,3.206,3.206,0,0,1-.759.491,6.961,6.961,0,0,1-2.567.548,12.994,12.994,0,0,1-7.926-2.339,9.774,9.774,0,0,1-4.23-9.03,8.642,8.642,0,0,1,.146-1.017Z" fill="#9cbddb"/><path d="M147.194,22.756c-.435,5.033,2.942,10.385,7.72,10.837" fill="none" stroke="#9cbddb" stroke-width="2.012"/><path d="M141.126,30.788c-.435,5.033,3.277,12.614,10.048,14.089" fill="none" stroke="#9cbddb" stroke-width="2.012"/><path d="M70.571,46.938C74.214,58.646,85.965,73.5,103.244,80.843A35.753,35.753,0,0,1,97.49,54.336L96.462,66.048c35,5.981,62.015,22.464,81.167,55.481,2.588-58.386-24.747-83.632-58.769-86.92Z" fill="#3da9ff"/><path d="M74.511,51.228c.3.84.57,1.733.894,2.529.339.788.618,1.585,1.023,2.364.371.787.753,1.568,1.2,2.317.408.769.875,1.5,1.355,2.229.451.745,1,1.428,1.505,2.134s1.1,1.352,1.646,2.032c.562.667,1.186,1.282,1.776,1.926.613.623,1.264,1.211,1.893,1.818.654.583,1.333,1.139,2,1.711.684.549,1.395,1.069,2.09,1.606s1.448,1,2.17,1.5,1.5.936,2.24,1.409,1.528.886,2.3,1.319,1.55.852,2.349,1.235,1.574.812,2.392,1.159l2.429,1.089-1.642,1.976c-.315-.507-.655-1-.958-1.514-.286-.526-.589-1.041-.859-1.575s-.552-1.061-.791-1.612-.505-1.085-.717-1.646a31.481,31.481,0,0,1-1.184-3.388c-.171-.573-.334-1.148-.456-1.734q-.21-.871-.348-1.756a25.448,25.448,0,0,1-.4-3.545q-.063-.888-.052-1.776c-.009-.591,0-1.181.035-1.771s.068-1.176.145-1.76.116-1.168.224-1.745c.179-1.158.436-2.3.721-3.428l-.065,1.742c-.027.578,0,1.159-.011,1.734s.025,1.152.041,1.725.067,1.145.117,1.714c.031.57.093,1.137.169,1.7q.09.849.251,1.685c.089.56.2,1.115.333,1.665.109.554.237,1.1.391,1.646q.2.82.473,1.62.24.808.535,1.6c.374,1.057.813,2.091,1.287,3.106.223.514.5,1,.749,1.5s.547.979.817,1.47c.574.964,1.179,1.908,1.783,2.856l2.424,3.8-4.066-1.822-2.505-1.123c-.842-.358-1.649-.8-2.473-1.2s-1.638-.824-2.436-1.28-1.615-.873-2.39-1.371-1.581-.941-2.337-1.47-1.531-1.026-2.273-1.576-1.477-1.11-2.2-1.688c-.7-.6-1.418-1.19-2.109-1.806-.668-.643-1.355-1.266-2.006-1.927-.628-.684-1.289-1.338-1.889-2.048-.583-.725-1.219-1.406-1.756-2.168s-1.125-1.485-1.61-2.283c-.514-.778-1.013-1.565-1.452-2.389-.475-.8-.886-1.641-1.284-2.485-.426-.823-.753-1.728-1.121-2.6-.351-.875-.6-1.711-.907-2.568Z" fill="#2864bc"/><path d="M177.424,119.68c-7.738-26.8-27.7-57.188-47.262-63.187l2.466,10.583C124.1,56.827,113.776,48.312,97.182,46.527l4.418,6.781c-9.971-5.483-21.189-3.373-30.515.719L69.647,41.9C135.8,17.729,182.6,52.341,177.424,119.68Z" fill="#94d4ff"/><path d="M97.648,64.894l6.2,1.195,6.228,1.477c2.055.559,4.089,1.177,6.135,1.763,2.022.662,4.027,1.384,6.041,2.074l5.923,2.4c1.924.919,3.858,1.817,5.77,2.76,1.862,1.04,3.756,2.025,5.591,3.111,1.792,1.157,3.64,2.232,5.385,3.459L147.52,85c.865.624,1.744,1.23,2.554,1.926l2.479,2.024,1.239,1.012c.406.345.788.718,1.183,1.076l2.351,2.17L158.5,94.3l1.11,1.151,2.217,2.3,1.107,1.153,1.039,1.213,2.078,2.427,1.039,1.214.974,1.265L170,107.561c.647.845,1.3,1.683,1.886,2.574,1.187,1.764,2.431,3.492,3.57,5.286l3.329,5.436-2.5.614v0c.048-2.429.194-4.859.148-7.287-.011-1.214.008-2.429-.026-3.642l-.133-3.637c-.027-1.214-.157-2.42-.23-3.63s-.173-2.418-.321-3.621-.236-2.412-.419-3.608l-.532-3.591c-.436-2.378-.876-4.757-1.464-7.1-.252-1.182-.6-2.337-.924-3.5-.306-1.168-.675-2.315-1.064-3.456l-.567-1.716-.645-1.686-.647-1.685c-.225-.558-.482-1.1-.721-1.653-.476-1.1-.969-2.2-1.53-3.263l-.811-1.609-.887-1.566-.894-1.562-.975-1.511c-.628-1.022-1.332-1.991-2.041-2.957a58.252,58.252,0,0,0-4.593-5.511c-.825-.865-1.694-1.687-2.548-2.523-.915-.769-1.773-1.6-2.7-2.36s-1.839-1.533-2.828-2.21l-1.456-1.053-1.51-.975a63.853,63.853,0,0,0-6.286-3.518c-2.176-1.028-4.4-1.979-6.678-2.793-1.139-.41-2.285-.808-3.455-1.135-1.16-.363-2.333-.681-3.514-.982-2.361-.609-4.76-1.072-7.177-1.518a63.041,63.041,0,0,1,7.352.636c1.22.184,2.446.356,3.65.641,1.216.236,2.415.544,3.612.868,1.207.292,2.38.7,3.565,1.08,1.175.4,2.33.871,3.492,1.321a56.464,56.464,0,0,1,6.681,3.373l1.61.964,1.558,1.047c1.057.674,2.031,1.464,3.037,2.213s1.923,1.608,2.869,2.43c.9.875,1.807,1.739,2.672,2.645a60.937,60.937,0,0,1,4.809,5.768c.741,1.009,1.476,2.022,2.132,3.088l1.016,1.577.932,1.626.923,1.631.843,1.672c.583,1.105,1.095,2.242,1.589,3.387.248.572.513,1.137.746,1.714l.671,1.744.667,1.745.586,1.772c.4,1.178.781,2.362,1.1,3.564.333,1.2.691,2.389.951,3.6.6,2.41,1.057,4.85,1.5,7.289l.545,3.677c.187,1.225.283,2.46.429,3.689s.248,2.463.327,3.7.207,2.466.235,3.7l.135,3.705c.035,1.235.016,2.47.027,3.7.045,2.471-.1,4.936-.151,7.4v0l-.13,4.483-2.37-3.869-3.268-5.336c-1.117-1.76-2.336-3.451-3.5-5.181-.569-.874-1.213-1.692-1.846-2.519l-1.9-2.481-.952-1.237-1.015-1.185-2.03-2.37-1.015-1.185-1.081-1.124-2.162-2.247-1.082-1.123-1.145-1.056-2.29-2.114c-.385-.349-.756-.713-1.152-1.049l-1.207-.985-2.413-1.97c-.788-.678-1.644-1.267-2.486-1.874L143.4,85.347c-1.7-1.195-3.5-2.239-5.241-3.366-1.787-1.057-3.632-2.016-5.445-3.03-1.864-.918-3.75-1.793-5.624-2.69l-5.781-2.346c-1.969-.673-3.927-1.38-5.905-2.027-2-.573-4-1.179-6-1.725l-6.061-1.439-6.2-1.195Z" fill="#2864bc"/><path d="M74.706,60.836C76.742,27.829,58.825,14.442,53.93,20.944,36.969,43.476,26.974,77.627,52.078,97.3,52.078,97.3,59.535,73.163,74.706,60.836Z" fill="#e6effc"/><path d="M53.853,76.175c-1.4-11-.943-34.388,2.895-39.853s6.9-5.277,8.35,4.187c.523,3.738,1.76,13.066,1.757,18.92C62.373,61.1,56.227,70.177,53.853,76.175Z" fill="#c3cfe0"/><path d="M52.192,97.169s-.482-.249-1.354-.757a30.885,30.885,0,0,1-8.505-7.418,33.471,33.471,0,0,1-4.454-7.839,41.546,41.546,0,0,1-2.741-10.294,51.729,51.729,0,0,1-.127-11.829A70.444,70.444,0,0,1,42.32,34.649a52.594,52.594,0,0,1,7.174-10.917A22.984,22.984,0,0,1,51.875,21.4a9.449,9.449,0,0,1,3.109-1.841l.243-.076.267-.056.378-.074a6.181,6.181,0,0,1,.891-.113,5.176,5.176,0,0,1,.939-.021,5.763,5.763,0,0,1,.9.074,9.611,9.611,0,0,1,3.3,1.083,15.724,15.724,0,0,1,4.844,4.182,28.919,28.919,0,0,1,3.154,5,48.589,48.589,0,0,1,3.606,9.979,68.725,68.725,0,0,1,1.627,8.741A44.984,44.984,0,0,1,75.4,55.1a35.346,35.346,0,0,1-.4,4.381c-.156,1.007-.279,1.541-.279,1.541s-.14-.534-.328-1.53-.452-2.45-.732-4.29l-.993-6.6a77.3,77.3,0,0,0-1.637-8.431,46.052,46.052,0,0,0-3.467-9.424,26.316,26.316,0,0,0-2.885-4.521,13.466,13.466,0,0,0-4.02-3.479,6.934,6.934,0,0,0-2.415-.8,3.485,3.485,0,0,0-.624-.051,2.837,2.837,0,0,0-.592.009,3.146,3.146,0,0,0-.634.075l-.378.074-.095.019-.047.009c.019,0-.11.023.031-.007l-.124.043a7.012,7.012,0,0,0-2.187,1.341,20.371,20.371,0,0,0-2.1,2.06,50.037,50.037,0,0,0-6.784,10.345A67.844,67.844,0,0,0,37.68,59.3a49.64,49.64,0,0,0,.1,11.217,38.936,38.936,0,0,0,2.472,9.673,41.645,41.645,0,0,0,3.987,7.431,49.976,49.976,0,0,0,3.959,5.26c1.208,1.4,2.209,2.452,2.912,3.181C51.825,96.77,52.192,97.169,52.192,97.169Z" fill="#9cbddb"/><path d="M53.865,76.206l-.675-2.316c-.191-.742-.422-1.654-.639-2.711-.171-1.059-.412-2.253-.565-3.569-.2-1.314-.272-2.747-.362-4.265-.053-1.517-.124-3.124-.056-4.782.017-.83.076-1.671.137-2.523s.127-1.714.223-2.58q.119-1.3.312-2.614.164-1.314.4-2.624c.14-.875.3-1.748.5-2.608.18-.865.395-1.719.618-2.565.431-1.694.938-3.342,1.484-4.92.251-.8.579-1.554.857-2.309a9.682,9.682,0,0,1,1.175-2.277A5.258,5.258,0,0,1,59.3,31.78a3.051,3.051,0,0,1,2.823.146,4.306,4.306,0,0,1,1.509,1.69,8.9,8.9,0,0,1,.682,1.692,17.542,17.542,0,0,1,.57,2.776c.1.769.152,1.373.178,1.785l.042.63-.153-.611c-.1-.4-.253-.98-.486-1.705a17.012,17.012,0,0,0-1.005-2.524,5.059,5.059,0,0,0-2.044-2.385,1.443,1.443,0,0,0-1.329.111,4.024,4.024,0,0,0-1.273,1.248,7.664,7.664,0,0,0-.938,1.889c-.256.733-.56,1.465-.79,2.241-.5,1.534-.968,3.14-1.359,4.792-.2.824-.4,1.657-.559,2.5s-.356,1.685-.5,2.535q-.252,1.27-.432,2.55-.209,1.273-.345,2.543c-.108.843-.2,1.682-.258,2.513s-.144,1.65-.173,2.459c-.108,1.616-.195,3.18-.23,4.666l-.013,2.166c.016.7.041,1.374.036,2.025,0,1.3.1,2.491.144,3.55.117,1.046.127,1.977.206,2.74Z" fill="#9cbddb"/></g></g><path d="M176,3a21.024,21.024,0,0,1,21,21V176a21.024,21.024,0,0,1-21,21H24A21.024,21.024,0,0,1,3,176V24A21.024,21.024,0,0,1,24,3H176m0-3H24A24,24,0,0,0,0,24V176a24,24,0,0,0,24,24H176a24,24,0,0,0,24-24V24A24,24,0,0,0,176,0Z"/></svg>
