<svg version="1.1" xmlns="http://www.w3.org/2000/svg" id="muffins" x="0px" y="0px" viewBox="0 0 100 17" enable-background="new 0 0 100 17"><defs><filter id="mm" filterUnits="userSpaceOnUse" x="0" y="0" width="100" height="17"><feColorMatrix type="matrix" values="1 0 0 0 0 0 1 0 0 0 0 0 1 0 0 0 0 0 1 0"/></filter></defs><mask maskUnits="userSpaceOnUse" x="0" y="0" width='100' height="17" id="m"><g filter="url(#mm)"><rect fill-rule="evenodd" clip-rule="evenodd" fill="#FFFFFF" width='100' height="17"/></g></mask><g mask="url(#m)"><path fill-rule="evenodd" clip-rule="evenodd" fill="#BB8C38" stroke="#8A6D31" stroke-width="1.0168" stroke-linejoin="round" stroke-miterlimit="10" d=" M75.6,11.1l-1.2,4.5l-7.6,0.1l-1.5-5.1 M45,10.6l1.5,5.1l7.6-0.1l1.2-4.5 M24.6,10.6l1.5,5.1l7.6-0.1l1.2-4.5 M85.6,10.6l1.5,5.1 l7.6-0.1l1.2-4.5 M4.3,10.6l1.5,5.1l7.6-0.1l1.2-4.5"/><path fill-rule="evenodd" clip-rule="evenodd" fill="none" stroke="#8A6D31" stroke-width="0.6779" stroke-linejoin="round" stroke-miterlimit="10" d=" M72.8,15.6l0.8-3.8 M69.5,11.4l1.2,4.2 M68.2,15.6l0.3-4.2 M52.4,15.6l0.8-3.8 M50.4,15.7l-1.2-4.2 M47.9,15.6l0.3-4.2 M32.1,15.6 l0.8-3.8 M28.9,11.4l1.2,4.2 M27.8,11.4l-0.3,4.2 M93.9,11.8l-0.8,3.8 M91.1,15.7l-1.2-4.2 M88.5,15.6l0.3-4.2 M11.8,15.6l0.8-3.8 M8.5,11.4l1.2,4.2 M7.5,11.4l-0.3,4.2"/><path fill-rule="evenodd" clip-rule="evenodd" fill="#DDC87D" stroke="#D2AF46" stroke-width="1.0168" stroke-miterlimit="10" d=" M64.9,5.2c-0.6-3.5,3.7-5.2,5.7-2.7c1.6-1.8,4.2-1,4.7,1.7C78.2,3,80.4,7.7,77,9c1.3,2.1-0.8,4-2.1,2.9c-1,1.2-2.7,0.8-3.4-0.6 c-0.8,1.2-4,1.6-4.9-0.8c-1.2,1.1-3.3,1.2-2.9-1.4C60.9,8.6,61.6,4.4,64.9,5.2z M43.3,9c-0.4,2.6,1.7,2.5,2.9,1.4 c0.9,2.4,4.1,2,4.9,0.8c0.6,1.4,2.3,1.8,3.4,0.6c1.3,1.1,3.4-0.8,2.1-2.9C60,7.7,57.9,3,55,4.3c-0.5-2.7-3.1-3.5-4.7-1.7 c-2.1-2.5-6.4-0.8-5.7,2.7C41.3,4.4,40.6,8.6,43.3,9z M23,9c-0.4,2.6,1.7,2.5,2.9,1.4c0.9,2.4,4.1,2,4.9,0.8 c0.6,1.4,2.3,1.8,3.4,0.6c1.3,1.1,3.4-0.8,2.1-2.9c3.4-1.3,1.2-6-1.7-4.7c-0.5-2.7-3.1-3.5-4.7-1.7c-2.1-2.5-6.4-0.8-5.7,2.7 C21,4.4,20.2,8.6,23,9z M84,9c-0.4,2.6,1.7,2.5,2.9,1.4c0.9,2.4,4.1,2,4.9,0.8c0.6,1.4,2.3,1.8,3.4,0.6c1.3,1.1,3.4-0.8,2.1-2.9 c3.4-1.3,1.2-6-1.7-4.7c-0.5-2.7-3.1-3.5-4.7-1.7c-2.1-2.5-6.4-0.8-5.7,2.7C82,4.4,81.2,8.6,84,9z M2.7,9c-0.4,2.6,1.7,2.5,2.9,1.4 c0.9,2.4,4.1,2,4.9,0.8c0.6,1.4,2.3,1.8,3.4,0.6C15.2,13,17.3,11.1,16,9c3.4-1.3,1.2-6-1.7-4.7c-0.5-2.7-3.1-3.5-4.7-1.7 C7.5,0,3.2,1.8,3.9,5.2C0.6,4.4-0.1,8.6,2.7,9z"/><path fill-rule="evenodd" clip-rule="evenodd" fill="#B98D3A" d="M68.2,4.4c-0.6,0.6-1.1,0.4-1.4-0.2c-0.3-0.5,0.4-1,1.1-1.1 C68.3,3.1,68.8,3.8,68.2,4.4z M67.8,8.1c-0.3,0-0.8,0.8-0.3,1.1c0.5,0.3,1.1,0.4,1.3-0.1C69,8.5,68.4,8.1,67.8,8.1z M76.7,5.1 c-0.4-0.1-1,0.2-0.9,0.8c0.1,0.6,0.9,0.7,1.1,0.5C77.2,6.1,77.3,5.3,76.7,5.1z M74.9,6.8c-0.4-0.2-1.2-0.3-1.3,0.4 c-0.1,0.7,0.8,1,1.3,0.6C75.4,7.5,75.3,7,74.9,6.8z M47.9,4.4c-0.6,0.6-1.1,0.4-1.4-0.2c-0.3-0.5,0.4-1,1.1-1.1 C47.9,3.1,48.4,3.8,47.9,4.4z M47.5,8.1c-0.3,0-0.8,0.8-0.3,1.1c0.5,0.3,1.1,0.4,1.3-0.1C48.7,8.5,48,8.1,47.5,8.1z M56.3,5.1 c-0.4-0.1-1,0.2-0.9,0.8c0.1,0.6,0.9,0.7,1.1,0.5C56.9,6.1,57,5.3,56.3,5.1z M54.6,6.8c-0.4-0.2-1.2-0.3-1.3,0.4 c-0.1,0.7,0.8,1,1.3,0.6C55.1,7.5,55,7,54.6,6.8z M27.5,4.4C27,5,26.4,4.8,26.1,4.3c-0.3-0.5,0.4-1,1.1-1.1 C27.6,3.1,28.1,3.8,27.5,4.4z M27.2,8.1c-0.3,0-0.8,0.8-0.3,1.1c0.5,0.3,1.1,0.4,1.3-0.1C28.3,8.5,27.7,8.1,27.2,8.1z M36,5.1 c-0.4-0.1-1,0.2-0.9,0.8c0.1,0.6,0.9,0.7,1.1,0.5C36.5,6.1,36.6,5.3,36,5.1z M34.2,6.8C33.9,6.5,33,6.5,33,7.2 c-0.1,0.7,0.8,1,1.3,0.6C34.7,7.5,34.6,7,34.2,6.8z M88.5,4.4C88,5,87.4,4.8,87.1,4.3c-0.3-0.5,0.4-1,1.1-1.1 C88.6,3.1,89.1,3.8,88.5,4.4z M88.2,8.1c-0.3,0-0.8,0.8-0.3,1.1c0.5,0.3,1.1,0.4,1.3-0.1C89.3,8.5,88.7,8.1,88.2,8.1z M97,5.1 c-0.4-0.1-1,0.2-0.9,0.8c0.1,0.6,0.9,0.7,1.1,0.5C97.5,6.1,97.6,5.3,97,5.1z M95.2,6.8c-0.4-0.2-1.2-0.3-1.3,0.4 c-0.1,0.7,0.8,1,1.3,0.6C95.7,7.5,95.6,7,95.2,6.8z M7.2,4.4C6.6,5,6.1,4.8,5.8,4.3c-0.3-0.5,0.4-1,1.1-1.1 C7.3,3.1,7.8,3.8,7.2,4.4z M6.8,8.1C6.5,8.1,6,8.9,6.5,9.2c0.5,0.3,1.1,0.4,1.3-0.1C8,8.5,7.4,8.1,6.8,8.1z M15.7,5.1 c-0.4-0.1-1,0.2-0.9,0.8c0.1,0.6,0.9,0.7,1.1,0.5C16.2,6.1,16.3,5.3,15.7,5.1z M13.9,6.8c-0.4-0.2-1.2-0.3-1.3,0.4 c-0.1,0.7,0.8,1,1.3,0.6C14.4,7.5,14.3,7,13.9,6.8z"/><path fill-rule="evenodd" clip-rule="evenodd" fill="#DA9361" d="M65,7.7c-0.7,0.1-1-0.4-0.9-1c0.1-0.6,1.2-0.8,1.5-0.4 C65.7,6.5,65.7,7.7,65,7.7z M70.8,6c-0.6-0.2-1.2,0.2-1.1,0.9c0.1,0.7,1.1,0.7,1.5,0.4C71.5,6.9,71.4,6.2,70.8,6z M72.8,4.5 c0.4,0.2,1.3-0.5,1-1.1c-0.3-0.6-0.9-0.9-1.3-0.4C72,3.5,72.4,4.3,72.8,4.5z M73,9.6c-0.7,0.2-0.5,1.3,0.2,1.4 c0.8,0.1,1.2-0.9,0.9-1.3C73.9,9.4,73.6,9.4,73,9.6z M44.7,7.7c-0.7,0.1-1-0.4-0.9-1c0.1-0.6,1.2-0.8,1.5-0.4 C45.4,6.5,45.4,7.7,44.7,7.7z M50.5,6c-0.6-0.2-1.2,0.2-1.1,0.9c0.1,0.7,1.1,0.7,1.5,0.4C51.2,6.9,51.1,6.2,50.5,6z M52.4,4.5 c0.4,0.2,1.3-0.5,1-1.1c-0.3-0.6-0.9-0.9-1.3-0.4C51.7,3.5,52.1,4.3,52.4,4.5z M52.7,9.6c-0.7,0.2-0.5,1.3,0.2,1.4 c0.8,0.1,1.2-0.9,0.9-1.3C53.6,9.4,53.2,9.4,52.7,9.6z M24.3,7.7c-0.7,0.1-1-0.4-0.9-1c0.1-0.6,1.2-0.8,1.5-0.4 C25.1,6.5,25,7.7,24.3,7.7z M30.1,6C29.5,5.9,28.9,6.3,29,7c0.1,0.7,1.1,0.7,1.5,0.4C30.9,6.9,30.7,6.2,30.1,6z M32.1,4.5 c0.4,0.2,1.3-0.5,1-1.1c-0.3-0.6-0.9-0.9-1.3-0.4C31.3,3.5,31.8,4.3,32.1,4.5z M32.3,9.6c-0.7,0.2-0.5,1.3,0.2,1.4 c0.8,0.1,1.2-0.9,0.9-1.3C33.2,9.4,32.9,9.4,32.3,9.6z M85.3,7.7c-0.7,0.1-1-0.4-0.9-1c0.1-0.6,1.2-0.8,1.5-0.4 C86.1,6.5,86,7.7,85.3,7.7z M91.1,6C90.5,5.9,89.9,6.3,90,7c0.1,0.7,1.1,0.7,1.5,0.4C91.9,6.9,91.8,6.2,91.1,6z M93.1,4.5 c0.4,0.2,1.3-0.5,1-1.1c-0.3-0.6-0.9-0.9-1.3-0.4C92.3,3.5,92.8,4.3,93.1,4.5z M93.3,9.6c-0.7,0.2-0.5,1.3,0.2,1.4 c0.8,0.1,1.2-0.9,0.9-1.3C94.2,9.4,93.9,9.4,93.3,9.6z M4,7.7c-0.7,0.1-1-0.4-0.9-1c0.1-0.6,1.2-0.8,1.5-0.4C4.7,6.5,4.7,7.7,4,7.7 z M9.8,6C9.2,5.9,8.6,6.3,8.7,7c0.1,0.7,1.1,0.7,1.5,0.4C10.5,6.9,10.4,6.2,9.8,6z M11.8,4.5c0.4,0.2,1.3-0.5,1-1.1 c-0.3-0.6-0.9-0.9-1.3-0.4C11,3.5,11.4,4.3,11.8,4.5z M12,9.6c-0.7,0.2-0.5,1.3,0.2,1.4c0.8,0.1,1.2-0.9,0.9-1.3 C12.9,9.4,12.6,9.4,12,9.6z"/></g><defs><filter id="gr_om" filterUnits="userSpaceOnUse" x="0" y="0" width='100' height="17"><feColorMatrix type="matrix" values="1 0 0 0 0 0 1 0 0 0 0 0 1 0 0 0 0 0 1 0"/></filter></defs></svg>
