<svg version="1.1" id="muffin" xmlns="http://www.w3.org/2000/svg" x="0px" y="0px" viewBox="0 0 20 20" enable-background="new 0 0 20 20" xml:space="preserve"><polyline fill-rule="evenodd" clip-rule="evenodd" fill="#BB8C38" stroke="#8A6D31" stroke-linejoin="round" stroke-miterlimit="10" points=" 5,11.7 6.5,16.7 14,16.6 15.2,12.2 "/><path fill-rule="evenodd" clip-rule="evenodd" fill="none" stroke="#8A6D31" stroke-width="0.6667" stroke-linejoin="round" stroke-miterlimit="10" d=" M12.4,16.7l0.8-3.8 M10.4,16.7l-1.2-4.2 M8.1,12.6l-0.3,4.1"/><path fill-rule="evenodd" clip-rule="evenodd" fill="#DDC87D" stroke="#D2AF46" stroke-miterlimit="10" d="M4.6,6.5 C4,3.1,8.2,1.3,10.2,3.8c1.5-1.8,4.2-1,4.6,1.7c2.9-1.2,5,3.4,1.7,4.7c1.3,2-0.8,3.9-2.1,2.8c-1,1.1-2.7,0.8-3.3-0.6 c-0.8,1.2-3.9,1.6-4.9-0.8c-1.1,1.1-3.2,1.2-2.8-1.4C0.7,9.8,1.4,5.6,4.6,6.5z"/><path fill-rule="evenodd" clip-rule="evenodd" fill="#B98D3A" d="M7.9,5.7C7.3,6.3,6.8,6,6.5,5.5c-0.3-0.5,0.4-1,1-1.1 C8,4.4,8.4,5.1,7.9,5.7z M7.5,9.3c-0.3,0-0.8,0.8-0.3,1.1c0.5,0.3,1.1,0.4,1.3-0.1C8.7,9.7,8,9.3,7.5,9.3z M16.2,6.3 c-0.4-0.1-0.9,0.2-0.8,0.8c0.1,0.6,0.8,0.7,1.1,0.5C16.7,7.3,16.8,6.5,16.2,6.3z M14.5,8c-0.4-0.2-1.2-0.3-1.3,0.4 c-0.1,0.7,0.8,1,1.3,0.6C15,8.7,14.9,8.2,14.5,8z"/><path fill-rule="evenodd" clip-rule="evenodd" fill="#DA9361" d="M4.7,8.9C4,9,3.7,8.5,3.8,8C3.9,7.4,5,7.2,5.3,7.5 C5.5,7.7,5.4,8.9,4.7,8.9z M10.5,7.3C9.8,7.1,9.3,7.5,9.3,8.2c0.1,0.7,1.1,0.7,1.5,0.4C11.2,8.2,11,7.4,10.5,7.3z M12.4,5.7 c0.4,0.2,1.2-0.5,1-1.1c-0.3-0.6-0.8-0.8-1.3-0.4C11.6,4.8,12,5.6,12.4,5.7z M12.6,10.8c-0.6,0.2-0.5,1.3,0.2,1.4 c0.8,0.1,1.2-0.9,0.9-1.2C13.5,10.6,13.2,10.6,12.6,10.8z"/></svg>
