<svg xmlns="http://www.w3.org/2000/svg" viewBox="0 0 16 88"><path fill="#D9272E" d="M8 72c-4.4 0-8 3.6-8 8s3.6 8 8 8 8-3.6 8-8-3.6-8-8-8zm4.2 10.8c0 .1-.1.2-.2.2h-1c-.1 0-.2-.1-.2-.2v-3.2h-.1l-2.2 2.2c-.2.2-.5.2-.7 0l-2.2-2.2h-.1v3.2c0 .1-.1.2-.2.2h-1c-.1 0-.2-.1-.2-.2v-5.7c0-.1.1-.2.2-.2H5c.1 0 .3.1.3.1l2.8 2.8h.2l2.8-2.8c.1-.1.2-.1.3-.1h.7c.1 0 .2.1.2.2v5.7z"/><path fill="#FFDE15" d="M0 48h16v16H0z"/><path d="M3.5 51.2v9.7c0 .4.4.6.7.4l8-4.8c.3-.2.3-.6 0-.8l-8-4.8c-.3-.3-.7-.1-.7.3z"/><linearGradient id="a" gradientUnits="userSpaceOnUse" x1="8" y1="26.373" x2="8" y2="37.627"><stop offset="0" stop-color="#e52d27"/><stop offset="1" stop-color="#bf171d"/></linearGradient><path fill="url(#a)" d="M15.8 28.8s-.2-1.1-.6-1.6c-.6-.6-1.3-.6-1.6-.7-2.2-.1-5.6-.1-5.6-.1s-3.4 0-5.6.2c-.3 0-1 0-1.6.7-.5.5-.6 1.6-.6 1.6S0 30.1 0 31.4v1.2c0 1.3.2 2.6.2 2.6s.2 1.1.6 1.6c.6.6 1.4.6 1.8.7 1.2.1 5.4.1 5.4.1s3.4 0 5.6-.2c.3 0 1 0 1.6-.7.5-.5.6-1.6.6-1.6s.2-1.3.2-2.6v-1.2c0-1.2-.2-2.5-.2-2.5z"/><path fill="#FFF" d="M6.3 34.1l4.4-2.3-4.4-2.2z"/><path opacity=".12" fill-rule="evenodd" clip-rule="evenodd" fill="#420000" d="M6.3 29.6l3.8 2.5.6-.3z"/><g><path fill="#0066DC" d="M0 0h16v16H0z"/><path fill="#FFF" d="M13.8 2.3l-2.5.5v3.6c-.5-.7-1.3-1-2.3-1-1.1 0-2 .4-2.8 1.2-.9.8-1.4 1.8-1.4 3 0 1.3.5 2.4 1.5 3.3.7.7 1.6 1 2.6 1s1.7-.3 2.5-1v.9h2.4V2.3zm-4.3 9.4c-1.3 0-2.2-.9-2.2-2.1 0-1.1.9-2.1 2.1-2.1 1.2 0 2 .9 2 2.1 0 1.2-.9 2.1-1.9 2.1z"/></g></svg>