<svg xmlns="http://www.w3.org/2000/svg" width="9000" height="9000"><path d="M1485.714 5305.714S1254.144 5514.081 1040 5300c-250.103-250.03-677.595-945.462-965.714-1491.428-83.736-158.673-64.934-357.821 51.428-514.286 158.305-212.863 651.429-457.143 651.429-457.143s-265.59-183.306-331.429-360c-64.68-173.584-44.429-435.117 40-600 69.027-134.804 220.225-227.407 360-285.714 93.585-39.04 291.429-51.429 291.429-51.429s153.871-176.059 257.143-234.286c122.376-68.999 411.428-91.428 411.428-91.428s290.35-490.408 845.715-817.143c358.108-210.684 864.626-338.865 1280-348.572 388.936-9.088 787.805 91.633 1137.142 262.858 335.51 164.447 616.472 405.937 868.572 708.571 174.066 208.959 394.285 714.286 394.285 714.286s214.885 12.078 297.143 28.571c74.353 14.908 205.715 97.143 205.715 97.143s98.867 171.755 114.285 285.714c36.963 273.196-60.12 565.183-120 834.286C6771.878 3234.784 6640 3740 6640 3740l428.571 417.143s378.016-14.052 560 28.571c228.422 53.5 451.348 148.622 645.715 280 193.049 130.487 380.411 289.764 497.143 491.429 156.925 271.103 222.998 589.488 223.837 912.612.983 378.069-80.653 779.518-263.837 1110.245-145.706 263.06-374.86 475.863-605.715 668.572C7907.011 7831.136 7400 8100 7400 8100l74.286 194.286s5.713 224.822-51.429 314.285c-69.388 108.638-202.985 163.067-320 217.143-136.333 63.003-284.407 129.609-434.286 120-103.085-6.608-224.575-35.46-302.857-102.857-77.734-66.925-131.592-176.666-177.143-268.571-134.457-271.287-297.142-857.143-297.142-857.143s-266.575 123.921-474.286 17.143c-160.524-82.521-205.714-297.143-205.714-297.143s-592.693 277.54-908.572 354.286c-106.085 25.774-220.6 63.772-325.714 34.285-87.667-24.592-178.008-54.138-234.286-125.714-105.433-134.094-185.206-295.293-217.143-462.857-19.27-101.108-46.116-273.696 0-365.714C3593.688 6735.796 3874.286 6580 3874.286 6580s-112.364-472.675-131.429-720c-18.6-241.309 28.572-731.429 28.572-731.429-132.484-29.557-198.773-37.05-285.715-51.428 0 0 94.175 549.352-245.714 857.143-268.99 243.587-744.48 251.265-1097.143 165.714-179.707-43.594-323.298-192.382-451.429-325.714-165.786-172.516-205.714-468.572-205.714-468.572z" fill="#2e1263"/><path d="M2072.833 1298.597s610.915-982.485 1854.64-985.909c757.731-2.086 1088.228 221.57 1495.026 565.686 436.703 369.413 630.335 913.177 630.335 913.177l-101.015 129.3-755.594-832.366-1006.112-351.533-864.69 165.665-436.387 303.046-501.035 533.36c-57.591-152.082-160.611-299.117-315.168-440.426z" fill="#3b277d"/><path d="M2386.082 1736.657S2834.76 591.34 4125.463 591.49c422.086.05 747.63 35.53 1200.061 404.061 531 432.53 624.621 926.484 624.621 926.484-237.455-169.57-364.672-103.478-523.606-98.159l-230.314-286.883-666.701-468.71-1014.193 64.649-787.92 496.995-101.014 96.975c-88.42-17.534-161.639-7.783-240.315 9.755z" fill="#4b3594"/><path d="M2626.397 1726.902s179.233-379.897 517.198-598.01c319.159-205.978 577.432-253.588 856.61-254.56 424.025-1.474 687.645 115.165 953.583 319.21 322.701 247.595 473.762 630.334 473.762 630.334l-140.023 26.898c-20.449-131.262-103.686-235.373-265.049-305.7L4076.976 1189.5l-957.625 440.427c-120.48-27.696-212.111-46.184-411.132 133.34-18.386-16.566-47.31-27.863-81.822-36.365z" fill="#6860ab"/><path d="M3118.86 1629.458s255.641-451.198 945.994-484.404c639.96-30.783 930.95 389.327 930.95 389.327-172.06 35.254-290.447 61.494-405.67 79.384-399.901-238.092-789.386-215.79-1167.737 84.852l-202.03 8.082c-23.846-51.97-62.815-64.241-101.506-77.241z" fill="#b0acd5"/><path d="M1776.495 2835.277s531.44-953.396 217.143-1222.857c-187.948-161.137-495.962-175.63-702.857 240-488.47-112.537-786.458 227.31-542.857 594.285 198.397 298.878 1028.571 388.572 1028.571 388.572z" fill="#fff"/><path d="M802.857 2420l51.429-368.571 148.571-17.143-2.857 37.143c88.275-66.113 166.753-94.995 217.143-17.143 88.669-75.94 270.463-142.164 251.428 20-3.61 56.488-30.083 177.255-5.714 177.143 82.016-2.899 90.476-193.334 114.286-285.715l157.143-20c-7.986 90.44-57.529 284.773-22.857 268.572 65.258-3.271 91.904-185.238 105.714-280l154.286-17.143c-32.063 247.382-45.523 581.24-228.572 631.428-150.468 47.372-233.278-28.927-234.286-88.571 2.251-136.708 229.156-102.178 125.715 11.429 75.723 123.675 105.413-108.976 122.857-188.572-81.242 62.605-156.83 74.328-222.857 0-78.741 116.54-250.35 131.894-245.715 17.143 1.905-74.286 28.681-225.644 5.715-222.857-98.123 14.486-61.915 210.462-97.143 311.428L1034.286 2400c5.714-100 44.882-304.155 17.143-300-83.1 11.159-76.19 207.62-114.286 311.429z" fill="#2e1263"/><g fill="#fff"><path d="M2397.143 1977.143c7.628 154.267.493 349.49 37.143 445.714 127.709 2.902 245.537.864 342.857-11.428 5.507-36.294 18.432-78.442-5.714-102.858-40.272-40.719-171.429-11.428-171.429-11.428 9.673-118.095 9.293-236.19-11.429-354.286-70.84-41.373-135.701-60.361-191.428 34.286zM2865.714 2094.286s0 228.571 40 288.571c40 60 171.429 0 171.429 0l-28.572-305.714s-108.571-31.429-182.857 17.143zM3037.143 1897.143a105.714 91.429 0 11-211.429 0 105.714 91.429 0 11211.429 0zM3180 1900s271.429-48.571 374.286-20c102.857 28.571 48.571 145.714 20 154.286-28.572 8.571-117.143 11.428-117.143 11.428l20 297.143s-157.143 60-160-2.857c-2.857-62.857-11.429-265.714-11.429-265.714S3154.286 2122.857 3180 1900zM3684.287 1865.867s271.429-48.571 374.286-20c102.857 28.571 48.572 145.714 20 154.286-28.571 8.571-117.143 11.428-117.143 11.428l20 297.143s-157.143 60-160-2.857c-2.857-62.857-11.428-265.714-11.428-265.714s-151.429 48.571-125.715-174.286zM4180 1862.857l37.143 414.286s334.286 25.714 331.428-34.286c-2.857-60 5.715-91.428-28.571-91.428s-131.429 11.428-131.429 11.428L4354.286 1840s-91.429-42.857-174.286 22.857zM4837.143 1894.286l134.286-5.715-5.715-131.428-328.571 2.857 11.428 402.857s-11.428 94.286 94.286 91.429c105.714-2.857 234.286-17.143 234.286-17.143l-2.857-100-137.143 5.714-2.857-88.571 128.571-8.572v-68.571h-128.571zM339.411 3771.45c264.45 432.996 600.455 995.772 848.528 1292.996 51.034 61.145 119.643 46.52 153.544 8.08 77.76-88.167 137.498-164.012 202.03-250.517 55.91-74.947 44.874-135.947 8.081-185.868-53.54-72.645-153.543-202.03-153.543-202.03s405.032-195.326 480.833-331.33c139.064-249.515 148.682-438.43-101.015-759.635-378.004-486.255-730.72-350.978-1026.316-169.706-121.231 74.345-285.243 164.195-387.898 242.437-94.485 72.014-116.503 204.513-24.244 355.573zM2084.955 3440.12c41.35 260.032 27.77 544.83 509.117 585.889 495.802 42.292 819.707-178.117 832.365-509.117 9.27-242.416-197.612-832.619-448.507-901.056-214.471-58.502-512.324-8.338-727.31 109.096-231.116 126.246-207.326 453.2-165.665 715.188zM3535.534 2769.38s105.39 1007.17 185.868 1394.01c15.598 74.977 71.28 152.366 189.909 129.3 147.222-28.628 224.666-73.162 363.655-109.097 54.845-14.18 64.457-106.246 52.527-161.625-33.5-155.503-80.812-460.63-80.812-460.63l739.432 533.361 379.817-92.934s-173.559-965.995-254.558-1426.335c-18.869-107.237-61.036-153.349-157.584-149.503-73.19 2.916-145.394 15.337-250.518 44.447-82.694 22.899-85.63 98.748-80.812 157.584 20.945 255.809 117.178 743.472 117.178 743.472s-125.04-123.132-634.376-743.472c-102.386-124.7-190.05-90.701-290.924-88.894-58.156 1.042-116.935 3.683-173.746 16.163-150.308 33.018-105.056 214.152-105.056 214.152zM5268.956 2373.4c143.137 466.102 525.279 1377.847 525.279 1377.847l-165.665 375.777 262.64 206.071 238.396-32.325s134.614-349.479 185.868-529.32c147.069-516.035 328.691-1071.824 347.492-1571.797 2.349-62.451-50.676-151.567-113.137-149.502-103.725 3.428-196.3 11.394-327.29 24.243-64.144 6.293-84.261 109.296-84.852 173.746-2.85 310.92-88.894 864.691-88.894 864.691s-172.48-576.528-238.396-884.894c-14.818-69.32-94.897-137.445-165.665-133.34-102.53 5.949-186.493 14.088-319.208 32.325-83.51 11.476-81.314 165.896-56.568 246.477z"/></g><g fill="#2e1263"><path d="M1610.656 4123.155c-150.95 11.943-257.733 5.61-326.855-19.387-57.902-20.94-105.009-72.918-114.84-126.718-6.094-33.338-1.971-56.14 15.507-85.785 15.249-25.863 30.779-41.145 59.794-58.837 20.838-12.706 71.887-27.718 102.974-30.28l25.215-2.08 8.547-29.642c10.125-35.114 40.206-88.346 60.077-106.313 38.054-34.407 85.865-45.71 136.35-32.236 22.602 6.032 51.959 22.659 63.499 35.963 11.305 13.034 25.448 42.171 31.037 63.942 19.981 77.835 14.862 184.07-16.517 342.763-9.623 48.666-6.802 45.604-44.788 48.61zM3028.278 3659.946c-150.887-12.717-255.225-36.3-319.373-72.185-53.735-30.06-91.78-88.996-92.75-143.679-.6-33.884 7.169-55.715 29.227-82.13 19.245-23.045 37.05-35.603 68.552-48.35 22.623-9.156 75.432-15.682 106.524-13.165l25.218 2.042 13.245-27.862c15.69-33.005 54.013-80.649 76.536-95.151 43.135-27.774 92.147-31.167 139.776-9.677 21.322 9.621 47.59 30.792 56.818 45.793 9.04 14.696 18.266 45.743 20.247 68.132 7.082 80.046-15.214 184.042-71.936 335.536-17.394 46.459-14.114 43.896-52.084 40.696z"/></g><path d="M5200 7228.571s-608.101-1249.178-457.143-1874.285c75.345-311.996 23.886-606.56 628.572-902.857 691.417-338.797 1207.555 770.841 1188.571 880 0 0 1079.548-532.5 1462.857 377.142 192.187 456.084-97.78 809.329-342.857 1108.572-373.72 456.318-1577.143 805.714-1577.143 805.714s407.994 1128.876 480 1182.857c64.356 48.246 650.73-188.275 685.714-274.285 17.597-43.263-194.285-480-194.285-480 237.772-51.429 908.347-478.604 1211.428-822.858 386.896-439.454 525.863-955.66 502.857-1474.285-47.977-1081.602-1347.466-1498.598-1862.857-1280 64.266-45.904-820.137-1172.83-1977.143-582.857-484.882 247.248-808.465 808.29-937.142 1337.142C3883.29 5755.204 4228.57 6840 4228.57 6840s-441.998 128.185-457.142 194.286c-20.664 90.191 126.727 571.075 228.571 628.571 156.565 88.39 1200-434.286 1200-434.286z" fill="#a82b75"/><path d="M4708.571 6611.429a160 160 0 11-320 0 160 160 0 11320 0z" fill="#2e1263"/><path d="M4554.286 5440a160 160 0 11-320 0 160 160 0 11320 0zM5005.714 4371.429a160 160 0 11-320 0 160 160 0 11320 0zM6948.571 4840a160 160 0 11-320 0 160 160 0 11320 0zM8017.143 4954.286a160 160 0 11-320 0 160 160 0 11320 0zM8605.714 5977.143a160 160 0 11-320 0 160 160 0 11320 0zM8114.286 7022.857a160 160 0 11-320 0 160 160 0 11320 0zM7137.143 7685.714a160 160 0 11-320 0 160 160 0 11320 0z" opacity=".731" fill="#2e1263"/><path d="M6123.94 4135.105a160 160 0 11-320 0 160 160 0 11320 0z" opacity=".731" fill="#fff"/><path d="M4328.344 5580.705c-93.102-50.164-117.18-154.614-54.68-237.203 46.954-62.048 150.342-75.912 210.323-28.205 89.789 71.418 85.9 185.919-8.716 256.56-29.58 22.084-113.033 27.11-146.927 8.848zM4780.558 4511.048c-51.874-23.562-92.51-84.336-92.51-138.353 0-52.387 46.495-122.576 94.479-142.625 31.306-13.08 89.642-14.2 121.077-2.322 48.335 18.262 98.98 88.066 99.299 136.866.57 86.997-71.903 161.27-157.361 161.27-17.779 0-47.022-6.676-64.984-14.835zM6728.466 4984.016c-97.11-44.817-123.954-170.36-53.574-250.546 39.513-45.017 128.603-59.193 186.472-29.67 103.284 52.691 109.069 199.645 10.517 267.173-33.869 23.207-106.983 29.857-143.415 13.043zM7795.187 5096.832c-13.334-5.843-35.98-22.671-50.326-37.398-93.903-96.398-22.546-258.434 113.809-258.434 87.004 0 150.67 64.846 150.67 153.464 0 43.158-18.92 90.527-45.903 114.928-39.901 36.083-119.058 48.992-168.25 27.44zM8381.236 6116.219c-19.574-10-46.71-32.158-60.301-49.238-22.48-28.248-24.712-36.396-24.712-90.163 0-54.073 2.139-61.756 25.1-90.164 36.693-45.397 71.609-63.11 124.402-63.11 52.794 0 87.71 17.713 124.402 63.11 22.962 28.408 25.101 36.091 25.101 90.163 0 53.768-2.233 61.916-24.712 90.164-29.779 37.422-85.304 67.42-124.79 67.42-15.896 0-44.916-8.182-64.49-18.182zM7892.162 7165.624c-13.334-5.842-35.98-22.671-50.326-37.397-93.903-96.399-22.547-258.435 113.808-258.435 64.783 0 128.732 45.54 146.688 104.46 15.92 52.238-3.836 129.492-41.92 163.933-39.902 36.082-119.059 48.992-168.25 27.439zM6913.82 7828.124c-13.618-5.93-38.013-26.267-54.213-45.193-83.049-97.023-21.978-239.566 106.625-248.868 166.58-12.05 229.956 213.547 81.296 289.388-36.502 18.622-96.837 20.73-133.709 4.673z" fill="#2e1263"/><path d="M5904.182 4276.562c-61.463-28.456-92.934-76.946-92.934-143.19 0-99.575 93.993-173.11 188.982-147.847 145.872 38.794 158.768 235.56 19.258 293.85-39.347 16.44-75.633 15.555-115.306-2.813z" fill="#fff"/><g><path d="M5476.84 4408.202s-255.084 292.18-726 315.206c-615.898 30.116-963.855-135.523-1257.144-251.428-432.364-170.867-940.295-366.555-1394.285-34.286-339.133 248.206-505.024 849.582-194.286 1245.714 310.109 395.33 1057.409 322.827 1245.714-45.714 125.246-245.125 34.165-591.74-217.143-582.857-257.17 9.09-308.938 148.814-297.143 285.714 21.982 255.123 365.715 217.143 365.715 217.143-85.352 80.604-383.365 266.727-531.429-177.143-81.751-245.077 211.449-489.369 440-565.714 326.725-109.14 1417.55 285.065 1965.714 240 803.185-66.03 1101.124-559.94 1101.124-559.94-179.3-121.561-342.98-125.963-500.836-86.696z" fill="#fff"/></g></svg>