<svg xmlns:osb="http://www.openswatchbook.org/uri/2009/osb" xmlns="http://www.w3.org/2000/svg" xmlns:xlink="http://www.w3.org/1999/xlink" width="1006.477" height="1154.755" viewBox="0 0 943.572 1082.583"><defs><linearGradient id="c" osb:paint="solid" gradientTransform="translate(38.4 40.959) scale(.6365)"><stop offset="0" stop-color="#1baab2"/></linearGradient><linearGradient id="b" osb:paint="solid" gradientTransform="matrix(.58534 0 0 .58534 25.04 32.73)"><stop offset="0" stop-color="#3f225a"/></linearGradient><linearGradient id="a" osb:paint="solid" gradientTransform="scale(.6365)"><stop offset="0" stop-color="#e9e6e9"/></linearGradient><linearGradient xlink:href="#a" id="e" x1="73.87" y1="248.189" x2="248.458" y2="248.189" gradientUnits="userSpaceOnUse"/><linearGradient xlink:href="#b" id="f" x1="92.409" y1="255.414" x2="233.9" y2="255.414" gradientUnits="userSpaceOnUse"/><linearGradient xlink:href="#c" id="d" x1="73.023" y1="254.628" x2="269.762" y2="254.628" gradientUnits="userSpaceOnUse"/></defs><path transform="translate(45.636 51.234) scale(.9375)" d="M505.064-54.645C393.646-54.073 286.43-10.439 202.486 98.1c-29.388 4.549-55.734 16.215-77.863 38.09-44.675 6.951-67.547 24.911-88.4 48.39-11.058 11.896-19.068 25.356-24.32 39.129-17.504 43.577-12.274 88.837 8.751 122.484L-2.19 359.951l-.159.094-.203.121c-28.985 17.454-41.971 49.52-45.377 78.02-3.02 25.274 3.25 50.2 15.953 70.23h.002L70.898 669.697l8.86 14.33.047.074c.07.113.21.34.39.624l.01.011c2.328 3.668 4.683 6.797 6.834 9.473 18.213 26.547 47.625 40.581 73.274 42.322A167.247 167.247 0 00184 776.43c-19.976 16.913-33.632 38.074-33.666 62.728-.07 50.742 49.678 82.844 92.115 99.305-29.828 130.165 156.285 161.605 245.155 161.642 118.366.05 307.683-39.825 282.396-150.248 54.602-23.657 81.654-51.41 82.049-95 .29-31.948-31.956-60.183-54.979-75.687-38.6-25.996-82.167-38.884-126.078-45.326a229.22 229.22 0 0036.135-8.453c105.52-33.923 161.559-112.383 192.303-190.19 36.125-91.427 45.765-161.12 57.428-241.87 4.27-29.562-6.774-60.655-17.563-75.388-4.157-5.676-11.072-15.607-23.273-24.05-12.201-8.444-29.703-18.488-48.317-18.346h-.01c-1.603.012-2.886.053-3.912.1a53.952 53.952 0 00-1.5.085c-.375.019-.738.03-1.123.055h-.022l-6.156.404c-.4.017-.827.033-1.12.05h-.003l-2.807.153c-.115-.06 1.231-.105-1.7-.091l-.003-.006C790.784 24.903 647.28-55.374 505.064-54.645z" style="isolation:auto;mix-blend-mode:normal;solid-color:#000;solid-opacity:1" color="#000" overflow="visible" fill="url(#a)"/><path style="isolation:auto;mix-blend-mode:normal;solid-color:#000;solid-opacity:1" d="M478.998 721.175c137.26-3.632 285.344 35.145 285.344 84.238 0 25.146-38.073 51.955-107.03 69.282 0 0 31.752 8.82 31.752 31.38 0 49.628-98.132 86.784-221.677 89.118-104.498 1.973-180.647-34.572-180.708-82.234-.033-26.402 30.09-37.966 51.209-41.158-65.88-10.472-135.189-45.179-135.189-75.715 0-44.49 90.01-69.983 276.3-74.911z" color="#000" overflow="visible" fill="url(#b)" transform="translate(45.636 51.234)"/><path d="M466.29 709.526c-182.15 0-289.026 28.022-289.026 77.7 0 32.102 44.467 59.906 113.624 79.02-20.89 7.126-32.732 18.821-31.705 37.735 3.05 56.132 84.61 90.064 189.945 90.064 122.131 0 227.95-47.012 227.95-95.85 0-14.655-13.423-25.801-36.869-31.177 66.53-12.242 113.406-40.853 113.406-67.289 0-52.757-129.44-90.203-287.325-90.203zm-6.228 7.415c156.866 0 280.502 37.572 280.502 81.927 0 25.244-43.63 52.386-117.18 68.782 19.152 4.561 42.402 16.635 42.402 30.63 0 43.722-100.76 84.693-216.074 86.872-104.903 1.981-178.45-33.531-179.374-83.835-.332-18.083 20.8-31.998 41.98-35.414-66.037-18.253-122.513-47.82-122.513-78.474 0-44.663 83.179-70.488 270.257-70.488z" style="isolation:auto;mix-blend-mode:normal;solid-color:#000;solid-opacity:1" color="#000" overflow="visible" fill="url(#c)" transform="translate(45.636 51.234)"/><g transform="translate(48.122 53.886)" fill="url(#c)" color="#000"><path d="M272.342 839.176c3.298-5.374 6.891-13.369 7.545-21.084 1.064-12.574-.338-34.154-1.856-41.186-1.155-5.349-3.41-12.253-7.05-16.094-2.114-2.231-2.07-3.065.79-2.823 12.93 1.09 26.016 2.048 39.804 1.411 5.122-.237 8.056-.887 10.106-2.315 1.586-1.105 2.295.105 2.315 1.242.087 5.104.422 10.98.846 15.922.262 3.047-.5 3.405-2.145 1.806-5.331-5.182-24.826-4.128-30.262-3.274l.413 15.934c5.73-1.09 9.662-3.883 13.193-8.154 1.119-1.352 2.477-.838 2.506.802l.475 26.51c.048 2.652-1.258 3.178-2.292 1.591-3.506-5.379-7.513-10.51-13.665-12.37l.556 21.475c.189 7.294 3.365 14.835 6.493 18.236 1.086 1.181 1.517 2.94-1.13 2.823-6.248-.278-19.788 1.025-24.164 2.258-2.893.815-4.453.51-2.478-2.71z" style="isolation:auto;mix-blend-mode:normal;solid-color:#000;solid-opacity:1;marker:none" overflow="visible"/><path d="M312.048 782.556c-1.07.051-1.156.534-.425 2.05 9.692 20.117 8.594 46.167 1.118 59.722-.68 1.23-1.413 2.649 1.559 2.227 5.046-.716 12.643-.497 17.597.669 2.312.544 2.192-.767 1.449-1.783-2.26-3.09-4.832-14.437-4.548-19.489.112-1.992 2.815-1.974 3.88-1.115 5.542 4.475 6.365 18.725 10.678 27.541 3.573 7.301 10.625 16.273 20.716 15.547 7.902-.568 11.965-5.684 11.969-10.238.004-5.3-3.69-9.123-8.348-11.34 1.454 5.334.04 10.604-5.354 10.395-5.567-.216-9.824-6.156-12.946-17.39-2.26-8.13 1.24-13.96-6.743-18.678 2.88-2.044 10.79-9.555 10.71-14.648-.118-7.437-6.542-14.544-16.819-18.866-6.778-2.85-15.673-4.237-23.974-4.603a5.64 5.64 0 00-.519-.002zm19.594 12.787c1.17-.013 2.324.265 3.006.793 8.935 6.913 2.073 18.974-6.203 17.676l-.669-15.766c-.078-1.848 1.916-2.681 3.866-2.703z" style="isolation:auto;mix-blend-mode:normal;solid-color:#000;solid-opacity:1;marker:none" overflow="visible"/><path style="isolation:auto;mix-blend-mode:normal;solid-color:#000;solid-opacity:1;marker:none" d="M363.177 764.214a10.914 10.914 0 00-10.915 10.914 10.914 10.914 0 0010.915 10.914 10.914 10.914 0 0010.913-10.914 10.914 10.914 0 00-10.913-10.914zm-9.714 25.015c-2.042 0-1.645.983-.63 1.89 9.834 8.775 7.009 27.175-1.102 38.272-1.451 1.985-1.16 2.551.787 2.52 5.47-.09 15.652.864 20.634 1.417 1.251.138 1.482-.31.63-2.362-5.085-12.263-8.675-30.979.158-39.533.92-.891 1.174-2.204-.788-2.204zM377.361 838.05c-1.702 2.174-1.48 3.027 1.13 2.874 14.243-.83 33.765 1.235 42.804 1.433v-20.213c0-1.55-1.547-1.323-2.069-.08-.876 2.087-5.547 8.181-10.174 7.87l-14.017-.946.185-12.297c3.61.404 8.599 2.399 12.576 4.695 1.32.762 1.92.501 1.618-.994-1.04-5.156-1.23-11.776-1.05-17.664.036-1.209-1.329-.624-1.66-.058-1.65 2.83-4.835 6.535-11.368 6.304l.177-11.737h13.408c5.326 0 8.787 4.84 10.862 7.64.697.94 1.68.943 1.592 0l-1.91-20.372c-.106-1.13-1.255-1.317-1.91 0-.852 1.713-4.195 4.521-9.834 4.016l-29.715-2.663c-2.148-.193-2.199.752-1.433 1.75 10.03 13.063 11.047 37.334.788 50.442zM424.018 845.659c-1.351.685-1.411 2.5 1.6 2.285l22.393-1.6c3.377-.24 1.67-1.593.628-3.027-2.834-3.9-4.554-11.165-4.587-16.04l-.162-23.914c5.922 16.86 11.31 37.979 12.28 53.32.151 2.392 1.286 2.425 2.262 2.101 4.266-1.415 11.866-2.685 17.45-2.908 1.022-.041 2.132-1.852.97-2.908-2.976-2.708-5.846-8.539-5.817-13.411l.323-53.806c.042-6.867 4.096-14.477 6.625-16.966 1.931-1.9 1.663-3.056-.161-2.746l-26.66 4.524c-2.174.369-1.71 1.743.322 2.747 3.88 1.916 10.375 9.386 10.503 16.157l.646 34.255-12.28-39.587c-.361-1.166-1.525-2.423-2.746-2.423h-24.883c-1.534 0-1.588 1.862 0 2.262 3.539.892 9.273 7.303 9.371 15.754l.323 27.791c.076 6.496-2.776 15.288-8.4 18.14z" overflow="visible"/><path d="M478.593 773.807c-1.384-.051-3.028.298-1.036 2.417 4.608 4.902 6.12 11.325 7.48 18.182 1.744 8.801 2.09 18.126 1.38 27.848-.633 8.675-2.803 16.039-8.054 20.137-3.078 2.402-2.647 3.734.974 3.487 13.344-.912 25.32-3.253 36.884-10.735 17.923-11.597 18.272-45.897-4.948-55.122-10.573-4.201-21.772-5.814-32.68-6.214zm26.139 15.533c1.278.005 2.496.16 3.205.463 2.639 1.127 7.247 14.786 7.25 21.518.003 6.286-4.583 16.025-7.365 17.837-2.22 1.446-6.967.555-7.825-1.95-2.965-8.662-2.948-30.919-.101-36.659.402-.812 2.704-1.217 4.836-1.209z" style="isolation:auto;mix-blend-mode:normal;solid-color:#000;solid-opacity:1;marker:none" overflow="visible"/><path d="M528.855 824.437c-.694-.796-1.532-2.835 1.418-2.835h18.9c1.492 0 1.71 1.894.112 3.225-2.177 1.812-5.639 3.837-5.707 6.478-.104 4.009 4.318 7.34 8.273 6.677 5.465-.915 8.738-9.39 7.56-14.805-1.923-8.837-14.622-13.41-21.263-16.853-11.063-5.735-10.035-17.04-5.985-24.098 4.285-7.467 14.916-12.378 24.386-8.505 2.942 1.202 6.708 1.385 8.743-2.284.788-1.421 2.729-.61 2.729.613v23.165c0 1.854-3.011 1.912-3.453 0-.773-3.347-3.655-9.658-8.91-11.137-4.652-1.31-11.665 2.29-12.25 6.515-.722 5.21 6.864 7.662 11.693 9.745 9.354 4.035 18.018 11.139 18.265 20.604.309 11.81-8.929 28.822-20.715 30.182-10.456 1.206-19.363-7.22-21.462-16.961-.876-4.067-.19-7.266-2.334-9.726z" style="isolation:auto;mix-blend-mode:normal;solid-color:#000;solid-opacity:1;marker:none" overflow="visible"/><path d="M624.102 774.37l-27.29 1.86c-1.393.094-1.61 1.91 0 2.92 5.232 3.28 7.316 11.508 8.22 20.409.172 1.682.375 4.111.571 6.872l-14.85.565c.04-2.022.107-4.04.2-6.057.254-5.546 1.896-11.388 5.122-15.849 1.027-1.418.717-2.476-.481-2.4l-25.29 1.6c-1.086.069-1.044 1.454 0 2.241 4.19 3.162 6.515 8.145 8.538 15.665 1.241 4.612 1.756 16.536 1.187 22.913-.53 5.954-1.999 12.119-7.645 16.007-1.282.883-.91 1.807 1.281 1.762 4.486-.094 17.589-.02 23.37.64 2.513.287 3.949-.317 1.761-2.24-3.434-3.02-6.773-9.626-7.49-17.297-.26-2.788-.422-5.549-.51-8.294l15.319-.234c.217 5.1.306 10.245.06 13.963-.51 7.758-2.323 17.152-7.759 22.22-1.234 1.15-.849 2.636 1.233 2.294 4.639-.761 19.973-.746 25.539.114 2.42.374 4.047-.946 1.134-2.44-6.107-3.134-9.393-10.606-10.196-22.413-.693-10.189-.565-20.786-.228-30.703.245-7.227 1.146-15.856 8.667-20.99 1.73-1.18.692-3.207-.463-3.128z" style="isolation:auto;mix-blend-mode:normal;solid-color:#000;solid-opacity:1;marker:none" overflow="visible"/><path style="isolation:auto;mix-blend-mode:normal;solid-color:#000;solid-opacity:1;marker:none" d="M636.515 752.426c-6.028 0-10.914 4.886-10.915 10.913 0 6.029 4.887 10.915 10.915 10.915 6.027 0 10.913-4.887 10.913-10.915 0-6.027-4.886-10.912-10.913-10.913zm-11.944 27.358c-2.379 0-1.915 1.146-.732 2.2 11.452 10.221 8.163 31.652-1.284 44.576-1.69 2.312-1.352 2.97.915 2.933 6.37-.104 18.23 1.008 24.033 1.652 1.457.162 1.726-.362.734-2.752-5.923-14.282-10.103-36.08.183-46.042 1.072-1.038 1.368-2.567-.917-2.567z" overflow="visible"/><path d="M648.565 773.246c-1.603-.03-2.389.558-.669 2.174 3.967 3.728 9.466 11.784 9.62 19.332l.644 31.775c.123 6.081-1.74 10.816-5.647 13.889-1.934 1.521-1.73 2.936.058 2.936 7.666 0 15.95-.444 22.978-.227 1.013.031 3.211-.29.678-2.823-3.746-3.746-5.718-10.227-6.323-21.003 10.216-.036 26.868-9.234 28.004-14.904 1.557-7.773-2.184-25.955-16.6-27.553l-32.009-3.547a8.128 8.128 0 00-.733-.05zm24.556 15.37c9.393-.065 11.539 4.97 11.236 9.004-.672 8.965-11.846 10.646-14.905 11.065l1.694-19.987c.692-.051 1.35-.078 1.975-.082zM313.876 877.128a5.627 5.627 0 00-5.43 5.82 5.627 5.627 0 005.82 5.427 5.627 5.627 0 005.429-5.82 5.627 5.627 0 00-5.82-5.427zm-5.404 11.79c-1.19-.014-.694.465-.27.918 4.59 4.915 4.587 12.877-.843 17.016-.939.715-.507 1.307.421 1.197 2.867-.337 10.407-.334 12.807-.152.602.046.942-.32.263-1.144-4.022-4.88-4.745-11.659-1.338-16.657.346-.509.526-1.034-.416-1.046z" style="isolation:auto;mix-blend-mode:normal;solid-color:#000;solid-opacity:1;marker:none" overflow="visible"/><g><path style="isolation:auto;mix-blend-mode:normal;solid-color:#000;solid-opacity:1;marker:none" d="M320.343 899.635l9.637-.285c.6-.017.809.955.045 1.298-1.444.648-2.066 1.829-2.093 2.892-.042 1.613 1.119 2.64 3.157 2.342 2.658-.389 4.148-4.526 3.33-6.763-1.252-3.417-5.885-1.95-8.787-3.22-4.594-2.011-4.785-6.915-2.237-10.904 1.866-2.92 5.843-6.329 9.527-3.825 2.11 1.433 4.554-.044 5.86-1.724.402-.516 1.099-.245 1.099.247v9.323c0 .745-1.212.77-1.39 0-.31-1.348-2.852-3.684-4.966-3.995-1.925-.283-5.06.921-5.296 2.622-.29 2.097 2.397 2.596 4.34 3.434 3.765 1.624 7.768 3.621 7.868 7.43.124 4.753-4.11 12.461-8.854 13.008-4.208.486-7.914-2.702-8.759-6.622-.352-1.637-2.097-3.107-3.133-3.914-1.092-.852-.55-1.309.652-1.344zM350.904 941.43c-.783.018-2.678-.91-.315-1.968 5.712-2.556 8.742-5.395 8.742-10.71v-33.44c0-6.9-3.002-13.462-8.026-19.044-.789-.876-.58-2.257 2.227-1.67 7 1.463 12.297.21 17.485-1.337 2.95-.88 3.98-.086 4.177 1.337 1.947 14.027 5.762 25.221 9.745 36.975l7.704-45.98c.284-1.698.374-3.37-.788-5.04-.649-.933-.586-1.733.63-1.733h22.366c1.597 0 1.23 1.724.27 2.353-3.235 2.124-5.917 5.628-5.94 10.248l-.334 66.141c-.025 4.907 3.475 8.938 6.634 12.453.838.932 2.651 3.356-.788 3.386l-25.202.219c-1.302.011-1.163-1.068.084-2.345 3.85-3.944 9.15-9.062 9.155-14.085l.055-56.634-12.6 53.708c-.558 2.379-2.568 2.502-3.307 0l-10.71-36.225c-.32 13.784-2.97 25.513-1.89 37.17.257 2.784 3.926 3.476 5.67 4.095 1.348.48.8 1.558 0 1.575z" overflow="visible"/><path d="M451.058 853.874c-.17.008-.356.039-.556.096-6.73 1.919-15.343 4.016-22.831 4.12-1.187.018-2.378 1.35-1.003 2.563 2.865 2.525 5.162 6.428 5.123 10.246-.148 14.78-2.404 30.518-8.353 44.327-2.177 5.053-5.27 10.084-9.688 13.364-2.7 2.005-1.104 2.638.556 2.338 3.707-.67 16.002-.559 21.16-.668 1.412-.03 1.395-1.98.369-3.878-2.646-4.891-3.995-12.915-1.37-20.846h12.028c1.997 5.99 3.24 13.975 2.896 21.05-.203 4.154-.631 9.315-2.896 12.139-.855 1.067-1.19 2.758.89 2.45 5.94-.882 12.945-1.337 17.598-1.56 2.302-.11 2.513-1.607.444-3.676-3.592-3.592-6.724-7.957-7.893-16.091-2.767-19.25-6.599-46.528-6.696-61.423-.008-1.03.785-1.915 1.337-2.784.493-.776.074-1.824-1.115-1.767zm-9.576 21.926c1.578 7.158 2.98 14.484 3.896 22.275l-7.795-.112c1.558-7.647 2.755-14.931 3.899-22.163zM515.111 861.89c-1.173 4.085-1.798 15.29-2.048 20.475-.057 1.191-2.117.671-2.52-1.102-.675-2.977-3.368-5.359-5.985-6.93-6.092-3.66-14.411-7.137-20.633-3.702-7.064 3.901-8.048 15.638-7.967 23.708.118 11.828 1.177 27.1 12.22 31.34 2.849 1.093 10.335-1.542 12.443-4.253l-.473-17.325c-.091-3.36-2.994-6.495-5.189-8.542-.984-.918-.866-1.652 1.252-2.011l18.585-3.15c1.894-.321 1.655 1.292.945 2.205-1.399 1.798-3.497 7.601-3.623 10.553-.143 3.388.479 19.29-.315 21.735-1.416 4.367-13.44 14.06-18.15 14.805-16.268 2.571-28.253-15.543-29.73-26.933-1.827-14.081-2.095-31.302 1.732-42.84 3.087-9.31 14.493-14.662 25.516-14.648 6.882.008 15.907 6.799 18.506 8.19 1.426.763 3.114-.892 4.174-2.363 1.165-1.615 1.955-1.634 1.26.788zM532.623 854.881a10.165 10.165 0 00-10.166 10.164 10.165 10.165 0 0010.166 10.166 10.165 10.165 0 0010.164-10.166 10.165 10.165 0 00-10.164-10.164zm10.365 23.91l-19.971.01c-2.042 0-1.358.85-.522 1.922 8.31 10.656 5.491 34.29-3.428 45.047-1.569 1.893-1.013 2.614.929 2.472 5.455-.398 18.038-.415 23.044-.144 1.256.068 1.693-.525.494-2.395-6.978-10.883-9.063-31.398.364-44.755.74-1.047 1.052-2.158-.91-2.157zM584.19 868.989c5.123 1.738 8.313-1.395 10.71-4.883 1.487-2.165 2.677-1.743 2.677.315v25.83c0 2.81-1.922 2.139-3.15-.157-2.577-4.816-10.112-9.39-16.576-9.28-12.124.21-18.527 10.888-17.925 23.398.614 12.77 6.337 23.8 21.428 22.108 6.033-.677 11.007-6.455 13.86-11.813 1.093-2.051 2.52-2.31 2.52 0v21.735l-4.803.158c-5.663.186-9.334 2.425-18.162 2.205-8.793-.22-24.05-11.807-26.49-22.838-2.306-10.417-2.012-29.092 5.312-38.722 6.905-9.08 19.796-11.722 30.598-8.056z" style="isolation:auto;mix-blend-mode:normal;solid-color:#000;solid-opacity:1;marker:none" overflow="visible"/></g></g><g transform="translate(47.282 53.045)" fill="url(#b)" color="#000"><path d="M272.342 839.176c3.298-5.374 6.891-13.369 7.545-21.084 1.064-12.574-.338-34.154-1.856-41.186-1.155-5.349-3.41-12.253-7.05-16.094-2.114-2.231-2.07-3.065.79-2.823 12.93 1.09 26.016 2.048 39.804 1.411 5.122-.237 8.056-.887 10.106-2.315 1.586-1.105 2.295.105 2.315 1.242.087 5.104.422 10.98.846 15.922.262 3.047-.5 3.405-2.145 1.806-5.331-5.182-24.826-4.128-30.262-3.274l.413 15.934c5.73-1.09 9.662-3.883 13.193-8.154 1.119-1.352 2.477-.838 2.506.802l.475 26.51c.048 2.652-1.258 3.178-2.292 1.591-3.506-5.379-7.513-10.51-13.665-12.37l.556 21.475c.189 7.294 3.365 14.835 6.493 18.236 1.086 1.181 1.517 2.94-1.13 2.823-6.248-.278-19.788 1.025-24.164 2.258-2.893.815-4.453.51-2.478-2.71z" style="isolation:auto;mix-blend-mode:normal;solid-color:#000;solid-opacity:1;marker:none" overflow="visible"/><path d="M312.048 782.556c-1.07.051-1.156.534-.425 2.05 9.692 20.117 8.594 46.167 1.118 59.722-.68 1.23-1.413 2.649 1.559 2.227 5.046-.716 12.643-.497 17.597.669 2.312.544 2.192-.767 1.449-1.783-2.26-3.09-4.832-14.437-4.548-19.489.112-1.992 2.815-1.974 3.88-1.115 5.542 4.475 6.365 18.725 10.678 27.541 3.573 7.301 10.625 16.273 20.716 15.547 7.902-.568 11.965-5.684 11.969-10.238.004-5.3-3.69-9.123-8.348-11.34 1.454 5.334.04 10.604-5.354 10.395-5.567-.216-9.824-6.156-12.946-17.39-2.26-8.13 1.24-13.96-6.743-18.678 2.88-2.044 10.79-9.555 10.71-14.648-.118-7.437-6.542-14.544-16.819-18.866-6.778-2.85-15.673-4.237-23.974-4.603a5.64 5.64 0 00-.519-.002zm19.594 12.787c1.17-.013 2.324.265 3.006.793 8.935 6.913 2.073 18.974-6.203 17.676l-.669-15.766c-.078-1.848 1.916-2.681 3.866-2.703z" style="isolation:auto;mix-blend-mode:normal;solid-color:#000;solid-opacity:1;marker:none" overflow="visible"/><path style="isolation:auto;mix-blend-mode:normal;solid-color:#000;solid-opacity:1;marker:none" d="M363.177 764.214a10.914 10.914 0 00-10.915 10.914 10.914 10.914 0 0010.915 10.914 10.914 10.914 0 0010.913-10.914 10.914 10.914 0 00-10.913-10.914zm-9.714 25.015c-2.042 0-1.645.983-.63 1.89 9.834 8.775 7.009 27.175-1.102 38.272-1.451 1.985-1.16 2.551.787 2.52 5.47-.09 15.652.864 20.634 1.417 1.251.138 1.482-.31.63-2.362-5.085-12.263-8.675-30.979.158-39.533.92-.891 1.174-2.204-.788-2.204zM377.361 838.05c-1.702 2.174-1.48 3.027 1.13 2.874 14.243-.83 33.765 1.235 42.804 1.433v-20.213c0-1.55-1.547-1.323-2.069-.08-.876 2.087-5.547 8.181-10.174 7.87l-14.017-.946.185-12.297c3.61.404 8.599 2.399 12.576 4.695 1.32.762 1.92.501 1.618-.994-1.04-5.156-1.23-11.776-1.05-17.664.036-1.209-1.329-.624-1.66-.058-1.65 2.83-4.835 6.535-11.368 6.304l.177-11.737h13.408c5.326 0 8.787 4.84 10.862 7.64.697.94 1.68.943 1.592 0l-1.91-20.372c-.106-1.13-1.255-1.317-1.91 0-.852 1.713-4.195 4.521-9.834 4.016l-29.715-2.663c-2.148-.193-2.199.752-1.433 1.75 10.03 13.063 11.047 37.334.788 50.442zM424.018 845.659c-1.351.685-1.411 2.5 1.6 2.285l22.393-1.6c3.377-.24 1.67-1.593.628-3.027-2.834-3.9-4.554-11.165-4.587-16.04l-.162-23.914c5.922 16.86 11.31 37.979 12.28 53.32.151 2.392 1.286 2.425 2.262 2.101 4.266-1.415 11.866-2.685 17.45-2.908 1.022-.041 2.132-1.852.97-2.908-2.976-2.708-5.846-8.539-5.817-13.411l.323-53.806c.042-6.867 4.096-14.477 6.625-16.966 1.931-1.9 1.663-3.056-.161-2.746l-26.66 4.524c-2.174.369-1.71 1.743.322 2.747 3.88 1.916 10.375 9.386 10.503 16.157l.646 34.255-12.28-39.587c-.361-1.166-1.525-2.423-2.746-2.423h-24.883c-1.534 0-1.588 1.862 0 2.262 3.539.892 9.273 7.303 9.371 15.754l.323 27.791c.076 6.496-2.776 15.288-8.4 18.14z" overflow="visible"/><path d="M478.593 773.807c-1.384-.051-3.028.298-1.036 2.417 4.608 4.902 6.12 11.325 7.48 18.182 1.744 8.801 2.09 18.126 1.38 27.848-.633 8.675-2.803 16.039-8.054 20.137-3.078 2.402-2.647 3.734.974 3.487 13.344-.912 25.32-3.253 36.884-10.735 17.923-11.597 18.272-45.897-4.948-55.122-10.573-4.201-21.772-5.814-32.68-6.214zm26.139 15.533c1.278.005 2.496.16 3.205.463 2.639 1.127 7.247 14.786 7.25 21.518.003 6.286-4.583 16.025-7.365 17.837-2.22 1.446-6.967.555-7.825-1.95-2.965-8.662-2.948-30.919-.101-36.659.402-.812 2.704-1.217 4.836-1.209z" style="isolation:auto;mix-blend-mode:normal;solid-color:#000;solid-opacity:1;marker:none" overflow="visible"/><path d="M528.855 824.437c-.694-.796-1.532-2.835 1.418-2.835h18.9c1.492 0 1.71 1.894.112 3.225-2.177 1.812-5.639 3.837-5.707 6.478-.104 4.009 4.318 7.34 8.273 6.677 5.465-.915 8.738-9.39 7.56-14.805-1.923-8.837-14.622-13.41-21.263-16.853-11.063-5.735-10.035-17.04-5.985-24.098 4.285-7.467 14.916-12.378 24.386-8.505 2.942 1.202 6.708 1.385 8.743-2.284.788-1.421 2.729-.61 2.729.613v23.165c0 1.854-3.011 1.912-3.453 0-.773-3.347-3.655-9.658-8.91-11.137-4.652-1.31-11.665 2.29-12.25 6.515-.722 5.21 6.864 7.662 11.693 9.745 9.354 4.035 18.018 11.139 18.265 20.604.309 11.81-8.929 28.822-20.715 30.182-10.456 1.206-19.363-7.22-21.462-16.961-.876-4.067-.19-7.266-2.334-9.726z" style="isolation:auto;mix-blend-mode:normal;solid-color:#000;solid-opacity:1;marker:none" overflow="visible"/><path d="M624.102 774.37l-27.29 1.86c-1.393.094-1.61 1.91 0 2.92 5.232 3.28 7.316 11.508 8.22 20.409.172 1.682.375 4.111.571 6.872l-14.85.565c.04-2.022.107-4.04.2-6.057.254-5.546 1.896-11.388 5.122-15.849 1.027-1.418.717-2.476-.481-2.4l-25.29 1.6c-1.086.069-1.044 1.454 0 2.241 4.19 3.162 6.515 8.145 8.538 15.665 1.241 4.612 1.756 16.536 1.187 22.913-.53 5.954-1.999 12.119-7.645 16.007-1.282.883-.91 1.807 1.281 1.762 4.486-.094 17.589-.02 23.37.64 2.513.287 3.949-.317 1.761-2.24-3.434-3.02-6.773-9.626-7.49-17.297-.26-2.788-.422-5.549-.51-8.294l15.319-.234c.217 5.1.306 10.245.06 13.963-.51 7.758-2.323 17.152-7.759 22.22-1.234 1.15-.849 2.636 1.233 2.294 4.639-.761 19.973-.746 25.539.114 2.42.374 4.047-.946 1.134-2.44-6.107-3.134-9.393-10.606-10.196-22.413-.693-10.189-.565-20.786-.228-30.703.245-7.227 1.146-15.856 8.667-20.99 1.73-1.18.692-3.207-.463-3.128z" style="isolation:auto;mix-blend-mode:normal;solid-color:#000;solid-opacity:1;marker:none" overflow="visible"/><path style="isolation:auto;mix-blend-mode:normal;solid-color:#000;solid-opacity:1;marker:none" d="M636.515 752.426c-6.028 0-10.914 4.886-10.915 10.913 0 6.029 4.887 10.915 10.915 10.915 6.027 0 10.913-4.887 10.913-10.915 0-6.027-4.886-10.912-10.913-10.913zm-11.944 27.358c-2.379 0-1.915 1.146-.732 2.2 11.452 10.221 8.163 31.652-1.284 44.576-1.69 2.312-1.352 2.97.915 2.933 6.37-.104 18.23 1.008 24.033 1.652 1.457.162 1.726-.362.734-2.752-5.923-14.282-10.103-36.08.183-46.042 1.072-1.038 1.368-2.567-.917-2.567z" overflow="visible"/><path d="M648.565 773.246c-1.603-.03-2.389.558-.669 2.174 3.967 3.728 9.466 11.784 9.62 19.332l.644 31.775c.123 6.081-1.74 10.816-5.647 13.889-1.934 1.521-1.73 2.936.058 2.936 7.666 0 15.95-.444 22.978-.227 1.013.031 3.211-.29.678-2.823-3.746-3.746-5.718-10.227-6.323-21.003 10.216-.036 26.868-9.234 28.004-14.904 1.557-7.773-2.184-25.955-16.6-27.553l-32.009-3.547a8.128 8.128 0 00-.733-.05zm24.556 15.37c9.393-.065 11.539 4.97 11.236 9.004-.672 8.965-11.846 10.646-14.905 11.065l1.694-19.987c.692-.051 1.35-.078 1.975-.082zM313.876 877.128a5.627 5.627 0 00-5.43 5.82 5.627 5.627 0 005.82 5.427 5.627 5.627 0 005.429-5.82 5.627 5.627 0 00-5.82-5.427zm-5.404 11.79c-1.19-.014-.694.465-.27.918 4.59 4.915 4.587 12.877-.843 17.016-.939.715-.507 1.307.421 1.197 2.867-.337 10.407-.334 12.807-.152.602.046.942-.32.263-1.144-4.022-4.88-4.745-11.659-1.338-16.657.346-.509.526-1.034-.416-1.046z" style="isolation:auto;mix-blend-mode:normal;solid-color:#000;solid-opacity:1;marker:none" overflow="visible"/><g><path style="isolation:auto;mix-blend-mode:normal;solid-color:#000;solid-opacity:1;marker:none" d="M320.343 899.635l9.637-.285c.6-.017.809.955.045 1.298-1.444.648-2.066 1.829-2.093 2.892-.042 1.613 1.119 2.64 3.157 2.342 2.658-.389 4.148-4.526 3.33-6.763-1.252-3.417-5.885-1.95-8.787-3.22-4.594-2.011-4.785-6.915-2.237-10.904 1.866-2.92 5.843-6.329 9.527-3.825 2.11 1.433 4.554-.044 5.86-1.724.402-.516 1.099-.245 1.099.247v9.323c0 .745-1.212.77-1.39 0-.31-1.348-2.852-3.684-4.966-3.995-1.925-.283-5.06.921-5.296 2.622-.29 2.097 2.397 2.596 4.34 3.434 3.765 1.624 7.768 3.621 7.868 7.43.124 4.753-4.11 12.461-8.854 13.008-4.208.486-7.914-2.702-8.759-6.622-.352-1.637-2.097-3.107-3.133-3.914-1.092-.852-.55-1.309.652-1.344zM350.904 941.43c-.783.018-2.678-.91-.315-1.968 5.712-2.556 8.742-5.395 8.742-10.71v-33.44c0-6.9-3.002-13.462-8.026-19.044-.789-.876-.58-2.257 2.227-1.67 7 1.463 12.297.21 17.485-1.337 2.95-.88 3.98-.086 4.177 1.337 1.947 14.027 5.762 25.221 9.745 36.975l7.704-45.98c.284-1.698.374-3.37-.788-5.04-.649-.933-.586-1.733.63-1.733h22.366c1.597 0 1.23 1.724.27 2.353-3.235 2.124-5.917 5.628-5.94 10.248l-.334 66.141c-.025 4.907 3.475 8.938 6.634 12.453.838.932 2.651 3.356-.788 3.386l-25.202.219c-1.302.011-1.163-1.068.084-2.345 3.85-3.944 9.15-9.062 9.155-14.085l.055-56.634-12.6 53.708c-.558 2.379-2.568 2.502-3.307 0l-10.71-36.225c-.32 13.784-2.97 25.513-1.89 37.17.257 2.784 3.926 3.476 5.67 4.095 1.348.48.8 1.558 0 1.575z" overflow="visible"/><path d="M451.058 853.874c-.17.008-.356.039-.556.096-6.73 1.919-15.343 4.016-22.831 4.12-1.187.018-2.378 1.35-1.003 2.563 2.865 2.525 5.162 6.428 5.123 10.246-.148 14.78-2.404 30.518-8.353 44.327-2.177 5.053-5.27 10.084-9.688 13.364-2.7 2.005-1.104 2.638.556 2.338 3.707-.67 16.002-.559 21.16-.668 1.412-.03 1.395-1.98.369-3.878-2.646-4.891-3.995-12.915-1.37-20.846h12.028c1.997 5.99 3.24 13.975 2.896 21.05-.203 4.154-.631 9.315-2.896 12.139-.855 1.067-1.19 2.758.89 2.45 5.94-.882 12.945-1.337 17.598-1.56 2.302-.11 2.513-1.607.444-3.676-3.592-3.592-6.724-7.957-7.893-16.091-2.767-19.25-6.599-46.528-6.696-61.423-.008-1.03.785-1.915 1.337-2.784.493-.776.074-1.824-1.115-1.767zm-9.576 21.926c1.578 7.158 2.98 14.484 3.896 22.275l-7.795-.112c1.558-7.647 2.755-14.931 3.899-22.163zM515.111 861.89c-1.173 4.085-1.798 15.29-2.048 20.475-.057 1.191-2.117.671-2.52-1.102-.675-2.977-3.368-5.359-5.985-6.93-6.092-3.66-14.411-7.137-20.633-3.702-7.064 3.901-8.048 15.638-7.967 23.708.118 11.828 1.177 27.1 12.22 31.34 2.849 1.093 10.335-1.542 12.443-4.253l-.473-17.325c-.091-3.36-2.994-6.495-5.189-8.542-.984-.918-.866-1.652 1.252-2.011l18.585-3.15c1.894-.321 1.655 1.292.945 2.205-1.399 1.798-3.497 7.601-3.623 10.553-.143 3.388.479 19.29-.315 21.735-1.416 4.367-13.44 14.06-18.15 14.805-16.268 2.571-28.253-15.543-29.73-26.933-1.827-14.081-2.095-31.302 1.732-42.84 3.087-9.31 14.493-14.662 25.516-14.648 6.882.008 15.907 6.799 18.506 8.19 1.426.763 3.114-.892 4.174-2.363 1.165-1.615 1.955-1.634 1.26.788zM532.623 854.881a10.165 10.165 0 00-10.166 10.164 10.165 10.165 0 0010.166 10.166 10.165 10.165 0 0010.164-10.166 10.165 10.165 0 00-10.164-10.164zm10.365 23.91l-19.971.01c-2.042 0-1.358.85-.522 1.922 8.31 10.656 5.491 34.29-3.428 45.047-1.569 1.893-1.013 2.614.929 2.472 5.455-.398 18.038-.415 23.044-.144 1.256.068 1.693-.525.494-2.395-6.978-10.883-9.063-31.398.364-44.755.74-1.047 1.052-2.158-.91-2.157zM584.19 868.989c5.123 1.738 8.313-1.395 10.71-4.883 1.487-2.165 2.677-1.743 2.677.315v25.83c0 2.81-1.922 2.139-3.15-.157-2.577-4.816-10.112-9.39-16.576-9.28-12.124.21-18.527 10.888-17.925 23.398.614 12.77 6.337 23.8 21.428 22.108 6.033-.677 11.007-6.455 13.86-11.813 1.093-2.051 2.52-2.31 2.52 0v21.735l-4.803.158c-5.663.186-9.334 2.425-18.162 2.205-8.793-.22-24.05-11.807-26.49-22.838-2.306-10.417-2.012-29.092 5.312-38.722 6.905-9.08 19.796-11.722 30.598-8.056z" style="isolation:auto;mix-blend-mode:normal;solid-color:#000;solid-opacity:1;marker:none" overflow="visible"/></g></g><g fill="url(#a)" transform="translate(45.636 51.234)"><text y="880.223" x="611.008" style="line-height:12.87059212px;-inkscape-font-specification:'WWE Raw';text-align:center" font-weight="400" font-size="20.593" font-family="WWE Raw" letter-spacing="0" word-spacing="0" text-anchor="middle" stroke-width=".515"><tspan style="-inkscape-font-specification:SimHei" y="880.223" x="611.008" font-family="SimHei">®</tspan></text><g color="#000"><path style="isolation:auto;mix-blend-mode:normal;solid-color:#000;solid-opacity:1;marker:none" d="M272.342 839.176c3.298-5.374 6.891-13.369 7.545-21.084 1.064-12.574-.338-34.154-1.856-41.186-1.155-5.349-3.41-12.253-7.05-16.094-2.114-2.231-2.07-3.065.79-2.823 12.93 1.09 26.016 2.048 39.804 1.411 5.122-.237 8.056-.887 10.106-2.315 1.586-1.105 2.295.105 2.315 1.242.087 5.104.422 10.98.846 15.922.262 3.047-.5 3.405-2.145 1.806-5.331-5.182-24.826-4.128-30.262-3.274l.413 15.934c5.73-1.09 9.662-3.883 13.193-8.154 1.119-1.352 2.477-.838 2.506.802l.475 26.51c.048 2.652-1.258 3.178-2.292 1.591-3.506-5.379-7.513-10.51-13.665-12.37l.556 21.475c.189 7.294 3.365 14.835 6.493 18.236 1.086 1.181 1.517 2.94-1.13 2.823-6.248-.278-19.788 1.025-24.164 2.258-2.893.815-4.453.51-2.478-2.71z" overflow="visible"/><path style="isolation:auto;mix-blend-mode:normal;solid-color:#000;solid-opacity:1;marker:none" d="M312.048 782.556c-1.07.051-1.156.534-.425 2.05 9.692 20.117 8.594 46.167 1.118 59.722-.68 1.23-1.413 2.649 1.559 2.227 5.046-.716 12.643-.497 17.597.669 2.312.544 2.192-.767 1.449-1.783-2.26-3.09-4.832-14.437-4.548-19.489.112-1.992 2.815-1.974 3.88-1.115 5.542 4.475 6.365 18.725 10.678 27.541 3.573 7.301 10.625 16.273 20.716 15.547 7.902-.568 11.965-5.684 11.969-10.238.004-5.3-3.69-9.123-8.348-11.34 1.454 5.334.04 10.604-5.354 10.395-5.567-.216-9.824-6.156-12.946-17.39-2.26-8.13 1.24-13.96-6.743-18.678 2.88-2.044 10.79-9.555 10.71-14.648-.118-7.437-6.542-14.544-16.819-18.866-6.778-2.85-15.673-4.237-23.974-4.603a5.64 5.64 0 00-.519-.002zm19.594 12.787c1.17-.013 2.324.265 3.006.793 8.935 6.913 2.073 18.974-6.203 17.676l-.669-15.766c-.078-1.848 1.916-2.681 3.866-2.703z" overflow="visible"/><path d="M363.177 764.214a10.914 10.914 0 00-10.915 10.914 10.914 10.914 0 0010.915 10.914 10.914 10.914 0 0010.913-10.914 10.914 10.914 0 00-10.913-10.914zm-9.714 25.015c-2.042 0-1.645.983-.63 1.89 9.834 8.775 7.009 27.175-1.102 38.272-1.451 1.985-1.16 2.551.787 2.52 5.47-.09 15.652.864 20.634 1.417 1.251.138 1.482-.31.63-2.362-5.085-12.263-8.675-30.979.158-39.533.92-.891 1.174-2.204-.788-2.204zM377.361 838.05c-1.702 2.174-1.48 3.027 1.13 2.874 14.243-.83 33.765 1.235 42.804 1.433v-20.213c0-1.55-1.547-1.323-2.069-.08-.876 2.087-5.547 8.181-10.174 7.87l-14.017-.946.185-12.297c3.61.404 8.599 2.399 12.576 4.695 1.32.762 1.92.501 1.618-.994-1.04-5.156-1.23-11.776-1.05-17.664.036-1.209-1.329-.624-1.66-.058-1.65 2.83-4.835 6.535-11.368 6.304l.177-11.737h13.408c5.326 0 8.787 4.84 10.862 7.64.697.94 1.68.943 1.592 0l-1.91-20.372c-.106-1.13-1.255-1.317-1.91 0-.852 1.713-4.195 4.521-9.834 4.016l-29.715-2.663c-2.148-.193-2.199.752-1.433 1.75 10.03 13.063 11.047 37.334.788 50.442zM424.018 845.659c-1.351.685-1.411 2.5 1.6 2.285l22.393-1.6c3.377-.24 1.67-1.593.628-3.027-2.834-3.9-4.554-11.165-4.587-16.04l-.162-23.914c5.922 16.86 11.31 37.979 12.28 53.32.151 2.392 1.286 2.425 2.262 2.101 4.266-1.415 11.866-2.685 17.45-2.908 1.022-.041 2.132-1.852.97-2.908-2.976-2.708-5.846-8.539-5.817-13.411l.323-53.806c.042-6.867 4.096-14.477 6.625-16.966 1.931-1.9 1.663-3.056-.161-2.746l-26.66 4.524c-2.174.369-1.71 1.743.322 2.747 3.88 1.916 10.375 9.386 10.503 16.157l.646 34.255-12.28-39.587c-.361-1.166-1.525-2.423-2.746-2.423h-24.883c-1.534 0-1.588 1.862 0 2.262 3.539.892 9.273 7.303 9.371 15.754l.323 27.791c.076 6.496-2.776 15.288-8.4 18.14z" style="isolation:auto;mix-blend-mode:normal;solid-color:#000;solid-opacity:1;marker:none" overflow="visible"/><path style="isolation:auto;mix-blend-mode:normal;solid-color:#000;solid-opacity:1;marker:none" d="M478.593 773.807c-1.384-.051-3.028.298-1.036 2.417 4.608 4.902 6.12 11.325 7.48 18.182 1.744 8.801 2.09 18.126 1.38 27.848-.633 8.675-2.803 16.039-8.054 20.137-3.078 2.402-2.647 3.734.974 3.487 13.344-.912 25.32-3.253 36.884-10.735 17.923-11.597 18.272-45.897-4.948-55.122-10.573-4.201-21.772-5.814-32.68-6.214zm26.139 15.533c1.278.005 2.496.16 3.205.463 2.639 1.127 7.247 14.786 7.25 21.518.003 6.286-4.583 16.025-7.365 17.837-2.22 1.446-6.967.555-7.825-1.95-2.965-8.662-2.948-30.919-.101-36.659.402-.812 2.704-1.217 4.836-1.209z" overflow="visible"/><path style="isolation:auto;mix-blend-mode:normal;solid-color:#000;solid-opacity:1;marker:none" d="M528.855 824.437c-.694-.796-1.532-2.835 1.418-2.835h18.9c1.492 0 1.71 1.894.112 3.225-2.177 1.812-5.639 3.837-5.707 6.478-.104 4.009 4.318 7.34 8.273 6.677 5.465-.915 8.738-9.39 7.56-14.805-1.923-8.837-14.622-13.41-21.263-16.853-11.063-5.735-10.035-17.04-5.985-24.098 4.285-7.467 14.916-12.378 24.386-8.505 2.942 1.202 6.708 1.385 8.743-2.284.788-1.421 2.729-.61 2.729.613v23.165c0 1.854-3.011 1.912-3.453 0-.773-3.347-3.655-9.658-8.91-11.137-4.652-1.31-11.665 2.29-12.25 6.515-.722 5.21 6.864 7.662 11.693 9.745 9.354 4.035 18.018 11.139 18.265 20.604.309 11.81-8.929 28.822-20.715 30.182-10.456 1.206-19.363-7.22-21.462-16.961-.876-4.067-.19-7.266-2.334-9.726z" overflow="visible"/><path style="isolation:auto;mix-blend-mode:normal;solid-color:#000;solid-opacity:1;marker:none" d="M624.102 774.37l-27.29 1.86c-1.393.094-1.61 1.91 0 2.92 5.232 3.28 7.316 11.508 8.22 20.409.172 1.682.375 4.111.571 6.872l-14.85.565c.04-2.022.107-4.04.2-6.057.254-5.546 1.896-11.388 5.122-15.849 1.027-1.418.717-2.476-.481-2.4l-25.29 1.6c-1.086.069-1.044 1.454 0 2.241 4.19 3.162 6.515 8.145 8.538 15.665 1.241 4.612 1.756 16.536 1.187 22.913-.53 5.954-1.999 12.119-7.645 16.007-1.282.883-.91 1.807 1.281 1.762 4.486-.094 17.589-.02 23.37.64 2.513.287 3.949-.317 1.761-2.24-3.434-3.02-6.773-9.626-7.49-17.297-.26-2.788-.422-5.549-.51-8.294l15.319-.234c.217 5.1.306 10.245.06 13.963-.51 7.758-2.323 17.152-7.759 22.22-1.234 1.15-.849 2.636 1.233 2.294 4.639-.761 19.973-.746 25.539.114 2.42.374 4.047-.946 1.134-2.44-6.107-3.134-9.393-10.606-10.196-22.413-.693-10.189-.565-20.786-.228-30.703.245-7.227 1.146-15.856 8.667-20.99 1.73-1.18.692-3.207-.463-3.128z" overflow="visible"/><path d="M636.515 752.426c-6.028 0-10.914 4.886-10.915 10.913 0 6.029 4.887 10.915 10.915 10.915 6.027 0 10.913-4.887 10.913-10.915 0-6.027-4.886-10.912-10.913-10.913zm-11.944 27.358c-2.379 0-1.915 1.146-.732 2.2 11.452 10.221 8.163 31.652-1.284 44.576-1.69 2.312-1.352 2.97.915 2.933 6.37-.104 18.23 1.008 24.033 1.652 1.457.162 1.726-.362.734-2.752-5.923-14.282-10.103-36.08.183-46.042 1.072-1.038 1.368-2.567-.917-2.567z" style="isolation:auto;mix-blend-mode:normal;solid-color:#000;solid-opacity:1;marker:none" overflow="visible"/><path style="isolation:auto;mix-blend-mode:normal;solid-color:#000;solid-opacity:1;marker:none" d="M648.565 773.246c-1.603-.03-2.389.558-.669 2.174 3.967 3.728 9.466 11.784 9.62 19.332l.644 31.775c.123 6.081-1.74 10.816-5.647 13.889-1.934 1.521-1.73 2.936.058 2.936 7.666 0 15.95-.444 22.978-.227 1.013.031 3.211-.29.678-2.823-3.746-3.746-5.718-10.227-6.323-21.003 10.216-.036 26.868-9.234 28.004-14.904 1.557-7.773-2.184-25.955-16.6-27.553l-32.009-3.547a8.128 8.128 0 00-.733-.05zm24.556 15.37c9.393-.065 11.539 4.97 11.236 9.004-.672 8.965-11.846 10.646-14.905 11.065l1.694-19.987c.692-.051 1.35-.078 1.975-.082z" overflow="visible"/></g><path style="isolation:auto;mix-blend-mode:normal;solid-color:#000;solid-opacity:1;marker:none" d="M313.876 877.128a5.627 5.627 0 00-5.43 5.82 5.627 5.627 0 005.82 5.427 5.627 5.627 0 005.429-5.82 5.627 5.627 0 00-5.82-5.427zm-5.404 11.79c-1.19-.014-.694.465-.27.918 4.59 4.915 4.587 12.877-.843 17.016-.939.715-.507 1.307.421 1.197 2.867-.337 10.407-.334 12.807-.152.602.046.942-.32.263-1.144-4.022-4.88-4.745-11.659-1.338-16.657.346-.509.526-1.034-.416-1.046z" color="#000" overflow="visible"/><g color="#000"><path d="M320.343 899.635l9.637-.285c.6-.017.809.955.045 1.298-1.444.648-2.066 1.829-2.093 2.892-.042 1.613 1.119 2.64 3.157 2.342 2.658-.389 4.148-4.526 3.33-6.763-1.252-3.417-5.885-1.95-8.787-3.22-4.594-2.011-4.785-6.915-2.237-10.904 1.866-2.92 5.843-6.329 9.527-3.825 2.11 1.433 4.554-.044 5.86-1.724.402-.516 1.099-.245 1.099.247v9.323c0 .745-1.212.77-1.39 0-.31-1.348-2.852-3.684-4.966-3.995-1.925-.283-5.06.921-5.296 2.622-.29 2.097 2.397 2.596 4.34 3.434 3.765 1.624 7.768 3.621 7.868 7.43.124 4.753-4.11 12.461-8.854 13.008-4.208.486-7.914-2.702-8.759-6.622-.352-1.637-2.097-3.107-3.133-3.914-1.092-.852-.55-1.309.652-1.344zM350.904 941.43c-.783.018-2.678-.91-.315-1.968 5.712-2.556 8.742-5.395 8.742-10.71v-33.44c0-6.9-3.002-13.462-8.026-19.044-.789-.876-.58-2.257 2.227-1.67 7 1.463 12.297.21 17.485-1.337 2.95-.88 3.98-.086 4.177 1.337 1.947 14.027 5.762 25.221 9.745 36.975l7.704-45.98c.284-1.698.374-3.37-.788-5.04-.649-.933-.586-1.733.63-1.733h22.366c1.597 0 1.23 1.724.27 2.353-3.235 2.124-5.917 5.628-5.94 10.248l-.334 66.141c-.025 4.907 3.475 8.938 6.634 12.453.838.932 2.651 3.356-.788 3.386l-25.202.219c-1.302.011-1.163-1.068.084-2.345 3.85-3.944 9.15-9.062 9.155-14.085l.055-56.634-12.6 53.708c-.558 2.379-2.568 2.502-3.307 0l-10.71-36.225c-.32 13.784-2.97 25.513-1.89 37.17.257 2.784 3.926 3.476 5.67 4.095 1.348.48.8 1.558 0 1.575z" style="isolation:auto;mix-blend-mode:normal;solid-color:#000;solid-opacity:1;marker:none" overflow="visible"/><path style="isolation:auto;mix-blend-mode:normal;solid-color:#000;solid-opacity:1;marker:none" d="M451.058 853.874c-.17.008-.356.039-.556.096-6.73 1.919-15.343 4.016-22.831 4.12-1.187.018-2.378 1.35-1.003 2.563 2.865 2.525 5.162 6.428 5.123 10.246-.148 14.78-2.404 30.518-8.353 44.327-2.177 5.053-5.27 10.084-9.688 13.364-2.7 2.005-1.104 2.638.556 2.338 3.707-.67 16.002-.559 21.16-.668 1.412-.03 1.395-1.98.369-3.878-2.646-4.891-3.995-12.915-1.37-20.846h12.028c1.997 5.99 3.24 13.975 2.896 21.05-.203 4.154-.631 9.315-2.896 12.139-.855 1.067-1.19 2.758.89 2.45 5.94-.882 12.945-1.337 17.598-1.56 2.302-.11 2.513-1.607.444-3.676-3.592-3.592-6.724-7.957-7.893-16.091-2.767-19.25-6.599-46.528-6.696-61.423-.008-1.03.785-1.915 1.337-2.784.493-.776.074-1.824-1.115-1.767zm-9.576 21.926c1.578 7.158 2.98 14.484 3.896 22.275l-7.795-.112c1.558-7.647 2.755-14.931 3.899-22.163zM515.111 861.89c-1.173 4.085-1.798 15.29-2.048 20.475-.057 1.191-2.117.671-2.52-1.102-.675-2.977-3.368-5.359-5.985-6.93-6.092-3.66-14.411-7.137-20.633-3.702-7.064 3.901-8.048 15.638-7.967 23.708.118 11.828 1.177 27.1 12.22 31.34 2.849 1.093 10.335-1.542 12.443-4.253l-.473-17.325c-.091-3.36-2.994-6.495-5.189-8.542-.984-.918-.866-1.652 1.252-2.011l18.585-3.15c1.894-.321 1.655 1.292.945 2.205-1.399 1.798-3.497 7.601-3.623 10.553-.143 3.388.479 19.29-.315 21.735-1.416 4.367-13.44 14.06-18.15 14.805-16.268 2.571-28.253-15.543-29.73-26.933-1.827-14.081-2.095-31.302 1.732-42.84 3.087-9.31 14.493-14.662 25.516-14.648 6.882.008 15.907 6.799 18.506 8.19 1.426.763 3.114-.892 4.174-2.363 1.165-1.615 1.955-1.634 1.26.788zM532.623 854.881a10.165 10.165 0 00-10.166 10.164 10.165 10.165 0 0010.166 10.166 10.165 10.165 0 0010.164-10.166 10.165 10.165 0 00-10.164-10.164zm10.365 23.91l-19.971.01c-2.042 0-1.358.85-.522 1.922 8.31 10.656 5.491 34.29-3.428 45.047-1.569 1.893-1.013 2.614.929 2.472 5.455-.398 18.038-.415 23.044-.144 1.256.068 1.693-.525.494-2.395-6.978-10.883-9.063-31.398.364-44.755.74-1.047 1.052-2.158-.91-2.157zM584.19 868.989c5.123 1.738 8.313-1.395 10.71-4.883 1.487-2.165 2.677-1.743 2.677.315v25.83c0 2.81-1.922 2.139-3.15-.157-2.577-4.816-10.112-9.39-16.576-9.28-12.124.21-18.527 10.888-17.925 23.398.614 12.77 6.337 23.8 21.428 22.108 6.033-.677 11.007-6.455 13.86-11.813 1.093-2.051 2.52-2.31 2.52 0v21.735l-4.803.158c-5.663.186-9.334 2.425-18.162 2.205-8.793-.22-24.05-11.807-26.49-22.838-2.306-10.417-2.012-29.092 5.312-38.722 6.905-9.08 19.796-11.722 30.598-8.056z" overflow="visible"/></g></g><g><path transform="translate(45.636 51.234) scale(.9375)" d="M505.24-20.74c-103.122.529-208.378 50.708-281.623 150.94a38.312 38.312 0 00-3.03 4.978c-30.821.959-61.472 14.856-82.27 40.166-30.149 1.654-56.884 14.313-74.014 33.765-8.114 8.648-13.998 18.537-17.826 28.662-14.878 36.669-4.9 74.253 15.67 100.78 5.08 6.552 10.72 12.218 16.634 17.394l-57.304 34.508v-.002C2.882 401.648-8.131 421.876-10.262 439.71c-2.13 17.833 1.946 33.902 10.918 48.049L104.633 651.7l8.963 14.494c.076.124.154.247.232.37 1.463 2.306 3.06 4.448 4.705 6.49l.094.15c11.363 17.916 31.364 26.829 47.258 27.793 7.403.45 14.286.911 21.215-.764.116.336.223.683.341 1.016.369 1.41.744 2.85 1.205 4.45 20.175 69.953 87.09 109.366 150.928 103.944 63.884-5.424 106.763-40.04 120.988-79.644 7.458-20.76 9.191-40.416 6.467-58.418 22.87 4.933 47.03 11.476 72.721 17.4 47.045 10.85 100.69 18.89 157.5.627 94.272-30.306 139.158-99.102 168.17-172.525 34.746-87.937 43.727-153.378 55.408-234.256 2.865-19.832-3.934-33.743-12.07-44.853-8.135-11.11-17.893-24.123-43.623-23.926h-.008c-2.385.018-3.505.113-3.342.107-.42.014-.839.034-1.258.06l-6.486.427-.305.01c-.282.009-.564.021-.846.037l-4.584.252c-.596-.02-.956-.148-1.595-.143h-.006c-2.345.019-3.421.11-3.229.104l-.427.015-19.549.863C771.69 64.033 640.48-21.434 505.24-20.74zm328.535 210.998c-2.84 0-5.268 1.006-7.283 3.021-2.007 2.008-3.01 4.432-3.01 7.272s1.003 5.268 3.01 7.283c2.015 2.007 4.443 3.012 7.283 3.012 2.84 0 5.265-1.005 7.272-3.012 2.015-2.015 3.023-4.443 3.023-7.283 0-2.84-1.008-5.264-3.023-7.272-2.007-2.015-4.431-3.021-7.272-3.021zm0 1.32c2.46 0 4.558.881 6.295 2.643 1.746 1.761 2.62 3.87 2.62 6.33s-.874 4.57-2.62 6.332c-1.737 1.761-3.835 2.642-6.295 2.642s-4.56-.88-6.306-2.642c-1.738-1.761-2.608-3.873-2.608-6.332 0-2.46.87-4.569 2.608-6.33 1.745-1.762 3.847-2.643 6.306-2.643zm-3.855 3.32v10.89h1.963v-4.225h1.928l3.939 4.224h2.654l-4.57-4.76c.785-.301 1.401-.705 1.846-1.213.452-.515.677-1.158.677-1.927 0-.58-.119-1.06-.357-1.442-.23-.388-.594-.716-1.094-.986a4.254 4.254 0 00-1.43-.465 14.61 14.61 0 00-1.843-.096zm1.963 1.489h1.773c.42 0 .77.019 1.047.058.278.04.541.127.787.262.262.143.448.327.559.549.11.222.166.476.166.762 0 .357-.051.654-.154.892a1.628 1.628 0 01-.512.654c-.23.183-.524.314-.881.393a6.578 6.578 0 01-1.273.107h-1.512z" fill="url(#b)" fill-rule="evenodd"/><g fill-rule="evenodd"><path d="M519.484 67.702c-85.34.438-172.742 41.298-235.21 126.783 16.651 6.176 31.826 17.76 42.105 34.1C435.557 24.282 708.88 65.156 765.04 277.863c.645.344 1.284.7 1.914 1.07 1.915 1.129 3.758 2.486 5.564 3.903l.002-.002c3.243-4.33 8.188-7.927 13.675-10.26-42.26-133.815-152.64-205.458-266.71-204.873z" fill="#7d307f"/><path d="M534.993 117.762c-84.639.578-168.095 50.913-199.828 129.505l.014.04s13.448-1.023 27.235 5.455c3.716-8.507 10.964-15.551 19.574-18.987 87.372-114.186 257.478-90.657 311.898 41.481l31.233-2.443h.005c.568-.044 1.096-.02 1.65-.036l6.506-.667v-.002c1.276-.13 2.516-.061 3.768-.05-38.774-109.717-120.95-154.85-202.055-154.296z" fill="#c40075"/><path d="M526.153 179.908c-42.35.345-85.756 17.871-118.979 54.951 4.83 2.403 9.13 5.954 12.497 10.223a29.587 29.587 0 016.184-1.14l38.282-2.954a20.263 20.263 0 013.393.037c40.413-33.686 91.859-40.083 138.86-13.135.45-.032.892-.053 1.323-.062l28.277-.584c.7-.014 1.4-.005 2.102.026-28.95-31.137-69.921-47.705-111.94-47.362z" fill="#d04c90"/></g><g color="#000"><path style="isolation:auto;mix-blend-mode:normal;solid-color:#000;solid-opacity:1;marker:none" d="M224.828 346.717c-32.21.027-109.749-14.663-138.185-51.333-13.071-16.856-18.745-42.088-7.912-63.158 11.11-21.606 34.188-36.9 69.9-31.238 24.012-50.663 102.967-54.073 118.857 6.693 10.267 39.264-16.037 95.196-42.66 139.036z" overflow="visible" fill="url(#d)" transform="translate(45.636 51.234)"/><path style="isolation:auto;mix-blend-mode:normal;solid-color:#000;solid-opacity:1;marker:none" d="M216.472 338.154c-26.585.023-107-14.879-132.84-51.514-23.059-32.692-7.07-97.6 70.618-78.433 17.779-59.008 88.06-54.471 101.786-3.242 8.964 33.455-11.404 85.15-39.564 133.19z" overflow="visible" fill="url(#b)" transform="translate(45.636 51.234)"/><path d="M208.667 328.778c-25.406.021-104.275-17.538-126.704-48.235-20.106-27.516-4.692-90.596 68.227-70.927 13.04-52.66 82.091-55.526 96.125-10.25 4.74 15.289 1.103 36.826-5.892 59.752-6.995 22.925-18.3 47.502-31.756 69.66z" style="isolation:auto;mix-blend-mode:normal;solid-color:#000;solid-opacity:1;marker:none" overflow="visible" fill="url(#e)" transform="translate(45.636 51.234)"/><path d="M92.41 278.138l7.88-46.566 18.985-2.15v2.866c8.44-7.263 21.41-8.156 25.012.97 4.032-8.062 16.362-12.542 23.937-7.318 5.603 3.863 8.443 13.034 4.244 29.99 7.385-1.254 11.63-20.281 12.358-34.746l20.054-2.196c-1.484 5.836-6.105 31.941-2.874 32.374 2.938.394 9.252-12.928 11.112-33.276l20.782-2.275-10.388 58.745c-2.018 11.41-17.024 21.206-28.298 20.418-16.96-1.187-21.932-22.868-8.323-24.898 8.72-1.301 12.82 12.777 5.562 18.009 9.476-.882 12.027-10.14 13.948-28.678-5.621 7.782-21.446 11.425-24.083-.97-6.853 16.117-27.963 13.054-30.255 3.31-2.573-10.937 4.622-26.954-.13-26.439-6.565.712-9.441 27.92-10.092 36.382l-20.673 2.697s8.402-36.293 3.055-35.978c-7.4.436-11.546 37.086-11.546 37.086z" style="isolation:auto;mix-blend-mode:normal;solid-color:#000;solid-opacity:1;marker:none" overflow="visible" fill="url(#f)" transform="translate(45.636 51.234)"/></g><path transform="translate(45.636 51.234) scale(.9375)" d="M630.209 211.889l-30.162.623c-5.981.123-6.697 3.566-6.578 5.925l2.705 53.569c.136 2.703 1.398 6.242 5.119 5.81l32.236-3.734c1.948-.226 4.403-1.158 4.256-3.113l-.346-4.602c-.186-2.48-4.147-1.764-6.082-1.703l-7.798.246c-2.15.068-4.215-1.685-4.28-3.834l-.138-4.566c-.062-2.033 1.704-4.754 3.736-4.842l6.363-.277c1.807-.079 4.5-.858 4.428-2.664l-.139-3.424c-.068-1.69-2.388-1.867-4.806-1.867h-5.95c-2.122 0-4.74-1.822-4.74-3.944v-4.842c0-2.122 2.167-4.705 4.29-4.705h9.962c2.381 0 3.527-2.738 3.527-5.119v-8.44c0-2.887-2.716-4.557-5.603-4.497zm-77.293 3.187a6.465 6.465 0 00-.863.01l-11.862.899c-4.259.322-5.522 4.657-5.185 9.787l2.935 44.677c.492 7.479 1.884 10.572 7.83 10.327l30.143-1.246c9.499-.393 7.472-13.495 2.252-13.534l-13.31-.097c-3.83-.028-4.084-3.638-4.467-9.1l-2.252-32.103c-.346-4.93-1.127-9.385-5.221-9.62zm-181.953 1.367a11.794 11.794 0 00-11.793 11.793 11.794 11.794 0 0011.793 11.793 11.794 11.794 0 0011.795-11.793 11.794 11.794 0 00-11.795-11.793zm144.945 5.286l-40.832 3.15c-2.534.195-5.517 2.854-5.392 5.392l.513 10.508c.128 2.605 2.336 5.708 4.938 5.532l7.293-.495c2.636-.179 6.096 2.156 6.226 4.795l1.477 29.795c.153 3.096 1.523 7.185 4.621 7.283l8.822.28c3.01.095 4.193-4.834 4.06-7.842l-1.364-31.072c-.12-2.704 1.46-5.61 4.156-5.842l7.18-.617c2.568-.221 4.762-3.17 4.587-5.742l-.693-10.223c-.225-3.32-2.864-5.113-5.592-4.902zm-67.65 4.753l-40.834 3.15c-2.534.196-5.515 2.855-5.39 5.393l.513 10.508c.127 2.605 2.336 5.708 4.937 5.531l7.293-.494c2.637-.179 6.096 2.156 6.227 4.795l1.475 29.795c.153 3.096 1.524 7.183 4.623 7.281l8.822.282c3.01.095 4.193-4.834 4.06-7.842l-1.367-31.074c-.119-2.704 1.462-5.608 4.158-5.84l7.18-.62c2.569-.22 4.762-3.167 4.588-5.74l-.693-10.224c-.226-3.32-2.865-5.111-5.592-4.9zm-127.166 6.008a6.465 6.465 0 00-.863.01l-11.86.899c-4.26.322-5.524 4.657-5.187 9.787l2.935 44.678c.492 7.478 1.884 10.571 7.83 10.326l30.145-1.246c9.499-.393 7.47-13.495 2.25-13.534l-13.309-.097c-3.829-.029-4.084-3.638-4.467-9.1l-2.252-32.103c-.345-4.93-1.129-9.385-5.222-9.62zm60.125 17.819a3.523 3.523 0 00-.578.011l-13.362 1.39c-2.83.295-4.35 4.313-4.064 7.143l2.916 28.862c.33 3.272.92 7.38 5.15 7.12l16.639-1.02c3.945-.243 3.274-4.965 2.846-7.997l-4.082-28.861c-.413-2.918-2.615-6.482-5.465-6.648z" style="isolation:auto;mix-blend-mode:normal;solid-color:#000;solid-opacity:1;marker:none" color="#000" overflow="visible" fill="url(#a)"/><g color="#000"><path style="isolation:auto;mix-blend-mode:normal;solid-color:#000;solid-opacity:1;marker:none" d="M159.572 369.66c-17.999-.18-35.696 4.921-49.232 13.072-45.185 85.605-18.6 172.207-18.6 172.207l59.236 97.75c8.802 13.88 26.82 11.047 30.968 5.802l34.855-42.387c6.266-7.923 4.626-16.964 1.033-24.04-8.904-17.533-16.91-24.497-16.232-27.027.774-2.886 14.42-5.996 32.304-18.86 9.52-6.85 17.567-14.826 24.838-25.004 13.946-19.52 11.003-47.804 1.906-71.06-8.084-20.667-34.433-56.712-58.978-70.105-12.239-6.678-26.216-10.19-42.098-10.348zm47.918 94.19c4.372.033 8.644 1.908 11.192 5.818 7.641 11.728-.47 38.094-.47 38.094-8.323 1.942-27.376 2.407-36.439-.022-19.688-5.275-11.807-30.438 11.813-23.484-3.193-16.528 6.618-20.462 13.904-20.406z" transform="translate(45.636 51.234) scale(.9375)" overflow="visible" fill="url(#c)"/><path style="isolation:auto;mix-blend-mode:normal;solid-color:#000;solid-opacity:1;marker:none" d="M153.36 372.863c-16.938-.168-34.06 3.592-46.798 11.262-84.191 48.608-77.09 73.176-77.09 73.176l116.706 188.745c7.646 12.057 16.663 11.85 21.144 6.184l33.38-41.916c5.442-6.882 4.14-12.88.462-18.71l-15.393-24.399c-2.525-4.003-1.165-8.05 2.745-9.934 21.654-10.431 44.892-19.859 59.59-40.431 13.122-18.368 9.802-48.603 1.242-70.486-7.608-19.449-31.632-51.247-54.729-63.85-11.516-6.284-26.315-9.492-41.26-9.64zm41.88 83.705c10.904-1.76 16.719 7.764 16.719 7.764 8.571 9.373 10.882 28.113 4.707 46.014-28.342 4.962-63.835 6.444-60.074-18.399 1.166-7.702 7.601-15.534 22.488-15.726.023-11.653 6.443-18.084 16.16-19.653z" transform="translate(45.636 51.234) scale(.9375)" overflow="visible" fill="url(#b)"/><path style="isolation:auto;mix-blend-mode:normal;solid-color:#000;solid-opacity:1;marker:none" d="M147.607 375.36c-16.162-.162-32.503 3.428-44.658 10.747L41.24 423.27c-16.809 10.12-16.346 31.178-8.233 43.97l109.178 172.14c7.046 11.111 15.354 10.92 19.484 5.698l29.129-36.832c5.016-6.342 3.817-11.871.428-17.244L177.04 568.52c-3.066-4.86-1.592-14.452 4.115-17.184 20.688-9.905 42.84-18.952 56.865-38.584 12.523-17.528 9.355-46.379 1.186-67.262-7.26-18.559-30.186-48.905-52.227-60.931-10.99-5.997-25.112-9.058-39.373-9.2zm59.794 84.62c10.682 16.396-.305 53.59-.305 53.59-11.636 2.716-42.839 2.962-51.637-4.912-9.96-8.914-14.41-33.463 15.113-36.847.686-20.752 27.334-26.405 36.83-11.83z" transform="translate(45.636 51.234) scale(.9375)" overflow="visible" fill="url(#a)"/><path style="isolation:auto;mix-blend-mode:normal;solid-color:#000;solid-opacity:1;marker:none" d="M363.396 320.441a95.21 95.21 0 00-3.91.108c-24.525 1.173-48.78 6.703-66.537 15.035-27.42 12.866-32.48 38.868-30.906 63.344 1.759 27.34 7.015 59.907 14.11 86.513 8.27 31.023 40.72 38.652 66.283 39.381 36.405 1.04 68.564-8.54 91.912-26.861 16.504-12.952 25.452-37.664 22.736-59.287-2.777-22.106-17.825-63.008-35.014-90.738-12.457-20.098-38.937-27.63-58.674-27.495zm27.749 89.766c8.741 0 10.892 8.186 10.892 8.186 4.04 6.476-4.005 23.713-9.611 33.617-5.849.925-19.468.94-32.004-6.297-11.508-6.644-6.482-24.85 17.21-18.623 1.408-13.165 8.229-16.883 13.513-16.883z" transform="translate(45.636 51.234) scale(.9375)" overflow="visible" fill="url(#c)"/><path style="isolation:auto;mix-blend-mode:normal;solid-color:#000;solid-opacity:1;marker:none" d="M364.117 324.037a81.29 81.29 0 00-3.469.096c-21.757 1.059-47.002 9.53-62.755 17.05-24.326 11.613-33.028 37.58-31.631 59.669 1.56 24.674 1.742 60.533 10.785 83.615 9.523 24.308 38.594 31.034 63.453 30.289 28.805-.864 63.406-8.255 84.9-27.135 14.077-12.364 21.157-31.21 18.252-54.73-3.03-24.546-21.668-71.303-33.494-87.834-8.84-12.358-24.289-21.02-46.04-21.02zm20.309 77.496c5.983.097 12.02 3.217 15.861 9.373 5.883 9.43.173 32.159-7.99 46.578-8.516 1.348-37.986-3.289-44.777-12.078-7.152-9.255-7.072-31.088 18.87-29.3 2.738-9.828 10.344-14.698 18.036-14.573z" transform="translate(45.636 51.234) scale(.9375)" overflow="visible" fill="url(#b)"/><path style="isolation:auto;mix-blend-mode:normal;solid-color:#000;solid-opacity:1;marker:none" d="M331.544 300.243c0 1.094-2.18.038-3.253.09-20.398.993-41.5 6.737-56.27 13.786-22.805 10.887-30.016 35.192-29.653 55.939.426 24.427 6.871 57.949 15.6 79.488 8.195 20.225 30.693 26.707 53.998 26.008 27.005-.81 58.24-7.941 77.658-23.444 13.727-10.958 18.377-31.522 16.118-49.818-2.842-23.012-14.751-56.56-29.047-80.023-10.361-17.005-28.736-22.14-45.151-22.026zm24.525 68.903c6.139.1 12.332 3.3 16.273 9.616 6.036 9.675.177 32.995-8.197 47.79-8.737 1.381-38.973-3.375-45.94-12.393-7.338-9.496-7.256-31.897 19.36-30.062 2.81-10.083 10.612-15.079 18.504-14.95z" overflow="visible" fill="url(#a)" transform="translate(45.636 51.234)"/><g><path d="M446.941 506.57L421.834 316.15c-.97-7.358 3.439-16.594 10.804-17.504l43.113-5.328c10.85-1.34 25.217 3.45 31.935 12.074l66.963 85.96c5.846 7.503 11.826 5.833 10.289-2.561l-16.607-90.662c-1.236-6.746 6.193-15.047 13.05-15.153l33.237-.516c9.205-.143 16.436 6.872 17.687 14.406l29.736 179.181c.996 6.005.374 19.735-19.773 25.547-17.432 5.029-33.898 4.194-46.01-4.975l-62.331-47.192c-2.842-2.151-3.564-2.055-2.819 2.552l6.3 38.958c1.353 8.365-4.112 22.053-15.53 24.547l-51.124 11.166c-8.047 1.758-22.11-7.165-23.813-20.079z" style="isolation:auto;mix-blend-mode:normal;solid-color:#000;solid-opacity:1;marker:none" overflow="visible" fill="url(#c)" transform="translate(45.636 51.234)"/><path d="M443.793 495.87l-21.97-181.527c-.847-6.992 3.277-15.644 10.253-16.611l36.452-5.057c10.276-1.425 22.396 3.884 28.758 12.079l69.209 89.15c5.536 7.13 11.09 5.559 9.764-2.43L561.41 301.98c-1.065-6.42 5.888-14.71 12.385-15.094l35.839-2.122c5.281-.313 10.355 6.005 11.224 11.224l29.288 175.947c1.55 9.317-5.842 16.722-10.718 17.578l-21.385 3.752c-9.534 1.673-19.325-1.667-24.998-6.038l-73.475-56.605c-4.608-3.55-4.706-2.429-4.231.192l9.62 53.06c1.21 6.672-3.343 18.527-11.774 20.546l-46.007 11.018c-9.79 2.344-21.715-5.764-23.386-19.568z" style="isolation:auto;mix-blend-mode:normal;solid-color:#000;solid-opacity:1;marker:none" overflow="visible" fill="url(#b)" transform="translate(45.636 51.234)"/><path style="isolation:auto;mix-blend-mode:normal;solid-color:#000;solid-opacity:1;marker:none" d="M442.599 488.68l-21.81-175.01c-.837-6.71 3.146-15.021 9.844-15.95l35-4.855c9.867-1.369 19.763 3.454 25.842 11.344l66.621 86.47c5.29 6.866 10.496 5.362 9.375-2.333l-13.192-90.583c-.901-6.184 5.65-14.165 11.891-14.493l35.305-1.858c5.073-.267 9.936 5.766 10.777 10.777l29.73 177.264c.917 5.47-3.832 10.853-8.503 11.732l-22.712 4.278c-9.133 1.72-14.576-1.84-20.07-5.976l-75.996-57.23c-4.461-3.36-9.055-1.313-7.897 5.388l8.826 51.099c1.108 6.415-.673 16.274-8.77 18.21l-45.859 10.962c-9.402 2.247-16.751-5.988-18.402-19.237z" overflow="visible" fill="url(#a)" transform="translate(45.636 51.234)"/></g><g><path d="M809.098 236.665l-30.184 1.979c-10.112.663-11.196 8.307-11.91 16.692l-9.597 112.591c-1.07 12.539-7.254 12.826-10.076.712l-25.557-109.676c-2.632-11.298-17.217-19.37-30.018-17.565l-31.496 4.438c-8.58 1.21-12.612 11.165-9.015 21.043l62.56 171.834c9.786 26.879 4.81 39.615-8.336 60.077-23.347 36.34-45.628 56.872-81.396 67.257-62.33 18.095-132.82.838-179.435-19.324-98.238-42.49-137.372-41.658-169.502-27.824-50.11 21.575-82.26 68.632-63.771 132.742 13.733 47.622 61.951 75.182 103.946 71.616 100.64-8.546 94.308-89.343 76.49-114.51-10.751-15.184-33.16-16.948-52.54-10.914l-9.417 1.856c16.357-9.623 39.99-13.516 57.928-13.058 85.2 2.172 166.668 54.053 254.909 25.686 77.684-24.974 109.427-75.4 135.25-140.75 31.151-78.839 38.826-135.57 49.8-211.55 1.525-10.554-8.714-23.494-16.395-23.434-.747.006-1.493.058-2.238.082z" style="isolation:auto;mix-blend-mode:normal;solid-color:#000;solid-opacity:1" overflow="visible" fill="url(#c)" transform="translate(45.636 51.234)"/><path style="isolation:auto;mix-blend-mode:normal;solid-color:#000;solid-opacity:1" d="M801.558 237.132l-35.89 1.968c-9.845.54-13.174 7.615-13.869 15.773l-9.338 109.55c-1.04 12.199-7.158 12.501-9.803.692l-24.203-108.038c-2.008-8.963-9.412-16.675-18.717-15.723l-41.798 4.276c-8.387.858-12.271 10.863-8.772 20.475l60.87 167.19c9.522 26.152 4.681 38.544-8.11 58.454-22.717 35.357-44.395 55.335-79.197 65.438-60.645 17.607-129.23.816-174.586-18.8-95.583-41.342-133.659-40.533-164.92-27.074-48.757 20.992-81.862 70.883-63.873 133.26 13.362 46.335 57.497 69.437 102.96 65.576 76.976-6.536 86.278-74.673 68.941-99.16-21.337-30.137-74.58-6.793-69.034 25.306 4.164 24.103 32.13 33.97 48.846 24.496-14.743 17.013-54.511 8.592-58.633-22.62-6.111-46.283 43.187-64.85 78.332-63.953 79.675 2.031 166.496 52.397 252.352 24.797 75.585-24.299 104.19-70.17 129.315-133.753 30.31-76.71 38.69-135.555 49.367-209.483 1.123-7.78-3.724-18.761-8.063-18.727-.727.006-1.452.056-2.177.08z" overflow="visible" fill="url(#b)" transform="translate(45.636 51.234)"/><path d="M791.94 237.364l-38.438 1.697c-9.637.425-12.889 7.45-13.57 15.432l-9.135 107.18c-1.017 11.936-4.382 11.75-7.07.219L699.4 257.487c-2.04-8.752-9.189-16.096-18.312-15.382l-42.768 3.345c-8.223.643-12.006 10.628-8.582 20.032l59.553 163.574c9.316 25.587 4.58 37.71-7.935 57.19-22.225 34.592-43.435 54.138-77.484 64.023-59.334 17.226-126.436.798-170.81-18.395-93.516-40.447-130.768-39.656-161.354-26.487-47.702 20.538-81.467 73.935-63.867 134.964 13.074 45.333 57.63 65.413 102.11 61.636 68.44-5.812 80.284-66.868 63.322-90.825-19.75-27.894-63.04-15.364-63.414 16.503-.282 24.041 29.142 36.446 45.497 27.178-11.673 29.945-63.422 11.386-63.327-25.801.124-48.402 50.508-62.987 84.893-62.11 77.952 1.987 161.52 47.136 246.895 24.26 66.34-17.776 102.832-60.509 126.517-123.064 25.986-68.63 41.98-141.337 52.427-213.666 1.1-7.611-4.446-17.209-8.69-17.176-.711.006-1.421.055-2.13.078z" style="isolation:auto;mix-blend-mode:normal;solid-color:#000;solid-opacity:1" overflow="visible" fill="url(#a)" transform="translate(45.636 51.234)"/></g></g></g></svg>