<svg version="1.1" xmlns="http://www.w3.org/2000/svg" x="0px" y="0px" viewBox="0 0 175 175" enable-background="new 0 0 175 175" xml:space="preserve"><defs><filter id="opacitymask_filter" filterUnits="userSpaceOnUse" x="-48.8" y="-30.1" width="270.7" height="396.2"><feColorMatrix  type="matrix" values="1 0 0 0 0  0 1 0 0 0  0 0 1 0 0  0 0 0 1 0"/><feGaussianBlur in="SourceGraphic" stdDeviation="5" /></filter></defs><mask maskUnits="userSpaceOnUse" x="-48.8" y="-30.1" width="270.7" height="396.2" id="opacitymask"><g filter="url(#opacitymask_filter)"><rect x="6.9" y="6.9" fill="white" width="161.1" height="161.1"/></g></mask><g mask="url(#opacitymask)"><path fill="Mane & Tail Fill" stroke="Mane & Tail Outline" stroke-width="6" stroke-miterlimit="10" d="M96.1,21.6 C106.3,0.6,137.3-23,166.1-27c20.5-2.9,52.4,63.8,52.4,63.8s-73.5-24-99-0.4"/><path fill="Coat Shadow Fill" stroke="Coat Shadow Outline" stroke-width="6" stroke-miterlimit="10" d="M41.2,151.2 c4.5,5.4,8.2,10.6,10,16c8.7,25.7,13.9,76.6-3.1,129.5c-15,46.6-30,50.8,11.8,50.4c31.3-0.3,40.8-1.1,44.2-14.8 c22.6-91,4.4-155.4-1.9-169.4c-3.1-6.9-8.6-6.2-8.6-6.2"/><path fill="Coat Fill" d="M-23.6,41.9c12.5,3.7,30.8,4.6,54-6.8c45.8-22.5,71.9-24.6,97.8,6.3 c24.6,29.3,14.4,75.9,2.7,107.1c0,0-0.9,7.5-1.9,17.6c0,0,15.7-2,19.6,4.8c7.7,13.5,47.7,60.3,43,173.1c-0.6,14.7-10.1,19-41.5,19 c-45,0-31.8,6.3-30.8-49.5c1.5-79.1-24.5-112.5-40-138.4l-17.9-22.9c-22.8,19.9-73.9,18.4-104.5,9.3"/><path fill="Coat Outline" d="M136.1,181.4c-1.5-0.8-2.8-1.9-3.9-3.1c-0.6-0.6-1.1-1.3-1.6-2c-0.4-0.7-1-1.4-1.3-2.2 c-1.6-3.1-2.6-6.5-2.8-10c-0.1-1.7-0.1-3.5,0-5.2c0.1-1.7,0.4-3.4,0.7-5.1c0.4-1.7,0.9-3.3,1.4-4.9l1.5-4.6 c3.9-12.2,6.8-24.7,8.4-37.3c0.8-6.3,1.3-12.7,1.2-19c-0.1-6.3-0.6-12.6-1.9-18.7c-1.2-6.1-3.3-12-6.2-17.4l-1.2-2l-0.6-1 l-0.6-0.9l-1.3-1.9l-1.4-1.8c-0.2-0.3-0.5-0.6-0.7-0.9l-0.8-0.9l-1.6-1.8c-1.1-1.1-2.1-2.3-3.2-3.4c-2.2-2.2-4.5-4.3-7-6.1 c-2.4-1.9-5-3.5-7.7-4.9c-2.7-1.4-5.5-2.5-8.5-3.3c-2.9-0.8-5.9-1.3-9-1.4c-6.1-0.4-12.3,0.4-18.4,1.8c-6.1,1.4-12.1,3.5-18.1,5.8 c-5.9,2.4-11.8,5-17.6,7.8l-2.2,1l-2.3,1.1l-2.2,1l-2.3,1c-0.8,0.3-1.6,0.7-2.3,0.9l-2.4,0.8c-1.6,0.6-3.2,1-4.8,1.5 c-6.4,1.9-13.1,3-19.9,3.2c-6.8,0.2-13.6-0.6-20.1-2.6l0,0l3.8-2.4L-40.1,162l-2.1-3.4c8.6,2.4,17.6,3.9,26.6,4.8 c2.2,0.2,4.5,0.4,6.8,0.6c2.3,0.1,4.5,0.2,6.8,0.3c2.3,0.1,4.5,0.1,6.8,0.1c2.3,0,4.5-0.1,6.8-0.2c1.1,0,2.3-0.1,3.4-0.2 c1.1-0.1,2.2-0.2,3.4-0.3c2.2-0.2,4.5-0.5,6.7-0.8c4.4-0.6,8.8-1.5,13.1-2.6c2.1-0.6,4.3-1.2,6.4-2c2.1-0.7,4.1-1.6,6.1-2.5 c1-0.5,2-0.9,2.9-1.5c0.5-0.3,1-0.5,1.4-0.8l1.4-0.9c1.8-1.1,3.5-2.4,5.2-3.8l3.9,4.5c-1.9,1.6-3.9,3.1-5.9,4.3l-1.6,1 c-0.5,0.3-1.1,0.6-1.6,0.9c-1.1,0.6-2.1,1.1-3.2,1.6c-2.2,1-4.4,1.9-6.6,2.7c-2.2,0.8-4.5,1.5-6.8,2.1c-4.6,1.2-9.2,2.1-13.9,2.8 c-2.3,0.3-4.7,0.6-7,0.8c-1.2,0.1-2.3,0.2-3.5,0.3c-1.2,0.1-2.3,0.2-3.5,0.2c-2.3,0.1-4.7,0.2-7,0.2c-2.3,0-4.7,0-7-0.1 c-2.3-0.1-4.7-0.2-7-0.3c-2.3-0.2-4.7-0.3-7-0.6c-9.3-0.9-18.5-2.5-27.6-5l-2.6-0.7l0.4-2.6l19.4-119.7l0.5-3.3l3.3,0.9l0,0 c5.9,1.7,12.1,2.5,18.3,2.3c6.2-0.2,12.4-1.2,18.4-3c1.5-0.5,3-0.9,4.5-1.4l2.2-0.8c0.7-0.3,1.4-0.6,2.2-0.9l2.1-0.9l2.2-1l2.1-1 l2.2-1.1c5.9-2.8,11.9-5.5,18-8c6.1-2.4,12.4-4.5,18.9-6c6.5-1.5,13.3-2.4,20.1-1.9c3.4,0.2,6.8,0.7,10.2,1.6 c3.3,0.9,6.6,2.2,9.6,3.7c3.1,1.6,6,3.4,8.6,5.5c2.7,2.1,5.2,4.3,7.6,6.7c1.2,1.2,2.3,2.4,3.5,3.7l1.6,1.8l0.8,0.9 c0.3,0.4,0.5,0.7,0.8,1l1.6,2l1.4,2.1l0.7,1.1l0.6,1.1l1.3,2.2c3.2,6,5.4,12.5,6.8,19.1c1.4,6.6,1.9,13.3,2,19.9 c0.1,6.6-0.4,13.2-1.2,19.8c-1.7,13.1-4.7,25.9-8.7,38.4l-1.5,4.7l-0.6,2.2c-0.2,0.7-0.5,1.5-0.6,2.2c-0.8,2.9-1.4,5.9-1.6,8.9 c-0.1,3,0,6,0.8,9c0.1,0.8,0.4,1.5,0.6,2.2c0.3,0.7,0.5,1.5,0.9,2.2C134.3,178.8,135.1,180.2,136.1,181.4z"/><path fill="Coat Outline" d="M128.6,162.4c0,0,0.2,0,0.5-0.1c0.3,0,0.7-0.1,1.3-0.1c1.1-0.1,2.8-0.2,5.1-0.1c2.2,0.1,5,0.3,8.3,1.5 c1.7,0.6,3.5,1.5,5.2,3.1c0.2,0.2,0.4,0.4,0.6,0.6l0.3,0.4l0.2,0.3c0.3,0.3,0.6,0.7,0.8,1.1c0.6,0.8,1.2,1.5,1.8,2.3 c4.7,6.4,9.7,14.5,14.5,24.3c4.8,9.8,9.5,21.1,13.5,33.9c4,12.7,7.3,26.9,9.6,42c1.1,7.6,2.1,15.3,2.7,23.3c0.2,2,0.3,4,0.4,6 c0.1,2,0.3,4.1,0.3,6.1c0.1,4.1,0.3,8.2,0.3,12.4c0.1,8.3-0.1,16.7-0.5,25.4c-0.2,2.3-0.6,4.7-1.4,7.1c-0.9,2.4-2.3,4.7-4.2,6.5 c-1.9,1.8-4.1,3.1-6.4,4c-2.2,0.9-4.5,1.5-6.7,2c-4.5,0.9-9,1.3-13.4,1.6c-4.4,0.2-8.9,0.3-13.3,0.3c-4.4,0-8.8,0-13.3-0.1 c-2.2-0.1-4.5-0.2-6.7-0.3c-2.3-0.2-4.6-0.4-7-1c-1.2-0.3-2.5-0.7-3.8-1.5c-1.3-0.7-2.7-1.9-3.5-3.4c-0.9-1.5-1.2-3-1.3-4.4 c-0.1-1.4-0.1-2.6,0-3.8c0.2-2.4,0.5-4.6,0.9-6.8c0.3-2.2,0.7-4.3,1-6.5c1.3-8.6,1.9-17.1,1.9-25.6c0-17.3-1.3-34.1-4.1-50.2 c-1.4-8-3.2-15.8-5.4-23.4c-2.2-7.5-4.7-14.8-7.6-21.6c-5.7-13.8-12.8-26-19.7-37.2c-1.7-2.8-3.4-5.7-5.1-8 c-1.8-2.5-3.7-4.9-5.5-7.2c-1.9-2.3-3.8-4.6-5.6-6.8c-1.8-2.2-3.6-4.4-5.2-6.6c-3.2-4.4-6.1-8.6-8.5-12.7 c-2.4-4.1-4.2-8.1-5.6-11.8c-1.4-3.7-2.2-7.2-2.7-10.2c-0.5-3-0.6-5.6-0.8-7.7c0-2.1,0-3.7,0.1-4.8c0.1-1.1,0.1-1.6,0.1-1.6 s0.1,0.5,0.2,1.6c0.1,1.1,0.4,2.6,0.8,4.6c0.8,4,2.4,9.8,5.7,16.6c3.3,6.8,8.3,14.4,15.2,22.5c1.7,2,3.5,4.1,5.3,6.3 c1.8,2.2,3.7,4.5,5.6,6.8c1.9,2.4,3.9,4.8,5.8,7.5c2,2.8,3.6,5.5,5.3,8.3c7,11.2,14.3,23.9,20.2,38.1c3,7.1,5.6,14.5,7.8,22.3 c2.2,7.7,4.1,15.8,5.5,24c2.9,16.4,4.2,33.8,4.2,51.2c0,8.9-0.7,17.7-2,26.5c-0.6,4.4-1.5,8.8-1.8,12.8c-0.2,2,0,3.9,0.5,4.7 c0.3,0.4,0.6,0.8,1.2,1.1c0.6,0.3,1.4,0.6,2.4,0.9c1.8,0.5,3.9,0.7,6,0.9c2.1,0.2,4.3,0.3,6.4,0.3c4.3,0.1,8.7,0.1,13.1,0.1 c4.4,0,8.7,0,13-0.3c4.3-0.2,8.5-0.6,12.5-1.4c4-0.8,7.8-2.2,10.2-4.5c1.2-1.2,2.1-2.5,2.7-4.2c0.6-1.6,0.9-3.5,1.1-5.4 c0.4-8.3,0.7-16.7,0.5-24.9c0-4.1-0.2-8.2-0.3-12.2c-0.1-2-0.2-4-0.3-6c-0.1-2-0.2-4-0.4-5.9c-0.6-7.9-1.6-15.5-2.7-22.9 c-2.3-14.8-5.5-28.6-9.4-41.1c-3.9-12.5-8.5-23.6-13.1-33c-4.7-9.5-9.5-17.3-14-23.4c-0.6-0.8-1.1-1.5-1.6-2.1 c-0.3-0.4-0.6-0.7-0.8-1.1l-0.2-0.3l-0.1-0.1c-0.1-0.1-0.2-0.2-0.3-0.3c-0.8-0.8-1.9-1.3-3.1-1.8c-2.3-0.8-4.7-1-6.6-1.1 c-1.9-0.1-3.4,0-4.4,0.1c-0.5,0-0.9,0.1-1.1,0.1c-0.2,0-0.3,0-0.3,0L128.6,162.4z"/></g></svg>
